%TF.GenerationSoftware,KiCad,Pcbnew,(6.0.9)*%
%TF.CreationDate,2023-05-03T01:49:20-07:00*%
%TF.ProjectId,Air-Quality-PCB,4169722d-5175-4616-9c69-74792d504342,rev?*%
%TF.SameCoordinates,Original*%
%TF.FileFunction,Copper,L1,Top*%
%TF.FilePolarity,Positive*%
%FSLAX46Y46*%
G04 Gerber Fmt 4.6, Leading zero omitted, Abs format (unit mm)*
G04 Created by KiCad (PCBNEW (6.0.9)) date 2023-05-03 01:49:20*
%MOMM*%
%LPD*%
G01*
G04 APERTURE LIST*
G04 Aperture macros list*
%AMRoundRect*
0 Rectangle with rounded corners*
0 $1 Rounding radius*
0 $2 $3 $4 $5 $6 $7 $8 $9 X,Y pos of 4 corners*
0 Add a 4 corners polygon primitive as box body*
4,1,4,$2,$3,$4,$5,$6,$7,$8,$9,$2,$3,0*
0 Add four circle primitives for the rounded corners*
1,1,$1+$1,$2,$3*
1,1,$1+$1,$4,$5*
1,1,$1+$1,$6,$7*
1,1,$1+$1,$8,$9*
0 Add four rect primitives between the rounded corners*
20,1,$1+$1,$2,$3,$4,$5,0*
20,1,$1+$1,$4,$5,$6,$7,0*
20,1,$1+$1,$6,$7,$8,$9,0*
20,1,$1+$1,$8,$9,$2,$3,0*%
G04 Aperture macros list end*
%TA.AperFunction,ComponentPad*%
%ADD10R,1.700000X1.700000*%
%TD*%
%TA.AperFunction,ComponentPad*%
%ADD11O,1.700000X1.700000*%
%TD*%
%TA.AperFunction,SMDPad,CuDef*%
%ADD12RoundRect,0.250000X0.312500X0.625000X-0.312500X0.625000X-0.312500X-0.625000X0.312500X-0.625000X0*%
%TD*%
%TA.AperFunction,SMDPad,CuDef*%
%ADD13RoundRect,0.250000X0.625000X-0.312500X0.625000X0.312500X-0.625000X0.312500X-0.625000X-0.312500X0*%
%TD*%
%TA.AperFunction,SMDPad,CuDef*%
%ADD14RoundRect,0.250000X-0.312500X-0.625000X0.312500X-0.625000X0.312500X0.625000X-0.312500X0.625000X0*%
%TD*%
%TA.AperFunction,SMDPad,CuDef*%
%ADD15RoundRect,0.150000X-0.587500X-0.150000X0.587500X-0.150000X0.587500X0.150000X-0.587500X0.150000X0*%
%TD*%
%TA.AperFunction,ViaPad*%
%ADD16C,0.800000*%
%TD*%
%TA.AperFunction,Conductor*%
%ADD17C,0.300000*%
%TD*%
%TA.AperFunction,Conductor*%
%ADD18C,0.500000*%
%TD*%
G04 APERTURE END LIST*
D10*
%TO.P,J11,1,Pin_1*%
%TO.N,unconnected-(J11-Pad1)*%
X156960000Y-96500000D03*
D11*
%TO.P,J11,2,Pin_2*%
%TO.N,unconnected-(J11-Pad2)*%
X156960000Y-99040000D03*
%TO.P,J11,3,Pin_3*%
%TO.N,unconnected-(J11-Pad3)*%
X156960000Y-101580000D03*
%TO.P,J11,4,Pin_4*%
%TO.N,unconnected-(J11-Pad4)*%
X156960000Y-104120000D03*
%TO.P,J11,5,Pin_5*%
%TO.N,unconnected-(J11-Pad5)*%
X156960000Y-106660000D03*
%TO.P,J11,6,Pin_6*%
%TO.N,unconnected-(J11-Pad6)*%
X156960000Y-109200000D03*
%TO.P,J11,7,Pin_7*%
%TO.N,unconnected-(J11-Pad7)*%
X156960000Y-111740000D03*
%TO.P,J11,8,Pin_8*%
%TO.N,unconnected-(J11-Pad8)*%
X156960000Y-114280000D03*
%TO.P,J11,9,Pin_9*%
%TO.N,unconnected-(J11-Pad9)*%
X156960000Y-116820000D03*
%TO.P,J11,10,Pin_10*%
%TO.N,unconnected-(J11-Pad10)*%
X156960000Y-119360000D03*
%TD*%
D10*
%TO.P,J13,1,Pin_1*%
%TO.N,GND*%
X159510000Y-96500000D03*
D11*
%TO.P,J13,2,Pin_2*%
%TO.N,ULTRA_ECHO_2*%
X159510000Y-99040000D03*
%TO.P,J13,3,Pin_3*%
%TO.N,ULTRA_TRIG_2*%
X159510000Y-101580000D03*
%TO.P,J13,4,Pin_4*%
%TO.N,ULTRA_ECHO_1*%
X159510000Y-104120000D03*
%TO.P,J13,5,Pin_5*%
%TO.N,ULTRA_TRIG_1*%
X159510000Y-106660000D03*
%TO.P,J13,6,Pin_6*%
%TO.N,I2C_1 SDA*%
X159510000Y-109200000D03*
%TO.P,J13,7,Pin_7*%
%TO.N,I2C_1 SCL*%
X159510000Y-111740000D03*
%TO.P,J13,8,Pin_8*%
%TO.N,HOT_WIRE*%
X159510000Y-114280000D03*
%TO.P,J13,9,Pin_9*%
%TO.N,unconnected-(J13-Pad9)*%
X159510000Y-116820000D03*
%TO.P,J13,10,Pin_10*%
%TO.N,unconnected-(J13-Pad10)*%
X159510000Y-119360000D03*
%TD*%
D10*
%TO.P,J5,1,Pin_1*%
%TO.N,unconnected-(J5-Pad1)*%
X123965000Y-122030000D03*
D11*
%TO.P,J5,2,Pin_2*%
%TO.N,unconnected-(J5-Pad2)*%
X126505000Y-122030000D03*
%TO.P,J5,3,Pin_3*%
%TO.N,unconnected-(J5-Pad3)*%
X129045000Y-122030000D03*
%TD*%
%TO.P,J10,2,Pin_2*%
%TO.N,unconnected-(J10-Pad2)*%
X149435000Y-121990000D03*
D10*
%TO.P,J10,1,Pin_1*%
%TO.N,unconnected-(J10-Pad1)*%
X146895000Y-121990000D03*
%TD*%
D11*
%TO.P,J12,2,Pin_2*%
%TO.N,unconnected-(J12-Pad2)*%
X149440000Y-124540000D03*
D10*
%TO.P,J12,1,Pin_1*%
%TO.N,unconnected-(J12-Pad1)*%
X146900000Y-124540000D03*
%TD*%
%TO.P,J14,1,Pin_1*%
%TO.N,GND*%
X159620000Y-124460000D03*
D11*
%TO.P,J14,2,Pin_2*%
X159620000Y-127000000D03*
%TO.P,J14,3,Pin_3*%
%TO.N,3.3V*%
X159620000Y-129540000D03*
%TD*%
D10*
%TO.P,J2,1,Pin_1*%
%TO.N,3.3V*%
X112990000Y-96480000D03*
D11*
%TO.P,J2,2,Pin_2*%
%TO.N,unconnected-(J2-Pad2)*%
X112990000Y-99020000D03*
%TO.P,J2,3,Pin_3*%
%TO.N,RX*%
X112990000Y-101560000D03*
%TO.P,J2,4,Pin_4*%
%TO.N,TX*%
X112990000Y-104100000D03*
%TO.P,J2,5,Pin_5*%
%TO.N,SMARTMESH_SLEEP*%
X112990000Y-106640000D03*
%TO.P,J2,6,Pin_6*%
%TO.N,PM_SLEEP*%
X112990000Y-109180000D03*
%TO.P,J2,7,Pin_7*%
%TO.N,CO2_SLEEP*%
X112990000Y-111720000D03*
%TO.P,J2,8,Pin_8*%
%TO.N,ANEM_SLEEP*%
X112990000Y-114260000D03*
%TO.P,J2,9,Pin_9*%
%TO.N,I2C_0 SCL*%
X112990000Y-116800000D03*
%TO.P,J2,10,Pin_10*%
%TO.N,I2C_0 SDA*%
X112990000Y-119340000D03*
%TD*%
%TO.P,J4,10,Pin_10*%
%TO.N,unconnected-(J4-Pad10)*%
X115530000Y-119340000D03*
%TO.P,J4,9,Pin_9*%
%TO.N,unconnected-(J4-Pad9)*%
X115530000Y-116800000D03*
%TO.P,J4,8,Pin_8*%
%TO.N,unconnected-(J4-Pad8)*%
X115530000Y-114260000D03*
%TO.P,J4,7,Pin_7*%
%TO.N,unconnected-(J4-Pad7)*%
X115530000Y-111720000D03*
%TO.P,J4,6,Pin_6*%
%TO.N,unconnected-(J4-Pad6)*%
X115530000Y-109180000D03*
%TO.P,J4,5,Pin_5*%
%TO.N,unconnected-(J4-Pad5)*%
X115530000Y-106640000D03*
%TO.P,J4,4,Pin_4*%
%TO.N,unconnected-(J4-Pad4)*%
X115530000Y-104100000D03*
%TO.P,J4,3,Pin_3*%
%TO.N,unconnected-(J4-Pad3)*%
X115530000Y-101560000D03*
%TO.P,J4,2,Pin_2*%
%TO.N,GND*%
X115530000Y-99020000D03*
D10*
%TO.P,J4,1,Pin_1*%
%TO.N,5V*%
X115530000Y-96480000D03*
%TD*%
%TO.P,J8,1,Pin_1*%
%TO.N,unconnected-(J8-Pad1)*%
X118835000Y-86400000D03*
D11*
%TO.P,J8,2,Pin_2*%
%TO.N,unconnected-(J8-Pad2)*%
X121375000Y-86400000D03*
%TO.P,J8,3,Pin_3*%
%TO.N,unconnected-(J8-Pad3)*%
X123915000Y-86400000D03*
%TO.P,J8,4,Pin_4*%
%TO.N,unconnected-(J8-Pad4)*%
X126455000Y-86400000D03*
%TO.P,J8,5,Pin_5*%
%TO.N,unconnected-(J8-Pad5)*%
X128995000Y-86400000D03*
%TO.P,J8,6,Pin_6*%
%TO.N,unconnected-(J8-Pad6)*%
X131535000Y-86400000D03*
%TO.P,J8,7,Pin_7*%
%TO.N,unconnected-(J8-Pad7)*%
X134075000Y-86400000D03*
%TD*%
D10*
%TO.P,J7,1,Pin_1*%
%TO.N,unconnected-(J7-Pad1)*%
X118850000Y-83870000D03*
D11*
%TO.P,J7,2,Pin_2*%
%TO.N,unconnected-(J7-Pad2)*%
X121390000Y-83870000D03*
%TO.P,J7,3,Pin_3*%
%TO.N,unconnected-(J7-Pad3)*%
X123930000Y-83870000D03*
%TO.P,J7,4,Pin_4*%
%TO.N,unconnected-(J7-Pad4)*%
X126470000Y-83870000D03*
%TO.P,J7,5,Pin_5*%
%TO.N,unconnected-(J7-Pad5)*%
X129010000Y-83870000D03*
%TO.P,J7,6,Pin_6*%
%TO.N,unconnected-(J7-Pad6)*%
X131550000Y-83870000D03*
%TO.P,J7,7,Pin_7*%
%TO.N,unconnected-(J7-Pad7)*%
X134090000Y-83870000D03*
%TD*%
D10*
%TO.P,J1,1,Pin_1*%
%TO.N,GND*%
X114160000Y-124460000D03*
D11*
%TO.P,J1,2,Pin_2*%
X114160000Y-127000000D03*
%TO.P,J1,3,Pin_3*%
%TO.N,5V+*%
X114160000Y-129540000D03*
%TD*%
D12*
%TO.P,R15,2*%
%TO.N,Net-(J17-Pad3)*%
X195647500Y-67290000D03*
%TO.P,R15,1*%
%TO.N,I2C_0 SCL*%
X198572500Y-67290000D03*
%TD*%
D13*
%TO.P,R13,2*%
%TO.N,Net-(J17-Pad3)*%
X185760000Y-71007500D03*
%TO.P,R13,1*%
%TO.N,I2C_1 SCL*%
X185760000Y-73932500D03*
%TD*%
D14*
%TO.P,R5,2*%
%TO.N,Net-(J15-Pad2)*%
X182592500Y-139040000D03*
%TO.P,R5,1*%
%TO.N,3.3V*%
X179667500Y-139040000D03*
%TD*%
D10*
%TO.P,J16,1,Pin_1*%
%TO.N,GND*%
X188920000Y-115770000D03*
D11*
%TO.P,J16,2,Pin_2*%
X188920000Y-118310000D03*
%TO.P,J16,3,Pin_3*%
%TO.N,Net-(J16-Pad3)*%
X188920000Y-120850000D03*
%TO.P,J16,4,Pin_4*%
X188920000Y-123390000D03*
%TD*%
D14*
%TO.P,R12,1*%
%TO.N,5V*%
X181607500Y-106680000D03*
%TO.P,R12,2*%
%TO.N,Net-(J18-Pad2)*%
X184532500Y-106680000D03*
%TD*%
D10*
%TO.P,J20,1,Pin_1*%
%TO.N,ULTRA_TRIG_1*%
X194700000Y-123340000D03*
D11*
%TO.P,J20,2,Pin_2*%
%TO.N,ULTRA_ECHO_1*%
X194700000Y-120800000D03*
%TO.P,J20,3,Pin_3*%
%TO.N,ULTRA_TRIG_2*%
X194700000Y-118260000D03*
%TO.P,J20,4,Pin_4*%
%TO.N,ULTRA_ECHO_2*%
X194700000Y-115720000D03*
%TD*%
D15*
%TO.P,Q5,3,D*%
%TO.N,Net-(J17-Pad2)*%
X183087500Y-64820000D03*
%TO.P,Q5,2,S*%
%TO.N,3.3V*%
X181212500Y-65770000D03*
%TO.P,Q5,1,G*%
%TO.N,CO2_SLEEP*%
X181212500Y-63870000D03*
%TD*%
D13*
%TO.P,R14,2*%
%TO.N,Net-(J17-Pad4)*%
X188250000Y-71007500D03*
%TO.P,R14,1*%
%TO.N,I2C_1 SDA*%
X188250000Y-73932500D03*
%TD*%
D14*
%TO.P,R3,1*%
%TO.N,3.3V*%
X180177500Y-125730000D03*
%TO.P,R3,2*%
%TO.N,Net-(J16-Pad3)*%
X183102500Y-125730000D03*
%TD*%
D11*
%TO.P,J3,8,Pin_8*%
%TO.N,5V+*%
X132695000Y-136090000D03*
%TO.P,J3,7,Pin_7*%
%TO.N,GND*%
X130155000Y-136090000D03*
%TO.P,J3,6,Pin_6*%
%TO.N,unconnected-(J3-Pad6)*%
X127615000Y-136090000D03*
%TO.P,J3,5,Pin_5*%
%TO.N,GND*%
X125075000Y-136090000D03*
%TO.P,J3,4,Pin_4*%
%TO.N,unconnected-(J3-Pad4)*%
X122535000Y-136090000D03*
%TO.P,J3,3,Pin_3*%
%TO.N,BAT*%
X119995000Y-136090000D03*
%TO.P,J3,2,Pin_2*%
%TO.N,GND*%
X117455000Y-136090000D03*
D10*
%TO.P,J3,1,Pin_1*%
%TO.N,unconnected-(J3-Pad1)*%
X114915000Y-136090000D03*
%TD*%
D15*
%TO.P,Q2,1,G*%
%TO.N,SMARTMESH_SLEEP*%
X179822500Y-134730000D03*
%TO.P,Q2,2,S*%
%TO.N,3.3V*%
X179822500Y-136630000D03*
%TO.P,Q2,3,D*%
%TO.N,Net-(J15-Pad2)*%
X181697500Y-135680000D03*
%TD*%
D13*
%TO.P,R6,1*%
%TO.N,ANEM_SLEEP*%
X170330000Y-104392500D03*
%TO.P,R6,2*%
%TO.N,3.3V*%
X170330000Y-101467500D03*
%TD*%
D15*
%TO.P,Q6,1,G*%
%TO.N,Net-(Q3-Pad3)*%
X182232500Y-82820000D03*
%TO.P,Q6,2,S*%
%TO.N,5V*%
X182232500Y-84720000D03*
%TO.P,Q6,3,D*%
%TO.N,Net-(J19-Pad3)*%
X184107500Y-83770000D03*
%TD*%
%TO.P,Q1,1,G*%
%TO.N,ANEM_SLEEP*%
X181042500Y-120170000D03*
%TO.P,Q1,2,S*%
%TO.N,3.3V*%
X181042500Y-122070000D03*
%TO.P,Q1,3,D*%
%TO.N,Net-(J16-Pad3)*%
X182917500Y-121120000D03*
%TD*%
D10*
%TO.P,J21,1,Pin_1*%
%TO.N,Net-(J15-Pad2)*%
X194960000Y-133915000D03*
D11*
%TO.P,J21,2,Pin_2*%
%TO.N,TX*%
X194960000Y-136455000D03*
%TO.P,J21,3,Pin_3*%
%TO.N,RX*%
X194960000Y-138995000D03*
%TD*%
D10*
%TO.P,J15,1,Pin_1*%
%TO.N,GND*%
X188880000Y-133955000D03*
D11*
%TO.P,J15,2,Pin_2*%
%TO.N,Net-(J15-Pad2)*%
X188880000Y-136495000D03*
%TO.P,J15,3,Pin_3*%
X188880000Y-139035000D03*
%TD*%
D13*
%TO.P,R11,1*%
%TO.N,5V*%
X178460000Y-100212500D03*
%TO.P,R11,2*%
%TO.N,Net-(Q4-Pad3)*%
X178460000Y-97287500D03*
%TD*%
D15*
%TO.P,Q7,1,G*%
%TO.N,Net-(Q4-Pad3)*%
X182602500Y-97780000D03*
%TO.P,Q7,2,S*%
%TO.N,5V*%
X182602500Y-99680000D03*
%TO.P,Q7,3,D*%
%TO.N,Net-(J18-Pad2)*%
X184477500Y-98730000D03*
%TD*%
D10*
%TO.P,J19,1,Pin_1*%
%TO.N,GND*%
X191815000Y-78150000D03*
D11*
%TO.P,J19,2,Pin_2*%
X191815000Y-80690000D03*
%TO.P,J19,3,Pin_3*%
%TO.N,Net-(J19-Pad3)*%
X191815000Y-83230000D03*
%TO.P,J19,4,Pin_4*%
%TO.N,I2C_0 SCL*%
X191815000Y-85770000D03*
%TO.P,J19,5,Pin_5*%
%TO.N,I2C_0 SDA*%
X191815000Y-88310000D03*
%TD*%
D15*
%TO.P,Q3,1,G*%
%TO.N,3.3V*%
X173812500Y-83380000D03*
%TO.P,Q3,2,S*%
%TO.N,PM_SLEEP*%
X173812500Y-85280000D03*
%TO.P,Q3,3,D*%
%TO.N,Net-(Q3-Pad3)*%
X175687500Y-84330000D03*
%TD*%
D12*
%TO.P,R16,1*%
%TO.N,I2C_0 SDA*%
X198502500Y-70080000D03*
%TO.P,R16,2*%
%TO.N,Net-(J17-Pad4)*%
X195577500Y-70080000D03*
%TD*%
D14*
%TO.P,R9,2*%
%TO.N,Net-(J17-Pad2)*%
X183112500Y-69800000D03*
%TO.P,R9,1*%
%TO.N,3.3V*%
X180187500Y-69800000D03*
%TD*%
D13*
%TO.P,R7,2*%
%TO.N,CO2_SLEEP*%
X177200000Y-63387500D03*
%TO.P,R7,1*%
%TO.N,3.3V*%
X177200000Y-66312500D03*
%TD*%
D10*
%TO.P,J18,1,Pin_1*%
%TO.N,GND*%
X191835000Y-96140000D03*
D11*
%TO.P,J18,2,Pin_2*%
%TO.N,Net-(J18-Pad2)*%
X191835000Y-98680000D03*
%TO.P,J18,3,Pin_3*%
%TO.N,HOT_WIRE*%
X191835000Y-101220000D03*
%TO.P,J18,4,Pin_4*%
%TO.N,I2C_0 SCL*%
X191835000Y-103760000D03*
%TO.P,J18,5,Pin_5*%
%TO.N,I2C_0 SDA*%
X191835000Y-106300000D03*
%TD*%
D14*
%TO.P,R10,1*%
%TO.N,5V*%
X181767500Y-90970000D03*
%TO.P,R10,2*%
%TO.N,Net-(J19-Pad3)*%
X184692500Y-90970000D03*
%TD*%
D11*
%TO.P,J17,4,Pin_4*%
%TO.N,Net-(J17-Pad4)*%
X191920000Y-69880000D03*
%TO.P,J17,3,Pin_3*%
%TO.N,Net-(J17-Pad3)*%
X191920000Y-67340000D03*
%TO.P,J17,2,Pin_2*%
%TO.N,Net-(J17-Pad2)*%
X191920000Y-64800000D03*
D10*
%TO.P,J17,1,Pin_1*%
%TO.N,GND*%
X191920000Y-62260000D03*
%TD*%
%TO.P,J9,1,Pin_1*%
%TO.N,GND*%
X154820000Y-136090000D03*
D11*
%TO.P,J9,2,Pin_2*%
%TO.N,3.3V*%
X152280000Y-136090000D03*
%TO.P,J9,3,Pin_3*%
%TO.N,BAT*%
X149740000Y-136090000D03*
%TO.P,J9,4,Pin_4*%
%TO.N,unconnected-(J9-Pad4)*%
X147200000Y-136090000D03*
%TD*%
D13*
%TO.P,R1,1*%
%TO.N,3.3V*%
X174720000Y-122602500D03*
%TO.P,R1,2*%
%TO.N,ANEM_SLEEP*%
X174720000Y-119677500D03*
%TD*%
%TO.P,R8,1*%
%TO.N,5V*%
X179020000Y-84462500D03*
%TO.P,R8,2*%
%TO.N,Net-(Q3-Pad3)*%
X179020000Y-81537500D03*
%TD*%
%TO.P,R2,1*%
%TO.N,3.3V*%
X174630000Y-136772500D03*
%TO.P,R2,2*%
%TO.N,SMARTMESH_SLEEP*%
X174630000Y-133847500D03*
%TD*%
D15*
%TO.P,Q4,1,G*%
%TO.N,3.3V*%
X173742500Y-101910000D03*
%TO.P,Q4,2,S*%
%TO.N,ANEM_SLEEP*%
X173742500Y-103810000D03*
%TO.P,Q4,3,D*%
%TO.N,Net-(Q4-Pad3)*%
X175617500Y-102860000D03*
%TD*%
D11*
%TO.P,J6,3,Pin_3*%
%TO.N,unconnected-(J6-Pad3)*%
X129055000Y-124580000D03*
%TO.P,J6,2,Pin_2*%
%TO.N,unconnected-(J6-Pad2)*%
X126515000Y-124580000D03*
D10*
%TO.P,J6,1,Pin_1*%
%TO.N,unconnected-(J6-Pad1)*%
X123975000Y-124580000D03*
%TD*%
D13*
%TO.P,R4,1*%
%TO.N,PM_SLEEP*%
X170610000Y-85822500D03*
%TO.P,R4,2*%
%TO.N,3.3V*%
X170610000Y-82897500D03*
%TD*%
D16*
%TO.N,CO2_SLEEP*%
X169370000Y-70470000D03*
X171620000Y-66860000D03*
%TO.N,ANEM_SLEEP*%
X171885000Y-117835000D03*
X167070000Y-118300000D03*
%TO.N,I2C_0 SDA*%
X194620000Y-91340000D03*
X195370000Y-87730000D03*
%TO.N,I2C_1 SCL*%
X172030000Y-78880000D03*
X168960000Y-79290000D03*
X156710000Y-86730000D03*
X152400000Y-94440000D03*
%TO.N,I2C_1 SDA*%
X172040000Y-80710000D03*
X168900000Y-80830000D03*
X160750000Y-86780000D03*
X154540000Y-94520000D03*
%TO.N,PM_SLEEP*%
X170320000Y-88000000D03*
X153400000Y-89160000D03*
X150090000Y-94210000D03*
X167020000Y-87910000D03*
%TO.N,CO2_SLEEP*%
X151130000Y-88710000D03*
X148040000Y-93910000D03*
%TO.N,HOT_WIRE*%
X186300000Y-109210000D03*
X172280000Y-114290000D03*
X181000000Y-114290000D03*
X167470000Y-114300000D03*
%TO.N,I2C_0 SDA*%
X194602500Y-109067500D03*
X194620000Y-104000000D03*
%TO.N,I2C_0 SCL*%
X180610000Y-130310000D03*
X176560000Y-124990000D03*
%TO.N,I2C_0 SDA*%
X178710000Y-129300000D03*
X176900000Y-126760000D03*
%TO.N,5V*%
X166950000Y-90930000D03*
X170580000Y-90950000D03*
%TO.N,ULTRA_ECHO_2*%
X167230000Y-107120000D03*
X172390000Y-107150000D03*
%TO.N,ULTRA_TRIG_2*%
X172410000Y-109300000D03*
X167180000Y-109300000D03*
%TO.N,ULTRA_ECHO_1*%
X172460000Y-111010000D03*
X167110000Y-110990000D03*
%TO.N,ULTRA_TRIG_1*%
X172500000Y-112590000D03*
X167070000Y-112470000D03*
%TO.N,Net-(Q4-Pad3)*%
X179060000Y-95850000D03*
X181620000Y-95900000D03*
%TO.N,SMARTMESH_SLEEP*%
X178320000Y-134830000D03*
X176230000Y-134210000D03*
%TD*%
D17*
%TO.N,CO2_SLEEP*%
X174892500Y-63587500D02*
X171620000Y-66860000D01*
X174892500Y-63387500D02*
X174892500Y-63587500D01*
D18*
%TO.N,3.3V*%
X122250000Y-68340000D02*
X177080000Y-68340000D01*
X177080000Y-68340000D02*
X177200000Y-68220000D01*
X112990000Y-96480000D02*
X112990000Y-77600000D01*
X177200000Y-68220000D02*
X177200000Y-66312500D01*
X177200000Y-68560000D02*
X177200000Y-68220000D01*
X112990000Y-77600000D02*
X122250000Y-68340000D01*
D17*
%TO.N,ANEM_SLEEP*%
X171885000Y-117835000D02*
X170330000Y-116280000D01*
X173727500Y-119677500D02*
X171885000Y-117835000D01*
X156602943Y-118160000D02*
X166930000Y-118160000D01*
X153902943Y-115460000D02*
X156602943Y-118160000D01*
X114190000Y-115460000D02*
X153902943Y-115460000D01*
X166930000Y-118160000D02*
X167070000Y-118300000D01*
X112990000Y-114260000D02*
X114190000Y-115460000D01*
%TO.N,I2C_0 SDA*%
X198502500Y-84597500D02*
X195370000Y-87730000D01*
X198502500Y-70080000D02*
X198502500Y-84597500D01*
X194620000Y-91115000D02*
X194620000Y-91340000D01*
X194620000Y-91340000D02*
X194620000Y-104000000D01*
%TO.N,I2C_0 SCL*%
X195842500Y-89797500D02*
X200190000Y-85450000D01*
X200190000Y-85450000D02*
X200190000Y-68907500D01*
X200190000Y-68907500D02*
X198572500Y-67290000D01*
%TO.N,I2C_1 SCL*%
X176977500Y-73932500D02*
X185760000Y-73932500D01*
X172030000Y-78880000D02*
X176977500Y-73932500D01*
X156710000Y-86730000D02*
X164150000Y-79290000D01*
X164150000Y-79290000D02*
X168960000Y-79290000D01*
X154600000Y-110250000D02*
X152400000Y-108050000D01*
X154890000Y-110540000D02*
X154600000Y-110250000D01*
X158310000Y-110540000D02*
X154890000Y-110540000D01*
X152400000Y-108050000D02*
X152400000Y-94440000D01*
X159510000Y-111740000D02*
X158310000Y-110540000D01*
%TO.N,I2C_1 SDA*%
X186592500Y-75590000D02*
X188250000Y-73932500D01*
X177160000Y-75590000D02*
X186592500Y-75590000D01*
%TO.N,Net-(J17-Pad3)*%
X189427500Y-67340000D02*
X191920000Y-67340000D01*
X185760000Y-71007500D02*
X189427500Y-67340000D01*
%TO.N,Net-(J17-Pad4)*%
X189377500Y-69880000D02*
X188250000Y-71007500D01*
X191920000Y-69880000D02*
X189377500Y-69880000D01*
%TO.N,Net-(J17-Pad3)*%
X195647500Y-67290000D02*
X195597500Y-67340000D01*
X195597500Y-67340000D02*
X191920000Y-67340000D01*
%TO.N,Net-(J17-Pad4)*%
X195377500Y-69880000D02*
X191920000Y-69880000D01*
X195577500Y-70080000D02*
X195377500Y-69880000D01*
%TO.N,I2C_1 SDA*%
X172040000Y-80710000D02*
X177160000Y-75590000D01*
X166700000Y-80830000D02*
X168900000Y-80830000D01*
X160750000Y-86780000D02*
X166700000Y-80830000D01*
X154540000Y-105937057D02*
X154540000Y-94520000D01*
X156602943Y-108000000D02*
X154540000Y-105937057D01*
X158310000Y-108000000D02*
X156602943Y-108000000D01*
X159510000Y-109200000D02*
X158310000Y-108000000D01*
%TO.N,PM_SLEEP*%
X170320000Y-86112500D02*
X170610000Y-85822500D01*
X154650000Y-87910000D02*
X167020000Y-87910000D01*
X170320000Y-88000000D02*
X170320000Y-86112500D01*
X153400000Y-89160000D02*
X154650000Y-87910000D01*
X144740000Y-98850000D02*
X145450000Y-98850000D01*
X127840000Y-98850000D02*
X144740000Y-98850000D01*
X125930000Y-100760000D02*
X127840000Y-98850000D01*
X145450000Y-98850000D02*
X150090000Y-94210000D01*
X112990000Y-109180000D02*
X114190000Y-110380000D01*
X114190000Y-110380000D02*
X116310000Y-110380000D01*
X116310000Y-110380000D02*
X125930000Y-100760000D01*
%TO.N,CO2_SLEEP*%
X174892500Y-63387500D02*
X177200000Y-63387500D01*
X151130000Y-88710000D02*
X169370000Y-70470000D01*
X116860000Y-107870000D02*
X127000000Y-97730000D01*
X144220000Y-97730000D02*
X148040000Y-93910000D01*
X110800000Y-109532943D02*
X112462943Y-107870000D01*
X127000000Y-97730000D02*
X144220000Y-97730000D01*
X110800000Y-111560000D02*
X110800000Y-109532943D01*
X110960000Y-111720000D02*
X110800000Y-111560000D01*
X112462943Y-107870000D02*
X116860000Y-107870000D01*
X112990000Y-111720000D02*
X110960000Y-111720000D01*
%TO.N,HOT_WIRE*%
X190320000Y-101220000D02*
X191835000Y-101220000D01*
X186300000Y-109210000D02*
X187830000Y-107680000D01*
X172280000Y-114290000D02*
X181000000Y-114290000D01*
X187830000Y-107680000D02*
X187830000Y-103710000D01*
X167450000Y-114280000D02*
X167470000Y-114300000D01*
X159510000Y-114280000D02*
X167450000Y-114280000D01*
X187830000Y-103710000D02*
X190320000Y-101220000D01*
%TO.N,I2C_0 SDA*%
X194602500Y-109067500D02*
X191835000Y-106300000D01*
X197990000Y-112455000D02*
X194602500Y-109067500D01*
X191815000Y-88310000D02*
X194620000Y-91115000D01*
%TO.N,I2C_0 SCL*%
X195842500Y-89797500D02*
X191815000Y-85770000D01*
X195842500Y-107767500D02*
X191835000Y-103760000D01*
X198490000Y-110415000D02*
X195842500Y-107767500D01*
X195842500Y-107767500D02*
X195842500Y-89797500D01*
X198490000Y-127407106D02*
X198490000Y-110415000D01*
X180610000Y-130310000D02*
X195587106Y-130310000D01*
X172260000Y-124990000D02*
X176560000Y-124990000D01*
X171670000Y-124400000D02*
X172260000Y-124990000D01*
X169430000Y-122160000D02*
X171670000Y-124400000D01*
X164820000Y-122160000D02*
X169430000Y-122160000D01*
X154580000Y-122240000D02*
X164740000Y-122240000D01*
X150480000Y-118140000D02*
X154580000Y-122240000D01*
X114330000Y-118140000D02*
X150480000Y-118140000D01*
X164740000Y-122240000D02*
X164820000Y-122160000D01*
X112990000Y-116800000D02*
X114330000Y-118140000D01*
X195587106Y-130310000D02*
X198490000Y-127407106D01*
%TO.N,I2C_0 SDA*%
X197990000Y-127200000D02*
X197990000Y-112455000D01*
X195890000Y-129300000D02*
X197990000Y-127200000D01*
X178710000Y-129300000D02*
X195890000Y-129300000D01*
X175930000Y-125790000D02*
X176900000Y-126760000D01*
X119440000Y-125790000D02*
X175930000Y-125790000D01*
X112990000Y-119340000D02*
X119440000Y-125790000D01*
D18*
%TO.N,5V*%
X141520000Y-96480000D02*
X115530000Y-96480000D01*
X147070000Y-90930000D02*
X141520000Y-96480000D01*
X166950000Y-90930000D02*
X147070000Y-90930000D01*
X170600000Y-90970000D02*
X170580000Y-90950000D01*
X181767500Y-90970000D02*
X170600000Y-90970000D01*
D17*
%TO.N,ULTRA_ECHO_2*%
X194700000Y-114270000D02*
X194700000Y-115720000D01*
X191570000Y-111140000D02*
X194700000Y-114270000D01*
X185530000Y-111140000D02*
X191570000Y-111140000D01*
X182860000Y-108470000D02*
X185530000Y-111140000D01*
X173710000Y-108470000D02*
X182860000Y-108470000D01*
X172390000Y-107150000D02*
X173710000Y-108470000D01*
X167230000Y-106760000D02*
X167230000Y-107120000D01*
X159510000Y-99040000D02*
X167230000Y-106760000D01*
%TO.N,ULTRA_TRIG_2*%
X193750000Y-117310000D02*
X194700000Y-118260000D01*
X192750000Y-117310000D02*
X193750000Y-117310000D01*
X192030000Y-116590000D02*
X192750000Y-117310000D01*
X192030000Y-114080000D02*
X192030000Y-116590000D01*
X190020000Y-112070000D02*
X192030000Y-114080000D01*
X185220000Y-112070000D02*
X190020000Y-112070000D01*
X182450000Y-109300000D02*
X185220000Y-112070000D01*
X172410000Y-109300000D02*
X182450000Y-109300000D01*
X167180000Y-109250000D02*
X167180000Y-109300000D01*
X159510000Y-101580000D02*
X167180000Y-109250000D01*
%TO.N,ULTRA_ECHO_1*%
X191010000Y-117110000D02*
X194700000Y-120800000D01*
X187860000Y-117110000D02*
X191010000Y-117110000D01*
X181760000Y-111010000D02*
X187860000Y-117110000D01*
X166380000Y-110990000D02*
X167110000Y-110990000D01*
X172460000Y-111010000D02*
X181760000Y-111010000D01*
X159510000Y-104120000D02*
X166380000Y-110990000D01*
%TO.N,ULTRA_TRIG_1*%
X191010000Y-119650000D02*
X194700000Y-123340000D01*
X188430000Y-119650000D02*
X191010000Y-119650000D01*
X161260000Y-106660000D02*
X167070000Y-112470000D01*
X172500000Y-112590000D02*
X181370000Y-112590000D01*
X181370000Y-112590000D02*
X188430000Y-119650000D01*
X159510000Y-106660000D02*
X161260000Y-106660000D01*
%TO.N,CO2_SLEEP*%
X180730000Y-63387500D02*
X181212500Y-63870000D01*
X177200000Y-63387500D02*
X180730000Y-63387500D01*
D18*
%TO.N,3.3V*%
X170610000Y-76360000D02*
X177805000Y-69165000D01*
X170610000Y-82897500D02*
X170610000Y-76360000D01*
X177805000Y-69165000D02*
X177200000Y-68560000D01*
X178440000Y-69800000D02*
X177805000Y-69165000D01*
X177742500Y-65770000D02*
X177200000Y-66312500D01*
X181212500Y-65770000D02*
X177742500Y-65770000D01*
X180187500Y-69800000D02*
X178440000Y-69800000D01*
%TO.N,Net-(J17-Pad2)*%
X185180000Y-67732500D02*
X185180000Y-64800000D01*
X185180000Y-64800000D02*
X191920000Y-64800000D01*
X183112500Y-69800000D02*
X185180000Y-67732500D01*
X183107500Y-64800000D02*
X185180000Y-64800000D01*
X183087500Y-64820000D02*
X183107500Y-64800000D01*
D17*
%TO.N,Net-(Q3-Pad3)*%
X180950000Y-81537500D02*
X182232500Y-82820000D01*
X179020000Y-81537500D02*
X180950000Y-81537500D01*
%TO.N,PM_SLEEP*%
X170610000Y-85822500D02*
X173270000Y-85822500D01*
X173270000Y-85822500D02*
X173812500Y-85280000D01*
D18*
%TO.N,3.3V*%
X171092500Y-83380000D02*
X170610000Y-82897500D01*
X173812500Y-83380000D02*
X171092500Y-83380000D01*
X168790000Y-84717500D02*
X170610000Y-82897500D01*
X168790000Y-103007500D02*
X168790000Y-84717500D01*
D17*
%TO.N,Net-(Q4-Pad3)*%
X182550000Y-97727500D02*
X182602500Y-97780000D01*
X182550000Y-96830000D02*
X182550000Y-97727500D01*
X181620000Y-95900000D02*
X182550000Y-96830000D01*
X178460000Y-96450000D02*
X179060000Y-95850000D01*
X178460000Y-97287500D02*
X178460000Y-96450000D01*
D18*
%TO.N,5V*%
X180487500Y-95292500D02*
X180487500Y-100212500D01*
X181767500Y-94012500D02*
X180487500Y-95292500D01*
X181767500Y-90970000D02*
X181767500Y-94012500D01*
X178460000Y-100212500D02*
X180487500Y-100212500D01*
X180487500Y-100212500D02*
X180997500Y-100212500D01*
X180817500Y-90020000D02*
X180817500Y-84462500D01*
X181767500Y-90970000D02*
X180817500Y-90020000D01*
X180817500Y-84462500D02*
X181975000Y-84462500D01*
X179020000Y-84462500D02*
X180817500Y-84462500D01*
%TO.N,Net-(J19-Pad3)*%
X187860000Y-87802500D02*
X187860000Y-83230000D01*
X184692500Y-90970000D02*
X187860000Y-87802500D01*
X184647500Y-83230000D02*
X187860000Y-83230000D01*
X187860000Y-83230000D02*
X191815000Y-83230000D01*
X184107500Y-83770000D02*
X184647500Y-83230000D01*
%TO.N,5V*%
X181975000Y-84462500D02*
X182232500Y-84720000D01*
%TO.N,Net-(Q3-Pad3)*%
X175687500Y-83832500D02*
X177982500Y-81537500D01*
X175687500Y-84330000D02*
X175687500Y-83832500D01*
X177982500Y-81537500D02*
X179020000Y-81537500D01*
%TO.N,3.3V*%
X168790000Y-118380000D02*
X173012500Y-122602500D01*
X168790000Y-103007500D02*
X168790000Y-118380000D01*
X173012500Y-122602500D02*
X174720000Y-122602500D01*
X170330000Y-101467500D02*
X168790000Y-103007500D01*
D17*
%TO.N,ANEM_SLEEP*%
X170330000Y-116280000D02*
X170330000Y-104392500D01*
X174720000Y-119677500D02*
X173727500Y-119677500D01*
X170417500Y-104480000D02*
X170330000Y-104392500D01*
X171770000Y-104480000D02*
X170417500Y-104480000D01*
X172440000Y-103810000D02*
X171770000Y-104480000D01*
X173742500Y-103810000D02*
X172440000Y-103810000D01*
D18*
%TO.N,Net-(J18-Pad2)*%
X187640000Y-98870000D02*
X187450000Y-98680000D01*
X187640000Y-100880000D02*
X187640000Y-98870000D01*
X184527500Y-98680000D02*
X187450000Y-98680000D01*
X184532500Y-103987500D02*
X187640000Y-100880000D01*
X184532500Y-106680000D02*
X184532500Y-103987500D01*
X187450000Y-98680000D02*
X191835000Y-98680000D01*
X184477500Y-98730000D02*
X184527500Y-98680000D01*
%TO.N,5V*%
X180810000Y-101570000D02*
X180810000Y-100400000D01*
X180997500Y-100212500D02*
X182070000Y-100212500D01*
X181607500Y-102367500D02*
X180810000Y-101570000D01*
X181607500Y-106680000D02*
X181607500Y-102367500D01*
X180810000Y-100400000D02*
X180997500Y-100212500D01*
X182070000Y-100212500D02*
X182602500Y-99680000D01*
%TO.N,Net-(Q4-Pad3)*%
X175617500Y-100130000D02*
X178460000Y-97287500D01*
X175617500Y-102860000D02*
X175617500Y-100130000D01*
%TO.N,3.3V*%
X173300000Y-101467500D02*
X173742500Y-101910000D01*
X170330000Y-101467500D02*
X173300000Y-101467500D01*
X176882500Y-128170000D02*
X177310000Y-128597500D01*
X160990000Y-128170000D02*
X176882500Y-128170000D01*
X159620000Y-129540000D02*
X160990000Y-128170000D01*
D17*
%TO.N,SMARTMESH_SLEEP*%
X175867500Y-133847500D02*
X176230000Y-134210000D01*
X178320000Y-134830000D02*
X179722500Y-134830000D01*
X174630000Y-133847500D02*
X175867500Y-133847500D01*
X179722500Y-134830000D02*
X179822500Y-134730000D01*
D18*
%TO.N,3.3V*%
X177310000Y-128597500D02*
X177310000Y-136630000D01*
X180177500Y-125730000D02*
X177310000Y-128597500D01*
D17*
%TO.N,ANEM_SLEEP*%
X174720000Y-119677500D02*
X175212500Y-120170000D01*
X175212500Y-120170000D02*
X181042500Y-120170000D01*
D18*
%TO.N,Net-(J16-Pad3)*%
X183500000Y-125730000D02*
X185730000Y-123500000D01*
X185730000Y-123500000D02*
X185730000Y-120850000D01*
X183102500Y-125730000D02*
X183500000Y-125730000D01*
X185730000Y-120850000D02*
X188920000Y-120850000D01*
X183187500Y-120850000D02*
X185730000Y-120850000D01*
X188920000Y-120850000D02*
X188920000Y-123390000D01*
X182917500Y-121120000D02*
X183187500Y-120850000D01*
%TO.N,3.3V*%
X179530000Y-125730000D02*
X177652500Y-123852500D01*
X177652500Y-123852500D02*
X177652500Y-122602500D01*
X180177500Y-125730000D02*
X179530000Y-125730000D01*
X177652500Y-122602500D02*
X180510000Y-122602500D01*
X174720000Y-122602500D02*
X177652500Y-122602500D01*
X180510000Y-122602500D02*
X181042500Y-122070000D01*
X178810000Y-139040000D02*
X177310000Y-137540000D01*
X177310000Y-137540000D02*
X177310000Y-136630000D01*
X179667500Y-139040000D02*
X178810000Y-139040000D01*
X177310000Y-136630000D02*
X174772500Y-136630000D01*
X179822500Y-136630000D02*
X177310000Y-136630000D01*
%TO.N,Net-(J15-Pad2)*%
X184755000Y-137465000D02*
X184755000Y-136495000D01*
X183180000Y-139040000D02*
X184755000Y-137465000D01*
X182592500Y-139040000D02*
X183180000Y-139040000D01*
X184755000Y-136495000D02*
X188880000Y-136495000D01*
X182512500Y-136495000D02*
X184755000Y-136495000D01*
X192725000Y-133915000D02*
X194960000Y-133915000D01*
X190145000Y-136495000D02*
X192725000Y-133915000D01*
X188880000Y-136495000D02*
X190145000Y-136495000D01*
X188880000Y-139035000D02*
X188880000Y-136495000D01*
X181697500Y-135680000D02*
X182512500Y-136495000D01*
D17*
%TO.N,RX*%
X194960000Y-140210000D02*
X194960000Y-138995000D01*
X194370000Y-140800000D02*
X194960000Y-140210000D01*
X193890000Y-140800000D02*
X194370000Y-140800000D01*
X192270000Y-142420000D02*
X193890000Y-140800000D01*
X107975788Y-142420000D02*
X192270000Y-142420000D01*
X104700000Y-139144212D02*
X107975788Y-142420000D01*
X104700000Y-106915788D02*
X104700000Y-139144212D01*
X110055788Y-101560000D02*
X104700000Y-106915788D01*
X112990000Y-101560000D02*
X110055788Y-101560000D01*
%TO.N,TX*%
X193145000Y-136455000D02*
X194960000Y-136455000D01*
X191800000Y-140500000D02*
X191800000Y-137800000D01*
X190380000Y-141920000D02*
X191800000Y-140500000D01*
X105230000Y-107092894D02*
X105230000Y-138967106D01*
X191800000Y-137800000D02*
X193145000Y-136455000D01*
X108222894Y-104100000D02*
X105230000Y-107092894D01*
X112990000Y-104100000D02*
X108222894Y-104100000D01*
X108182894Y-141920000D02*
X190380000Y-141920000D01*
X105230000Y-138967106D02*
X108182894Y-141920000D01*
%TO.N,SMARTMESH_SLEEP*%
X170472500Y-133847500D02*
X174630000Y-133847500D01*
X163630000Y-140690000D02*
X170472500Y-133847500D01*
X107660000Y-140690000D02*
X163630000Y-140690000D01*
X105730000Y-138760000D02*
X107660000Y-140690000D01*
X105730000Y-107300000D02*
X105730000Y-138760000D01*
X106390000Y-106640000D02*
X105730000Y-107300000D01*
X112990000Y-106640000D02*
X106390000Y-106640000D01*
D18*
%TO.N,3.3V*%
X174772500Y-136630000D02*
X174630000Y-136772500D01*
%TO.N,BAT*%
X121130000Y-138600000D02*
X119995000Y-137465000D01*
X148940000Y-138600000D02*
X121130000Y-138600000D01*
X149740000Y-137800000D02*
X148940000Y-138600000D01*
X149740000Y-136090000D02*
X149740000Y-137800000D01*
X119995000Y-137465000D02*
X119995000Y-136090000D01*
%TO.N,3.3V*%
X152280000Y-136090000D02*
X158830000Y-129540000D01*
X158830000Y-129540000D02*
X159620000Y-129540000D01*
%TO.N,5V+*%
X132220000Y-132390000D02*
X117010000Y-132390000D01*
X132695000Y-132865000D02*
X132220000Y-132390000D01*
X117010000Y-132390000D02*
X114160000Y-129540000D01*
X132695000Y-136090000D02*
X132695000Y-132865000D01*
%TD*%
M02*
