%TF.GenerationSoftware,KiCad,Pcbnew,(6.0.9)*%
%TF.CreationDate,2023-05-03T01:49:20-07:00*%
%TF.ProjectId,Air-Quality-PCB,4169722d-5175-4616-9c69-74792d504342,rev?*%
%TF.SameCoordinates,Original*%
%TF.FileFunction,Legend,Top*%
%TF.FilePolarity,Positive*%
%FSLAX46Y46*%
G04 Gerber Fmt 4.6, Leading zero omitted, Abs format (unit mm)*
G04 Created by KiCad (PCBNEW (6.0.9)) date 2023-05-03 01:49:20*
%MOMM*%
%LPD*%
G01*
G04 APERTURE LIST*
%ADD10C,0.150000*%
%ADD11C,0.125000*%
%ADD12C,0.300000*%
%ADD13C,0.120000*%
G04 APERTURE END LIST*
D10*
X146971714Y-132740952D02*
X146971714Y-132207619D01*
X147809809Y-131979047D02*
X147809809Y-132740952D01*
X146209809Y-132740952D01*
X146209809Y-131979047D01*
X147809809Y-131293333D02*
X146209809Y-131293333D01*
X147809809Y-130379047D01*
X146209809Y-130379047D01*
X148785809Y-133312380D02*
X150385809Y-132779047D01*
X148785809Y-132245714D01*
X150385809Y-131712380D02*
X148785809Y-131712380D01*
X150385809Y-130950476D02*
X148785809Y-130950476D01*
X150385809Y-130036190D01*
X148785809Y-130036190D01*
X151361809Y-133921904D02*
X151361809Y-132931428D01*
X151971333Y-133464761D01*
X151971333Y-133236190D01*
X152047523Y-133083809D01*
X152123714Y-133007619D01*
X152276095Y-132931428D01*
X152657047Y-132931428D01*
X152809428Y-133007619D01*
X152885619Y-133083809D01*
X152961809Y-133236190D01*
X152961809Y-133693333D01*
X152885619Y-133845714D01*
X152809428Y-133921904D01*
X152809428Y-132245714D02*
X152885619Y-132169523D01*
X152961809Y-132245714D01*
X152885619Y-132321904D01*
X152809428Y-132245714D01*
X152961809Y-132245714D01*
X151361809Y-131636190D02*
X151361809Y-130645714D01*
X151971333Y-131179047D01*
X151971333Y-130950476D01*
X152047523Y-130798095D01*
X152123714Y-130721904D01*
X152276095Y-130645714D01*
X152657047Y-130645714D01*
X152809428Y-130721904D01*
X152885619Y-130798095D01*
X152961809Y-130950476D01*
X152961809Y-131407619D01*
X152885619Y-131560000D01*
X152809428Y-131636190D01*
X151361809Y-130188571D02*
X152961809Y-129655238D01*
X151361809Y-129121904D01*
X154014000Y-132779047D02*
X153937809Y-132931428D01*
X153937809Y-133160000D01*
X154014000Y-133388571D01*
X154166380Y-133540952D01*
X154318761Y-133617142D01*
X154623523Y-133693333D01*
X154852095Y-133693333D01*
X155156857Y-133617142D01*
X155309238Y-133540952D01*
X155461619Y-133388571D01*
X155537809Y-133160000D01*
X155537809Y-133007619D01*
X155461619Y-132779047D01*
X155385428Y-132702857D01*
X154852095Y-132702857D01*
X154852095Y-133007619D01*
X155537809Y-132017142D02*
X153937809Y-132017142D01*
X155537809Y-131102857D01*
X153937809Y-131102857D01*
X155537809Y-130340952D02*
X153937809Y-130340952D01*
X153937809Y-129960000D01*
X154014000Y-129731428D01*
X154166380Y-129579047D01*
X154318761Y-129502857D01*
X154623523Y-129426666D01*
X154852095Y-129426666D01*
X155156857Y-129502857D01*
X155309238Y-129579047D01*
X155461619Y-129731428D01*
X155537809Y-129960000D01*
X155537809Y-130340952D01*
X113807809Y-134134404D02*
X115103047Y-134134404D01*
X115255428Y-134086785D01*
X115331619Y-134039166D01*
X115407809Y-133943928D01*
X115407809Y-133753452D01*
X115331619Y-133658214D01*
X115255428Y-133610595D01*
X115103047Y-133562976D01*
X113807809Y-133562976D01*
X115331619Y-133134404D02*
X115407809Y-132991547D01*
X115407809Y-132753452D01*
X115331619Y-132658214D01*
X115255428Y-132610595D01*
X115103047Y-132562976D01*
X114950666Y-132562976D01*
X114798285Y-132610595D01*
X114722095Y-132658214D01*
X114645904Y-132753452D01*
X114569714Y-132943928D01*
X114493523Y-133039166D01*
X114417333Y-133086785D01*
X114264952Y-133134404D01*
X114112571Y-133134404D01*
X113960190Y-133086785D01*
X113884000Y-133039166D01*
X113807809Y-132943928D01*
X113807809Y-132705833D01*
X113884000Y-132562976D01*
X114569714Y-131801071D02*
X114645904Y-131658214D01*
X114722095Y-131610595D01*
X114874476Y-131562976D01*
X115103047Y-131562976D01*
X115255428Y-131610595D01*
X115331619Y-131658214D01*
X115407809Y-131753452D01*
X115407809Y-132134404D01*
X113807809Y-132134404D01*
X113807809Y-131801071D01*
X113884000Y-131705833D01*
X113960190Y-131658214D01*
X114112571Y-131610595D01*
X114264952Y-131610595D01*
X114417333Y-131658214D01*
X114493523Y-131705833D01*
X114569714Y-131801071D01*
X114569714Y-132134404D01*
X116460000Y-133610595D02*
X116383809Y-133705833D01*
X116383809Y-133848690D01*
X116460000Y-133991547D01*
X116612380Y-134086785D01*
X116764761Y-134134404D01*
X117069523Y-134182023D01*
X117298095Y-134182023D01*
X117602857Y-134134404D01*
X117755238Y-134086785D01*
X117907619Y-133991547D01*
X117983809Y-133848690D01*
X117983809Y-133753452D01*
X117907619Y-133610595D01*
X117831428Y-133562976D01*
X117298095Y-133562976D01*
X117298095Y-133753452D01*
X117983809Y-133134404D02*
X116383809Y-133134404D01*
X117983809Y-132562976D01*
X116383809Y-132562976D01*
X117983809Y-132086785D02*
X116383809Y-132086785D01*
X116383809Y-131848690D01*
X116460000Y-131705833D01*
X116612380Y-131610595D01*
X116764761Y-131562976D01*
X117069523Y-131515357D01*
X117298095Y-131515357D01*
X117602857Y-131562976D01*
X117755238Y-131610595D01*
X117907619Y-131705833D01*
X117983809Y-131848690D01*
X117983809Y-132086785D01*
X119721714Y-133801071D02*
X119797904Y-133658214D01*
X119874095Y-133610595D01*
X120026476Y-133562976D01*
X120255047Y-133562976D01*
X120407428Y-133610595D01*
X120483619Y-133658214D01*
X120559809Y-133753452D01*
X120559809Y-134134404D01*
X118959809Y-134134404D01*
X118959809Y-133801071D01*
X119036000Y-133705833D01*
X119112190Y-133658214D01*
X119264571Y-133610595D01*
X119416952Y-133610595D01*
X119569333Y-133658214D01*
X119645523Y-133705833D01*
X119721714Y-133801071D01*
X119721714Y-134134404D01*
X120102666Y-133182023D02*
X120102666Y-132705833D01*
X120559809Y-133277261D02*
X118959809Y-132943928D01*
X120559809Y-132610595D01*
X118959809Y-132420119D02*
X118959809Y-131848690D01*
X120559809Y-132134404D02*
X118959809Y-132134404D01*
X122297714Y-134134404D02*
X122297714Y-133801071D01*
X123135809Y-133658214D02*
X123135809Y-134134404D01*
X121535809Y-134134404D01*
X121535809Y-133658214D01*
X123135809Y-133229642D02*
X121535809Y-133229642D01*
X123135809Y-132658214D01*
X121535809Y-132658214D01*
X124188000Y-133610595D02*
X124111809Y-133705833D01*
X124111809Y-133848690D01*
X124188000Y-133991547D01*
X124340380Y-134086785D01*
X124492761Y-134134404D01*
X124797523Y-134182023D01*
X125026095Y-134182023D01*
X125330857Y-134134404D01*
X125483238Y-134086785D01*
X125635619Y-133991547D01*
X125711809Y-133848690D01*
X125711809Y-133753452D01*
X125635619Y-133610595D01*
X125559428Y-133562976D01*
X125026095Y-133562976D01*
X125026095Y-133753452D01*
X125711809Y-133134404D02*
X124111809Y-133134404D01*
X125711809Y-132562976D01*
X124111809Y-132562976D01*
X125711809Y-132086785D02*
X124111809Y-132086785D01*
X124111809Y-131848690D01*
X124188000Y-131705833D01*
X124340380Y-131610595D01*
X124492761Y-131562976D01*
X124797523Y-131515357D01*
X125026095Y-131515357D01*
X125330857Y-131562976D01*
X125483238Y-131610595D01*
X125635619Y-131705833D01*
X125711809Y-131848690D01*
X125711809Y-132086785D01*
X128287809Y-133658214D02*
X128287809Y-134134404D01*
X126687809Y-134134404D01*
X127449714Y-132991547D02*
X127525904Y-132848690D01*
X127602095Y-132801071D01*
X127754476Y-132753452D01*
X127983047Y-132753452D01*
X128135428Y-132801071D01*
X128211619Y-132848690D01*
X128287809Y-132943928D01*
X128287809Y-133324880D01*
X126687809Y-133324880D01*
X126687809Y-132991547D01*
X126764000Y-132896309D01*
X126840190Y-132848690D01*
X126992571Y-132801071D01*
X127144952Y-132801071D01*
X127297333Y-132848690D01*
X127373523Y-132896309D01*
X127449714Y-132991547D01*
X127449714Y-133324880D01*
X129340000Y-133610595D02*
X129263809Y-133705833D01*
X129263809Y-133848690D01*
X129340000Y-133991547D01*
X129492380Y-134086785D01*
X129644761Y-134134404D01*
X129949523Y-134182023D01*
X130178095Y-134182023D01*
X130482857Y-134134404D01*
X130635238Y-134086785D01*
X130787619Y-133991547D01*
X130863809Y-133848690D01*
X130863809Y-133753452D01*
X130787619Y-133610595D01*
X130711428Y-133562976D01*
X130178095Y-133562976D01*
X130178095Y-133753452D01*
X130863809Y-133134404D02*
X129263809Y-133134404D01*
X130863809Y-132562976D01*
X129263809Y-132562976D01*
X130863809Y-132086785D02*
X129263809Y-132086785D01*
X129263809Y-131848690D01*
X129340000Y-131705833D01*
X129492380Y-131610595D01*
X129644761Y-131562976D01*
X129949523Y-131515357D01*
X130178095Y-131515357D01*
X130482857Y-131562976D01*
X130635238Y-131610595D01*
X130787619Y-131705833D01*
X130863809Y-131848690D01*
X130863809Y-132086785D01*
X131839809Y-133658214D02*
X131839809Y-134134404D01*
X132601714Y-134182023D01*
X132525523Y-134134404D01*
X132449333Y-134039166D01*
X132449333Y-133801071D01*
X132525523Y-133705833D01*
X132601714Y-133658214D01*
X132754095Y-133610595D01*
X133135047Y-133610595D01*
X133287428Y-133658214D01*
X133363619Y-133705833D01*
X133439809Y-133801071D01*
X133439809Y-134039166D01*
X133363619Y-134134404D01*
X133287428Y-134182023D01*
X131839809Y-133324880D02*
X133439809Y-132991547D01*
X131839809Y-132658214D01*
X147325809Y-120293809D02*
X145725809Y-120293809D01*
X145725809Y-119684285D01*
X145802000Y-119531904D01*
X145878190Y-119455714D01*
X146030571Y-119379523D01*
X146259142Y-119379523D01*
X146411523Y-119455714D01*
X146487714Y-119531904D01*
X146563904Y-119684285D01*
X146563904Y-120293809D01*
X147325809Y-117855714D02*
X147325809Y-118770000D01*
X147325809Y-118312857D02*
X145725809Y-118312857D01*
X145954380Y-118465238D01*
X146106761Y-118617619D01*
X146182952Y-118770000D01*
X147173428Y-117170000D02*
X147249619Y-117093809D01*
X147325809Y-117170000D01*
X147249619Y-117246190D01*
X147173428Y-117170000D01*
X147325809Y-117170000D01*
X145725809Y-116103333D02*
X145725809Y-115950952D01*
X145802000Y-115798571D01*
X145878190Y-115722380D01*
X146030571Y-115646190D01*
X146335333Y-115570000D01*
X146716285Y-115570000D01*
X147021047Y-115646190D01*
X147173428Y-115722380D01*
X147249619Y-115798571D01*
X147325809Y-115950952D01*
X147325809Y-116103333D01*
X147249619Y-116255714D01*
X147173428Y-116331904D01*
X147021047Y-116408095D01*
X146716285Y-116484285D01*
X146335333Y-116484285D01*
X146030571Y-116408095D01*
X145878190Y-116331904D01*
X145802000Y-116255714D01*
X145725809Y-116103333D01*
X149901809Y-120293809D02*
X148301809Y-120293809D01*
X148301809Y-119684285D01*
X148378000Y-119531904D01*
X148454190Y-119455714D01*
X148606571Y-119379523D01*
X148835142Y-119379523D01*
X148987523Y-119455714D01*
X149063714Y-119531904D01*
X149139904Y-119684285D01*
X149139904Y-120293809D01*
X148301809Y-118008095D02*
X148301809Y-118312857D01*
X148378000Y-118465238D01*
X148454190Y-118541428D01*
X148682761Y-118693809D01*
X148987523Y-118770000D01*
X149597047Y-118770000D01*
X149749428Y-118693809D01*
X149825619Y-118617619D01*
X149901809Y-118465238D01*
X149901809Y-118160476D01*
X149825619Y-118008095D01*
X149749428Y-117931904D01*
X149597047Y-117855714D01*
X149216095Y-117855714D01*
X149063714Y-117931904D01*
X148987523Y-118008095D01*
X148911333Y-118160476D01*
X148911333Y-118465238D01*
X148987523Y-118617619D01*
X149063714Y-118693809D01*
X149216095Y-118770000D01*
X149749428Y-117170000D02*
X149825619Y-117093809D01*
X149901809Y-117170000D01*
X149825619Y-117246190D01*
X149749428Y-117170000D01*
X149901809Y-117170000D01*
X148301809Y-115722380D02*
X148301809Y-116027142D01*
X148378000Y-116179523D01*
X148454190Y-116255714D01*
X148682761Y-116408095D01*
X148987523Y-116484285D01*
X149597047Y-116484285D01*
X149749428Y-116408095D01*
X149825619Y-116331904D01*
X149901809Y-116179523D01*
X149901809Y-115874761D01*
X149825619Y-115722380D01*
X149749428Y-115646190D01*
X149597047Y-115570000D01*
X149216095Y-115570000D01*
X149063714Y-115646190D01*
X148987523Y-115722380D01*
X148911333Y-115874761D01*
X148911333Y-116179523D01*
X148987523Y-116331904D01*
X149063714Y-116408095D01*
X149216095Y-116484285D01*
X124627809Y-120403809D02*
X123027809Y-120403809D01*
X123027809Y-119794285D01*
X123104000Y-119641904D01*
X123180190Y-119565714D01*
X123332571Y-119489523D01*
X123561142Y-119489523D01*
X123713523Y-119565714D01*
X123789714Y-119641904D01*
X123865904Y-119794285D01*
X123865904Y-120403809D01*
X123027809Y-118956190D02*
X123027809Y-117965714D01*
X123637333Y-118499047D01*
X123637333Y-118270476D01*
X123713523Y-118118095D01*
X123789714Y-118041904D01*
X123942095Y-117965714D01*
X124323047Y-117965714D01*
X124475428Y-118041904D01*
X124551619Y-118118095D01*
X124627809Y-118270476D01*
X124627809Y-118727619D01*
X124551619Y-118880000D01*
X124475428Y-118956190D01*
X124475428Y-117280000D02*
X124551619Y-117203809D01*
X124627809Y-117280000D01*
X124551619Y-117356190D01*
X124475428Y-117280000D01*
X124627809Y-117280000D01*
X123180190Y-116594285D02*
X123104000Y-116518095D01*
X123027809Y-116365714D01*
X123027809Y-115984761D01*
X123104000Y-115832380D01*
X123180190Y-115756190D01*
X123332571Y-115680000D01*
X123484952Y-115680000D01*
X123713523Y-115756190D01*
X124627809Y-116670476D01*
X124627809Y-115680000D01*
X127203809Y-120403809D02*
X125603809Y-120403809D01*
X125603809Y-119794285D01*
X125680000Y-119641904D01*
X125756190Y-119565714D01*
X125908571Y-119489523D01*
X126137142Y-119489523D01*
X126289523Y-119565714D01*
X126365714Y-119641904D01*
X126441904Y-119794285D01*
X126441904Y-120403809D01*
X125603809Y-118956190D02*
X125603809Y-117965714D01*
X126213333Y-118499047D01*
X126213333Y-118270476D01*
X126289523Y-118118095D01*
X126365714Y-118041904D01*
X126518095Y-117965714D01*
X126899047Y-117965714D01*
X127051428Y-118041904D01*
X127127619Y-118118095D01*
X127203809Y-118270476D01*
X127203809Y-118727619D01*
X127127619Y-118880000D01*
X127051428Y-118956190D01*
X127051428Y-117280000D02*
X127127619Y-117203809D01*
X127203809Y-117280000D01*
X127127619Y-117356190D01*
X127051428Y-117280000D01*
X127203809Y-117280000D01*
X127203809Y-115680000D02*
X127203809Y-116594285D01*
X127203809Y-116137142D02*
X125603809Y-116137142D01*
X125832380Y-116289523D01*
X125984761Y-116441904D01*
X126060952Y-116594285D01*
X129779809Y-120403809D02*
X128179809Y-120403809D01*
X128179809Y-119794285D01*
X128256000Y-119641904D01*
X128332190Y-119565714D01*
X128484571Y-119489523D01*
X128713142Y-119489523D01*
X128865523Y-119565714D01*
X128941714Y-119641904D01*
X129017904Y-119794285D01*
X129017904Y-120403809D01*
X128179809Y-118956190D02*
X128179809Y-117965714D01*
X128789333Y-118499047D01*
X128789333Y-118270476D01*
X128865523Y-118118095D01*
X128941714Y-118041904D01*
X129094095Y-117965714D01*
X129475047Y-117965714D01*
X129627428Y-118041904D01*
X129703619Y-118118095D01*
X129779809Y-118270476D01*
X129779809Y-118727619D01*
X129703619Y-118880000D01*
X129627428Y-118956190D01*
X129627428Y-117280000D02*
X129703619Y-117203809D01*
X129779809Y-117280000D01*
X129703619Y-117356190D01*
X129627428Y-117280000D01*
X129779809Y-117280000D01*
X128179809Y-116670476D02*
X128179809Y-115680000D01*
X128789333Y-116213333D01*
X128789333Y-115984761D01*
X128865523Y-115832380D01*
X128941714Y-115756190D01*
X129094095Y-115680000D01*
X129475047Y-115680000D01*
X129627428Y-115756190D01*
X129703619Y-115832380D01*
X129779809Y-115984761D01*
X129779809Y-116441904D01*
X129703619Y-116594285D01*
X129627428Y-116670476D01*
X116800952Y-123834000D02*
X116648571Y-123757809D01*
X116420000Y-123757809D01*
X116191428Y-123834000D01*
X116039047Y-123986380D01*
X115962857Y-124138761D01*
X115886666Y-124443523D01*
X115886666Y-124672095D01*
X115962857Y-124976857D01*
X116039047Y-125129238D01*
X116191428Y-125281619D01*
X116420000Y-125357809D01*
X116572380Y-125357809D01*
X116800952Y-125281619D01*
X116877142Y-125205428D01*
X116877142Y-124672095D01*
X116572380Y-124672095D01*
X117562857Y-125357809D02*
X117562857Y-123757809D01*
X118477142Y-125357809D01*
X118477142Y-123757809D01*
X119239047Y-125357809D02*
X119239047Y-123757809D01*
X119620000Y-123757809D01*
X119848571Y-123834000D01*
X120000952Y-123986380D01*
X120077142Y-124138761D01*
X120153333Y-124443523D01*
X120153333Y-124672095D01*
X120077142Y-124976857D01*
X120000952Y-125129238D01*
X119848571Y-125281619D01*
X119620000Y-125357809D01*
X119239047Y-125357809D01*
X116800952Y-126410000D02*
X116648571Y-126333809D01*
X116420000Y-126333809D01*
X116191428Y-126410000D01*
X116039047Y-126562380D01*
X115962857Y-126714761D01*
X115886666Y-127019523D01*
X115886666Y-127248095D01*
X115962857Y-127552857D01*
X116039047Y-127705238D01*
X116191428Y-127857619D01*
X116420000Y-127933809D01*
X116572380Y-127933809D01*
X116800952Y-127857619D01*
X116877142Y-127781428D01*
X116877142Y-127248095D01*
X116572380Y-127248095D01*
X117562857Y-127933809D02*
X117562857Y-126333809D01*
X118477142Y-127933809D01*
X118477142Y-126333809D01*
X119239047Y-127933809D02*
X119239047Y-126333809D01*
X119620000Y-126333809D01*
X119848571Y-126410000D01*
X120000952Y-126562380D01*
X120077142Y-126714761D01*
X120153333Y-127019523D01*
X120153333Y-127248095D01*
X120077142Y-127552857D01*
X120000952Y-127705238D01*
X119848571Y-127857619D01*
X119620000Y-127933809D01*
X119239047Y-127933809D01*
X117715238Y-128909809D02*
X116953333Y-128909809D01*
X116877142Y-129671714D01*
X116953333Y-129595523D01*
X117105714Y-129519333D01*
X117486666Y-129519333D01*
X117639047Y-129595523D01*
X117715238Y-129671714D01*
X117791428Y-129824095D01*
X117791428Y-130205047D01*
X117715238Y-130357428D01*
X117639047Y-130433619D01*
X117486666Y-130509809D01*
X117105714Y-130509809D01*
X116953333Y-130433619D01*
X116877142Y-130357428D01*
X118248571Y-128909809D02*
X118781904Y-130509809D01*
X119315238Y-128909809D01*
X117822000Y-92084642D02*
X117745809Y-92237023D01*
X117745809Y-92465595D01*
X117822000Y-92694166D01*
X117974380Y-92846547D01*
X118126761Y-92922738D01*
X118431523Y-92998928D01*
X118660095Y-92998928D01*
X118964857Y-92922738D01*
X119117238Y-92846547D01*
X119269619Y-92694166D01*
X119345809Y-92465595D01*
X119345809Y-92313214D01*
X119269619Y-92084642D01*
X119193428Y-92008452D01*
X118660095Y-92008452D01*
X118660095Y-92313214D01*
X119345809Y-91322738D02*
X117745809Y-91322738D01*
X119345809Y-90408452D01*
X117745809Y-90408452D01*
X119345809Y-89646547D02*
X117745809Y-89646547D01*
X117745809Y-89265595D01*
X117822000Y-89037023D01*
X117974380Y-88884642D01*
X118126761Y-88808452D01*
X118431523Y-88732261D01*
X118660095Y-88732261D01*
X118964857Y-88808452D01*
X119117238Y-88884642D01*
X119269619Y-89037023D01*
X119345809Y-89265595D01*
X119345809Y-89646547D01*
X120321809Y-90179880D02*
X120321809Y-90941785D01*
X121083714Y-91017976D01*
X121007523Y-90941785D01*
X120931333Y-90789404D01*
X120931333Y-90408452D01*
X121007523Y-90256071D01*
X121083714Y-90179880D01*
X121236095Y-90103690D01*
X121617047Y-90103690D01*
X121769428Y-90179880D01*
X121845619Y-90256071D01*
X121921809Y-90408452D01*
X121921809Y-90789404D01*
X121845619Y-90941785D01*
X121769428Y-91017976D01*
X120321809Y-89646547D02*
X121921809Y-89113214D01*
X120321809Y-88579880D01*
X122897809Y-93379880D02*
X122897809Y-92389404D01*
X123507333Y-92922738D01*
X123507333Y-92694166D01*
X123583523Y-92541785D01*
X123659714Y-92465595D01*
X123812095Y-92389404D01*
X124193047Y-92389404D01*
X124345428Y-92465595D01*
X124421619Y-92541785D01*
X124497809Y-92694166D01*
X124497809Y-93151309D01*
X124421619Y-93303690D01*
X124345428Y-93379880D01*
X124345428Y-91703690D02*
X124421619Y-91627500D01*
X124497809Y-91703690D01*
X124421619Y-91779880D01*
X124345428Y-91703690D01*
X124497809Y-91703690D01*
X122897809Y-91094166D02*
X122897809Y-90103690D01*
X123507333Y-90637023D01*
X123507333Y-90408452D01*
X123583523Y-90256071D01*
X123659714Y-90179880D01*
X123812095Y-90103690D01*
X124193047Y-90103690D01*
X124345428Y-90179880D01*
X124421619Y-90256071D01*
X124497809Y-90408452D01*
X124497809Y-90865595D01*
X124421619Y-91017976D01*
X124345428Y-91094166D01*
X122897809Y-89646547D02*
X124497809Y-89113214D01*
X122897809Y-88579880D01*
X127073809Y-91856071D02*
X126311904Y-92389404D01*
X127073809Y-92770357D02*
X125473809Y-92770357D01*
X125473809Y-92160833D01*
X125550000Y-92008452D01*
X125626190Y-91932261D01*
X125778571Y-91856071D01*
X126007142Y-91856071D01*
X126159523Y-91932261D01*
X126235714Y-92008452D01*
X126311904Y-92160833D01*
X126311904Y-92770357D01*
X125473809Y-91322738D02*
X127073809Y-90256071D01*
X125473809Y-90256071D02*
X127073809Y-91322738D01*
X127073809Y-89646547D02*
X125473809Y-89646547D01*
X125473809Y-89265595D01*
X125550000Y-89037023D01*
X125702380Y-88884642D01*
X125854761Y-88808452D01*
X126159523Y-88732261D01*
X126388095Y-88732261D01*
X126692857Y-88808452D01*
X126845238Y-88884642D01*
X126997619Y-89037023D01*
X127073809Y-89265595D01*
X127073809Y-89646547D01*
X128049809Y-92617976D02*
X128049809Y-91703690D01*
X129649809Y-92160833D02*
X128049809Y-92160833D01*
X128049809Y-91322738D02*
X129649809Y-90256071D01*
X128049809Y-90256071D02*
X129649809Y-91322738D01*
X129649809Y-89646547D02*
X128049809Y-89646547D01*
X128049809Y-89265595D01*
X128126000Y-89037023D01*
X128278380Y-88884642D01*
X128430761Y-88808452D01*
X128735523Y-88732261D01*
X128964095Y-88732261D01*
X129268857Y-88808452D01*
X129421238Y-88884642D01*
X129573619Y-89037023D01*
X129649809Y-89265595D01*
X129649809Y-89646547D01*
X132149619Y-98332261D02*
X132225809Y-98103690D01*
X132225809Y-97722738D01*
X132149619Y-97570357D01*
X132073428Y-97494166D01*
X131921047Y-97417976D01*
X131768666Y-97417976D01*
X131616285Y-97494166D01*
X131540095Y-97570357D01*
X131463904Y-97722738D01*
X131387714Y-98027500D01*
X131311523Y-98179880D01*
X131235333Y-98256071D01*
X131082952Y-98332261D01*
X130930571Y-98332261D01*
X130778190Y-98256071D01*
X130702000Y-98179880D01*
X130625809Y-98027500D01*
X130625809Y-97646547D01*
X130702000Y-97417976D01*
X131387714Y-96198928D02*
X131463904Y-95970357D01*
X131540095Y-95894166D01*
X131692476Y-95817976D01*
X131921047Y-95817976D01*
X132073428Y-95894166D01*
X132149619Y-95970357D01*
X132225809Y-96122738D01*
X132225809Y-96732261D01*
X130625809Y-96732261D01*
X130625809Y-96198928D01*
X130702000Y-96046547D01*
X130778190Y-95970357D01*
X130930571Y-95894166D01*
X131082952Y-95894166D01*
X131235333Y-95970357D01*
X131311523Y-96046547D01*
X131387714Y-96198928D01*
X131387714Y-96732261D01*
X130625809Y-95284642D02*
X132225809Y-94903690D01*
X131082952Y-94598928D01*
X132225809Y-94294166D01*
X130625809Y-93913214D01*
X130625809Y-93532261D02*
X130625809Y-92617976D01*
X132225809Y-93075119D02*
X130625809Y-93075119D01*
X132225809Y-92084642D02*
X130625809Y-92084642D01*
X130625809Y-91703690D01*
X130702000Y-91475119D01*
X130854380Y-91322738D01*
X131006761Y-91246547D01*
X131311523Y-91170357D01*
X131540095Y-91170357D01*
X131844857Y-91246547D01*
X131997238Y-91322738D01*
X132149619Y-91475119D01*
X132225809Y-91703690D01*
X132225809Y-92084642D01*
X132225809Y-90484642D02*
X130625809Y-90484642D01*
X130625809Y-89417976D02*
X130625809Y-89113214D01*
X130702000Y-88960833D01*
X130854380Y-88808452D01*
X131159142Y-88732261D01*
X131692476Y-88732261D01*
X131997238Y-88808452D01*
X132149619Y-88960833D01*
X132225809Y-89113214D01*
X132225809Y-89417976D01*
X132149619Y-89570357D01*
X131997238Y-89722738D01*
X131692476Y-89798928D01*
X131159142Y-89798928D01*
X130854380Y-89722738D01*
X130702000Y-89570357D01*
X130625809Y-89417976D01*
X134725619Y-97494166D02*
X134801809Y-97265595D01*
X134801809Y-96884642D01*
X134725619Y-96732261D01*
X134649428Y-96656071D01*
X134497047Y-96579880D01*
X134344666Y-96579880D01*
X134192285Y-96656071D01*
X134116095Y-96732261D01*
X134039904Y-96884642D01*
X133963714Y-97189404D01*
X133887523Y-97341785D01*
X133811333Y-97417976D01*
X133658952Y-97494166D01*
X133506571Y-97494166D01*
X133354190Y-97417976D01*
X133278000Y-97341785D01*
X133201809Y-97189404D01*
X133201809Y-96808452D01*
X133278000Y-96579880D01*
X133963714Y-95360833D02*
X134039904Y-95132261D01*
X134116095Y-95056071D01*
X134268476Y-94979880D01*
X134497047Y-94979880D01*
X134649428Y-95056071D01*
X134725619Y-95132261D01*
X134801809Y-95284642D01*
X134801809Y-95894166D01*
X133201809Y-95894166D01*
X133201809Y-95360833D01*
X133278000Y-95208452D01*
X133354190Y-95132261D01*
X133506571Y-95056071D01*
X133658952Y-95056071D01*
X133811333Y-95132261D01*
X133887523Y-95208452D01*
X133963714Y-95360833D01*
X133963714Y-95894166D01*
X133201809Y-94446547D02*
X134801809Y-94065595D01*
X133658952Y-93760833D01*
X134801809Y-93456071D01*
X133201809Y-93075119D01*
X133201809Y-92694166D02*
X133201809Y-91779880D01*
X134801809Y-92237023D02*
X133201809Y-92237023D01*
X134649428Y-90332261D02*
X134725619Y-90408452D01*
X134801809Y-90637023D01*
X134801809Y-90789404D01*
X134725619Y-91017976D01*
X134573238Y-91170357D01*
X134420857Y-91246547D01*
X134116095Y-91322738D01*
X133887523Y-91322738D01*
X133582761Y-91246547D01*
X133430380Y-91170357D01*
X133278000Y-91017976D01*
X133201809Y-90789404D01*
X133201809Y-90637023D01*
X133278000Y-90408452D01*
X133354190Y-90332261D01*
X134801809Y-89646547D02*
X133201809Y-89646547D01*
X134801809Y-88732261D02*
X133887523Y-89417976D01*
X133201809Y-88732261D02*
X134116095Y-89646547D01*
X105818095Y-95591809D02*
X106808571Y-95591809D01*
X106275238Y-96201333D01*
X106503809Y-96201333D01*
X106656190Y-96277523D01*
X106732380Y-96353714D01*
X106808571Y-96506095D01*
X106808571Y-96887047D01*
X106732380Y-97039428D01*
X106656190Y-97115619D01*
X106503809Y-97191809D01*
X106046666Y-97191809D01*
X105894285Y-97115619D01*
X105818095Y-97039428D01*
X107494285Y-97039428D02*
X107570476Y-97115619D01*
X107494285Y-97191809D01*
X107418095Y-97115619D01*
X107494285Y-97039428D01*
X107494285Y-97191809D01*
X108103809Y-95591809D02*
X109094285Y-95591809D01*
X108560952Y-96201333D01*
X108789523Y-96201333D01*
X108941904Y-96277523D01*
X109018095Y-96353714D01*
X109094285Y-96506095D01*
X109094285Y-96887047D01*
X109018095Y-97039428D01*
X108941904Y-97115619D01*
X108789523Y-97191809D01*
X108332380Y-97191809D01*
X108180000Y-97115619D01*
X108103809Y-97039428D01*
X109551428Y-95591809D02*
X110084761Y-97191809D01*
X110618095Y-95591809D01*
X105856190Y-99767809D02*
X105856190Y-98167809D01*
X106465714Y-98167809D01*
X106618095Y-98244000D01*
X106694285Y-98320190D01*
X106770476Y-98472571D01*
X106770476Y-98701142D01*
X106694285Y-98853523D01*
X106618095Y-98929714D01*
X106465714Y-99005904D01*
X105856190Y-99005904D01*
X108294285Y-99767809D02*
X107380000Y-99767809D01*
X107837142Y-99767809D02*
X107837142Y-98167809D01*
X107684761Y-98396380D01*
X107532380Y-98548761D01*
X107380000Y-98624952D01*
X108980000Y-99615428D02*
X109056190Y-99691619D01*
X108980000Y-99767809D01*
X108903809Y-99691619D01*
X108980000Y-99615428D01*
X108980000Y-99767809D01*
X110503809Y-98167809D02*
X109741904Y-98167809D01*
X109665714Y-98929714D01*
X109741904Y-98853523D01*
X109894285Y-98777333D01*
X110275238Y-98777333D01*
X110427619Y-98853523D01*
X110503809Y-98929714D01*
X110580000Y-99082095D01*
X110580000Y-99463047D01*
X110503809Y-99615428D01*
X110427619Y-99691619D01*
X110275238Y-99767809D01*
X109894285Y-99767809D01*
X109741904Y-99691619D01*
X109665714Y-99615428D01*
X105856190Y-102343809D02*
X105856190Y-100743809D01*
X106465714Y-100743809D01*
X106618095Y-100820000D01*
X106694285Y-100896190D01*
X106770476Y-101048571D01*
X106770476Y-101277142D01*
X106694285Y-101429523D01*
X106618095Y-101505714D01*
X106465714Y-101581904D01*
X105856190Y-101581904D01*
X108294285Y-102343809D02*
X107380000Y-102343809D01*
X107837142Y-102343809D02*
X107837142Y-100743809D01*
X107684761Y-100972380D01*
X107532380Y-101124761D01*
X107380000Y-101200952D01*
X108980000Y-102191428D02*
X109056190Y-102267619D01*
X108980000Y-102343809D01*
X108903809Y-102267619D01*
X108980000Y-102191428D01*
X108980000Y-102343809D01*
X110427619Y-100743809D02*
X110122857Y-100743809D01*
X109970476Y-100820000D01*
X109894285Y-100896190D01*
X109741904Y-101124761D01*
X109665714Y-101429523D01*
X109665714Y-102039047D01*
X109741904Y-102191428D01*
X109818095Y-102267619D01*
X109970476Y-102343809D01*
X110275238Y-102343809D01*
X110427619Y-102267619D01*
X110503809Y-102191428D01*
X110580000Y-102039047D01*
X110580000Y-101658095D01*
X110503809Y-101505714D01*
X110427619Y-101429523D01*
X110275238Y-101353333D01*
X109970476Y-101353333D01*
X109818095Y-101429523D01*
X109741904Y-101505714D01*
X109665714Y-101658095D01*
X105856190Y-104919809D02*
X105856190Y-103319809D01*
X106465714Y-103319809D01*
X106618095Y-103396000D01*
X106694285Y-103472190D01*
X106770476Y-103624571D01*
X106770476Y-103853142D01*
X106694285Y-104005523D01*
X106618095Y-104081714D01*
X106465714Y-104157904D01*
X105856190Y-104157904D01*
X108294285Y-104919809D02*
X107380000Y-104919809D01*
X107837142Y-104919809D02*
X107837142Y-103319809D01*
X107684761Y-103548380D01*
X107532380Y-103700761D01*
X107380000Y-103776952D01*
X108980000Y-104767428D02*
X109056190Y-104843619D01*
X108980000Y-104919809D01*
X108903809Y-104843619D01*
X108980000Y-104767428D01*
X108980000Y-104919809D01*
X109589523Y-103319809D02*
X110656190Y-103319809D01*
X109970476Y-104919809D01*
X105856190Y-107495809D02*
X105856190Y-105895809D01*
X106465714Y-105895809D01*
X106618095Y-105972000D01*
X106694285Y-106048190D01*
X106770476Y-106200571D01*
X106770476Y-106429142D01*
X106694285Y-106581523D01*
X106618095Y-106657714D01*
X106465714Y-106733904D01*
X105856190Y-106733904D01*
X107303809Y-105895809D02*
X108294285Y-105895809D01*
X107760952Y-106505333D01*
X107989523Y-106505333D01*
X108141904Y-106581523D01*
X108218095Y-106657714D01*
X108294285Y-106810095D01*
X108294285Y-107191047D01*
X108218095Y-107343428D01*
X108141904Y-107419619D01*
X107989523Y-107495809D01*
X107532380Y-107495809D01*
X107380000Y-107419619D01*
X107303809Y-107343428D01*
X108980000Y-107343428D02*
X109056190Y-107419619D01*
X108980000Y-107495809D01*
X108903809Y-107419619D01*
X108980000Y-107343428D01*
X108980000Y-107495809D01*
X110427619Y-105895809D02*
X110122857Y-105895809D01*
X109970476Y-105972000D01*
X109894285Y-106048190D01*
X109741904Y-106276761D01*
X109665714Y-106581523D01*
X109665714Y-107191047D01*
X109741904Y-107343428D01*
X109818095Y-107419619D01*
X109970476Y-107495809D01*
X110275238Y-107495809D01*
X110427619Y-107419619D01*
X110503809Y-107343428D01*
X110580000Y-107191047D01*
X110580000Y-106810095D01*
X110503809Y-106657714D01*
X110427619Y-106581523D01*
X110275238Y-106505333D01*
X109970476Y-106505333D01*
X109818095Y-106581523D01*
X109741904Y-106657714D01*
X109665714Y-106810095D01*
X105856190Y-110071809D02*
X105856190Y-108471809D01*
X106465714Y-108471809D01*
X106618095Y-108548000D01*
X106694285Y-108624190D01*
X106770476Y-108776571D01*
X106770476Y-109005142D01*
X106694285Y-109157523D01*
X106618095Y-109233714D01*
X106465714Y-109309904D01*
X105856190Y-109309904D01*
X108218095Y-108471809D02*
X107456190Y-108471809D01*
X107380000Y-109233714D01*
X107456190Y-109157523D01*
X107608571Y-109081333D01*
X107989523Y-109081333D01*
X108141904Y-109157523D01*
X108218095Y-109233714D01*
X108294285Y-109386095D01*
X108294285Y-109767047D01*
X108218095Y-109919428D01*
X108141904Y-109995619D01*
X107989523Y-110071809D01*
X107608571Y-110071809D01*
X107456190Y-109995619D01*
X107380000Y-109919428D01*
X108980000Y-109919428D02*
X109056190Y-109995619D01*
X108980000Y-110071809D01*
X108903809Y-109995619D01*
X108980000Y-109919428D01*
X108980000Y-110071809D01*
X109665714Y-108624190D02*
X109741904Y-108548000D01*
X109894285Y-108471809D01*
X110275238Y-108471809D01*
X110427619Y-108548000D01*
X110503809Y-108624190D01*
X110580000Y-108776571D01*
X110580000Y-108928952D01*
X110503809Y-109157523D01*
X109589523Y-110071809D01*
X110580000Y-110071809D01*
X105856190Y-112647809D02*
X105856190Y-111047809D01*
X106465714Y-111047809D01*
X106618095Y-111124000D01*
X106694285Y-111200190D01*
X106770476Y-111352571D01*
X106770476Y-111581142D01*
X106694285Y-111733523D01*
X106618095Y-111809714D01*
X106465714Y-111885904D01*
X105856190Y-111885904D01*
X108141904Y-111581142D02*
X108141904Y-112647809D01*
X107760952Y-110971619D02*
X107380000Y-112114476D01*
X108370476Y-112114476D01*
X108980000Y-112495428D02*
X109056190Y-112571619D01*
X108980000Y-112647809D01*
X108903809Y-112571619D01*
X108980000Y-112495428D01*
X108980000Y-112647809D01*
X110503809Y-111047809D02*
X109741904Y-111047809D01*
X109665714Y-111809714D01*
X109741904Y-111733523D01*
X109894285Y-111657333D01*
X110275238Y-111657333D01*
X110427619Y-111733523D01*
X110503809Y-111809714D01*
X110580000Y-111962095D01*
X110580000Y-112343047D01*
X110503809Y-112495428D01*
X110427619Y-112571619D01*
X110275238Y-112647809D01*
X109894285Y-112647809D01*
X109741904Y-112571619D01*
X109665714Y-112495428D01*
X105856190Y-115223809D02*
X105856190Y-113623809D01*
X106465714Y-113623809D01*
X106618095Y-113700000D01*
X106694285Y-113776190D01*
X106770476Y-113928571D01*
X106770476Y-114157142D01*
X106694285Y-114309523D01*
X106618095Y-114385714D01*
X106465714Y-114461904D01*
X105856190Y-114461904D01*
X107303809Y-113623809D02*
X108294285Y-113623809D01*
X107760952Y-114233333D01*
X107989523Y-114233333D01*
X108141904Y-114309523D01*
X108218095Y-114385714D01*
X108294285Y-114538095D01*
X108294285Y-114919047D01*
X108218095Y-115071428D01*
X108141904Y-115147619D01*
X107989523Y-115223809D01*
X107532380Y-115223809D01*
X107380000Y-115147619D01*
X107303809Y-115071428D01*
X108980000Y-115071428D02*
X109056190Y-115147619D01*
X108980000Y-115223809D01*
X108903809Y-115147619D01*
X108980000Y-115071428D01*
X108980000Y-115223809D01*
X110427619Y-114157142D02*
X110427619Y-115223809D01*
X110046666Y-113547619D02*
X109665714Y-114690476D01*
X110656190Y-114690476D01*
X105856190Y-117799809D02*
X105856190Y-116199809D01*
X106465714Y-116199809D01*
X106618095Y-116276000D01*
X106694285Y-116352190D01*
X106770476Y-116504571D01*
X106770476Y-116733142D01*
X106694285Y-116885523D01*
X106618095Y-116961714D01*
X106465714Y-117037904D01*
X105856190Y-117037904D01*
X108294285Y-117799809D02*
X107380000Y-117799809D01*
X107837142Y-117799809D02*
X107837142Y-116199809D01*
X107684761Y-116428380D01*
X107532380Y-116580761D01*
X107380000Y-116656952D01*
X108980000Y-117647428D02*
X109056190Y-117723619D01*
X108980000Y-117799809D01*
X108903809Y-117723619D01*
X108980000Y-117647428D01*
X108980000Y-117799809D01*
X109589523Y-116199809D02*
X110580000Y-116199809D01*
X110046666Y-116809333D01*
X110275238Y-116809333D01*
X110427619Y-116885523D01*
X110503809Y-116961714D01*
X110580000Y-117114095D01*
X110580000Y-117495047D01*
X110503809Y-117647428D01*
X110427619Y-117723619D01*
X110275238Y-117799809D01*
X109818095Y-117799809D01*
X109665714Y-117723619D01*
X109589523Y-117647428D01*
X105856190Y-120375809D02*
X105856190Y-118775809D01*
X106465714Y-118775809D01*
X106618095Y-118852000D01*
X106694285Y-118928190D01*
X106770476Y-119080571D01*
X106770476Y-119309142D01*
X106694285Y-119461523D01*
X106618095Y-119537714D01*
X106465714Y-119613904D01*
X105856190Y-119613904D01*
X108294285Y-120375809D02*
X107380000Y-120375809D01*
X107837142Y-120375809D02*
X107837142Y-118775809D01*
X107684761Y-119004380D01*
X107532380Y-119156761D01*
X107380000Y-119232952D01*
X108980000Y-120223428D02*
X109056190Y-120299619D01*
X108980000Y-120375809D01*
X108903809Y-120299619D01*
X108980000Y-120223428D01*
X108980000Y-120375809D01*
X109665714Y-118928190D02*
X109741904Y-118852000D01*
X109894285Y-118775809D01*
X110275238Y-118775809D01*
X110427619Y-118852000D01*
X110503809Y-118928190D01*
X110580000Y-119080571D01*
X110580000Y-119232952D01*
X110503809Y-119461523D01*
X109589523Y-120375809D01*
X110580000Y-120375809D01*
X119515238Y-95431809D02*
X118753333Y-95431809D01*
X118677142Y-96193714D01*
X118753333Y-96117523D01*
X118905714Y-96041333D01*
X119286666Y-96041333D01*
X119439047Y-96117523D01*
X119515238Y-96193714D01*
X119591428Y-96346095D01*
X119591428Y-96727047D01*
X119515238Y-96879428D01*
X119439047Y-96955619D01*
X119286666Y-97031809D01*
X118905714Y-97031809D01*
X118753333Y-96955619D01*
X118677142Y-96879428D01*
X120048571Y-95431809D02*
X120581904Y-97031809D01*
X121115238Y-95431809D01*
X118600952Y-98084000D02*
X118448571Y-98007809D01*
X118220000Y-98007809D01*
X117991428Y-98084000D01*
X117839047Y-98236380D01*
X117762857Y-98388761D01*
X117686666Y-98693523D01*
X117686666Y-98922095D01*
X117762857Y-99226857D01*
X117839047Y-99379238D01*
X117991428Y-99531619D01*
X118220000Y-99607809D01*
X118372380Y-99607809D01*
X118600952Y-99531619D01*
X118677142Y-99455428D01*
X118677142Y-98922095D01*
X118372380Y-98922095D01*
X119362857Y-99607809D02*
X119362857Y-98007809D01*
X120277142Y-99607809D01*
X120277142Y-98007809D01*
X121039047Y-99607809D02*
X121039047Y-98007809D01*
X121420000Y-98007809D01*
X121648571Y-98084000D01*
X121800952Y-98236380D01*
X121877142Y-98388761D01*
X121953333Y-98693523D01*
X121953333Y-98922095D01*
X121877142Y-99226857D01*
X121800952Y-99379238D01*
X121648571Y-99531619D01*
X121420000Y-99607809D01*
X121039047Y-99607809D01*
X117496190Y-102183809D02*
X117496190Y-100583809D01*
X118105714Y-100583809D01*
X118258095Y-100660000D01*
X118334285Y-100736190D01*
X118410476Y-100888571D01*
X118410476Y-101117142D01*
X118334285Y-101269523D01*
X118258095Y-101345714D01*
X118105714Y-101421904D01*
X117496190Y-101421904D01*
X119934285Y-102183809D02*
X119020000Y-102183809D01*
X119477142Y-102183809D02*
X119477142Y-100583809D01*
X119324761Y-100812380D01*
X119172380Y-100964761D01*
X119020000Y-101040952D01*
X120620000Y-102031428D02*
X120696190Y-102107619D01*
X120620000Y-102183809D01*
X120543809Y-102107619D01*
X120620000Y-102031428D01*
X120620000Y-102183809D01*
X122067619Y-101117142D02*
X122067619Y-102183809D01*
X121686666Y-100507619D02*
X121305714Y-101650476D01*
X122296190Y-101650476D01*
X117496190Y-104759809D02*
X117496190Y-103159809D01*
X118105714Y-103159809D01*
X118258095Y-103236000D01*
X118334285Y-103312190D01*
X118410476Y-103464571D01*
X118410476Y-103693142D01*
X118334285Y-103845523D01*
X118258095Y-103921714D01*
X118105714Y-103997904D01*
X117496190Y-103997904D01*
X119858095Y-103159809D02*
X119096190Y-103159809D01*
X119020000Y-103921714D01*
X119096190Y-103845523D01*
X119248571Y-103769333D01*
X119629523Y-103769333D01*
X119781904Y-103845523D01*
X119858095Y-103921714D01*
X119934285Y-104074095D01*
X119934285Y-104455047D01*
X119858095Y-104607428D01*
X119781904Y-104683619D01*
X119629523Y-104759809D01*
X119248571Y-104759809D01*
X119096190Y-104683619D01*
X119020000Y-104607428D01*
X120620000Y-104607428D02*
X120696190Y-104683619D01*
X120620000Y-104759809D01*
X120543809Y-104683619D01*
X120620000Y-104607428D01*
X120620000Y-104759809D01*
X121229523Y-103159809D02*
X122220000Y-103159809D01*
X121686666Y-103769333D01*
X121915238Y-103769333D01*
X122067619Y-103845523D01*
X122143809Y-103921714D01*
X122220000Y-104074095D01*
X122220000Y-104455047D01*
X122143809Y-104607428D01*
X122067619Y-104683619D01*
X121915238Y-104759809D01*
X121458095Y-104759809D01*
X121305714Y-104683619D01*
X121229523Y-104607428D01*
X117496190Y-107335809D02*
X117496190Y-105735809D01*
X118105714Y-105735809D01*
X118258095Y-105812000D01*
X118334285Y-105888190D01*
X118410476Y-106040571D01*
X118410476Y-106269142D01*
X118334285Y-106421523D01*
X118258095Y-106497714D01*
X118105714Y-106573904D01*
X117496190Y-106573904D01*
X119858095Y-105735809D02*
X119096190Y-105735809D01*
X119020000Y-106497714D01*
X119096190Y-106421523D01*
X119248571Y-106345333D01*
X119629523Y-106345333D01*
X119781904Y-106421523D01*
X119858095Y-106497714D01*
X119934285Y-106650095D01*
X119934285Y-107031047D01*
X119858095Y-107183428D01*
X119781904Y-107259619D01*
X119629523Y-107335809D01*
X119248571Y-107335809D01*
X119096190Y-107259619D01*
X119020000Y-107183428D01*
X120620000Y-107183428D02*
X120696190Y-107259619D01*
X120620000Y-107335809D01*
X120543809Y-107259619D01*
X120620000Y-107183428D01*
X120620000Y-107335809D01*
X122220000Y-107335809D02*
X121305714Y-107335809D01*
X121762857Y-107335809D02*
X121762857Y-105735809D01*
X121610476Y-105964380D01*
X121458095Y-106116761D01*
X121305714Y-106192952D01*
X117496190Y-109911809D02*
X117496190Y-108311809D01*
X118105714Y-108311809D01*
X118258095Y-108388000D01*
X118334285Y-108464190D01*
X118410476Y-108616571D01*
X118410476Y-108845142D01*
X118334285Y-108997523D01*
X118258095Y-109073714D01*
X118105714Y-109149904D01*
X117496190Y-109149904D01*
X119858095Y-108311809D02*
X119096190Y-108311809D01*
X119020000Y-109073714D01*
X119096190Y-108997523D01*
X119248571Y-108921333D01*
X119629523Y-108921333D01*
X119781904Y-108997523D01*
X119858095Y-109073714D01*
X119934285Y-109226095D01*
X119934285Y-109607047D01*
X119858095Y-109759428D01*
X119781904Y-109835619D01*
X119629523Y-109911809D01*
X119248571Y-109911809D01*
X119096190Y-109835619D01*
X119020000Y-109759428D01*
X120620000Y-109759428D02*
X120696190Y-109835619D01*
X120620000Y-109911809D01*
X120543809Y-109835619D01*
X120620000Y-109759428D01*
X120620000Y-109911809D01*
X121686666Y-108311809D02*
X121839047Y-108311809D01*
X121991428Y-108388000D01*
X122067619Y-108464190D01*
X122143809Y-108616571D01*
X122220000Y-108921333D01*
X122220000Y-109302285D01*
X122143809Y-109607047D01*
X122067619Y-109759428D01*
X121991428Y-109835619D01*
X121839047Y-109911809D01*
X121686666Y-109911809D01*
X121534285Y-109835619D01*
X121458095Y-109759428D01*
X121381904Y-109607047D01*
X121305714Y-109302285D01*
X121305714Y-108921333D01*
X121381904Y-108616571D01*
X121458095Y-108464190D01*
X121534285Y-108388000D01*
X121686666Y-108311809D01*
X117496190Y-112487809D02*
X117496190Y-110887809D01*
X118105714Y-110887809D01*
X118258095Y-110964000D01*
X118334285Y-111040190D01*
X118410476Y-111192571D01*
X118410476Y-111421142D01*
X118334285Y-111573523D01*
X118258095Y-111649714D01*
X118105714Y-111725904D01*
X117496190Y-111725904D01*
X119858095Y-110887809D02*
X119096190Y-110887809D01*
X119020000Y-111649714D01*
X119096190Y-111573523D01*
X119248571Y-111497333D01*
X119629523Y-111497333D01*
X119781904Y-111573523D01*
X119858095Y-111649714D01*
X119934285Y-111802095D01*
X119934285Y-112183047D01*
X119858095Y-112335428D01*
X119781904Y-112411619D01*
X119629523Y-112487809D01*
X119248571Y-112487809D01*
X119096190Y-112411619D01*
X119020000Y-112335428D01*
X120620000Y-112335428D02*
X120696190Y-112411619D01*
X120620000Y-112487809D01*
X120543809Y-112411619D01*
X120620000Y-112335428D01*
X120620000Y-112487809D01*
X122067619Y-111421142D02*
X122067619Y-112487809D01*
X121686666Y-110811619D02*
X121305714Y-111954476D01*
X122296190Y-111954476D01*
X117496190Y-115063809D02*
X117496190Y-113463809D01*
X118105714Y-113463809D01*
X118258095Y-113540000D01*
X118334285Y-113616190D01*
X118410476Y-113768571D01*
X118410476Y-113997142D01*
X118334285Y-114149523D01*
X118258095Y-114225714D01*
X118105714Y-114301904D01*
X117496190Y-114301904D01*
X119934285Y-115063809D02*
X119020000Y-115063809D01*
X119477142Y-115063809D02*
X119477142Y-113463809D01*
X119324761Y-113692380D01*
X119172380Y-113844761D01*
X119020000Y-113920952D01*
X120620000Y-114911428D02*
X120696190Y-114987619D01*
X120620000Y-115063809D01*
X120543809Y-114987619D01*
X120620000Y-114911428D01*
X120620000Y-115063809D01*
X122220000Y-115063809D02*
X121305714Y-115063809D01*
X121762857Y-115063809D02*
X121762857Y-113463809D01*
X121610476Y-113692380D01*
X121458095Y-113844761D01*
X121305714Y-113920952D01*
X117496190Y-117639809D02*
X117496190Y-116039809D01*
X118105714Y-116039809D01*
X118258095Y-116116000D01*
X118334285Y-116192190D01*
X118410476Y-116344571D01*
X118410476Y-116573142D01*
X118334285Y-116725523D01*
X118258095Y-116801714D01*
X118105714Y-116877904D01*
X117496190Y-116877904D01*
X118943809Y-116039809D02*
X119934285Y-116039809D01*
X119400952Y-116649333D01*
X119629523Y-116649333D01*
X119781904Y-116725523D01*
X119858095Y-116801714D01*
X119934285Y-116954095D01*
X119934285Y-117335047D01*
X119858095Y-117487428D01*
X119781904Y-117563619D01*
X119629523Y-117639809D01*
X119172380Y-117639809D01*
X119020000Y-117563619D01*
X118943809Y-117487428D01*
X120620000Y-117487428D02*
X120696190Y-117563619D01*
X120620000Y-117639809D01*
X120543809Y-117563619D01*
X120620000Y-117487428D01*
X120620000Y-117639809D01*
X122143809Y-116039809D02*
X121381904Y-116039809D01*
X121305714Y-116801714D01*
X121381904Y-116725523D01*
X121534285Y-116649333D01*
X121915238Y-116649333D01*
X122067619Y-116725523D01*
X122143809Y-116801714D01*
X122220000Y-116954095D01*
X122220000Y-117335047D01*
X122143809Y-117487428D01*
X122067619Y-117563619D01*
X121915238Y-117639809D01*
X121534285Y-117639809D01*
X121381904Y-117563619D01*
X121305714Y-117487428D01*
X117496190Y-120215809D02*
X117496190Y-118615809D01*
X118105714Y-118615809D01*
X118258095Y-118692000D01*
X118334285Y-118768190D01*
X118410476Y-118920571D01*
X118410476Y-119149142D01*
X118334285Y-119301523D01*
X118258095Y-119377714D01*
X118105714Y-119453904D01*
X117496190Y-119453904D01*
X118943809Y-118615809D02*
X119934285Y-118615809D01*
X119400952Y-119225333D01*
X119629523Y-119225333D01*
X119781904Y-119301523D01*
X119858095Y-119377714D01*
X119934285Y-119530095D01*
X119934285Y-119911047D01*
X119858095Y-120063428D01*
X119781904Y-120139619D01*
X119629523Y-120215809D01*
X119172380Y-120215809D01*
X119020000Y-120139619D01*
X118943809Y-120063428D01*
X120620000Y-120063428D02*
X120696190Y-120139619D01*
X120620000Y-120215809D01*
X120543809Y-120139619D01*
X120620000Y-120063428D01*
X120620000Y-120215809D01*
X122220000Y-120215809D02*
X121305714Y-120215809D01*
X121762857Y-120215809D02*
X121762857Y-118615809D01*
X121610476Y-118844380D01*
X121458095Y-118996761D01*
X121305714Y-119072952D01*
X150386190Y-97171809D02*
X150386190Y-95571809D01*
X150995714Y-95571809D01*
X151148095Y-95648000D01*
X151224285Y-95724190D01*
X151300476Y-95876571D01*
X151300476Y-96105142D01*
X151224285Y-96257523D01*
X151148095Y-96333714D01*
X150995714Y-96409904D01*
X150386190Y-96409904D01*
X151910000Y-95724190D02*
X151986190Y-95648000D01*
X152138571Y-95571809D01*
X152519523Y-95571809D01*
X152671904Y-95648000D01*
X152748095Y-95724190D01*
X152824285Y-95876571D01*
X152824285Y-96028952D01*
X152748095Y-96257523D01*
X151833809Y-97171809D01*
X152824285Y-97171809D01*
X153510000Y-97019428D02*
X153586190Y-97095619D01*
X153510000Y-97171809D01*
X153433809Y-97095619D01*
X153510000Y-97019428D01*
X153510000Y-97171809D01*
X155110000Y-97171809D02*
X154195714Y-97171809D01*
X154652857Y-97171809D02*
X154652857Y-95571809D01*
X154500476Y-95800380D01*
X154348095Y-95952761D01*
X154195714Y-96028952D01*
X150386190Y-99747809D02*
X150386190Y-98147809D01*
X150995714Y-98147809D01*
X151148095Y-98224000D01*
X151224285Y-98300190D01*
X151300476Y-98452571D01*
X151300476Y-98681142D01*
X151224285Y-98833523D01*
X151148095Y-98909714D01*
X150995714Y-98985904D01*
X150386190Y-98985904D01*
X152671904Y-98147809D02*
X152367142Y-98147809D01*
X152214761Y-98224000D01*
X152138571Y-98300190D01*
X151986190Y-98528761D01*
X151910000Y-98833523D01*
X151910000Y-99443047D01*
X151986190Y-99595428D01*
X152062380Y-99671619D01*
X152214761Y-99747809D01*
X152519523Y-99747809D01*
X152671904Y-99671619D01*
X152748095Y-99595428D01*
X152824285Y-99443047D01*
X152824285Y-99062095D01*
X152748095Y-98909714D01*
X152671904Y-98833523D01*
X152519523Y-98757333D01*
X152214761Y-98757333D01*
X152062380Y-98833523D01*
X151986190Y-98909714D01*
X151910000Y-99062095D01*
X153510000Y-99595428D02*
X153586190Y-99671619D01*
X153510000Y-99747809D01*
X153433809Y-99671619D01*
X153510000Y-99595428D01*
X153510000Y-99747809D01*
X154576666Y-98147809D02*
X154729047Y-98147809D01*
X154881428Y-98224000D01*
X154957619Y-98300190D01*
X155033809Y-98452571D01*
X155110000Y-98757333D01*
X155110000Y-99138285D01*
X155033809Y-99443047D01*
X154957619Y-99595428D01*
X154881428Y-99671619D01*
X154729047Y-99747809D01*
X154576666Y-99747809D01*
X154424285Y-99671619D01*
X154348095Y-99595428D01*
X154271904Y-99443047D01*
X154195714Y-99138285D01*
X154195714Y-98757333D01*
X154271904Y-98452571D01*
X154348095Y-98300190D01*
X154424285Y-98224000D01*
X154576666Y-98147809D01*
X150386190Y-102323809D02*
X150386190Y-100723809D01*
X150995714Y-100723809D01*
X151148095Y-100800000D01*
X151224285Y-100876190D01*
X151300476Y-101028571D01*
X151300476Y-101257142D01*
X151224285Y-101409523D01*
X151148095Y-101485714D01*
X150995714Y-101561904D01*
X150386190Y-101561904D01*
X152671904Y-100723809D02*
X152367142Y-100723809D01*
X152214761Y-100800000D01*
X152138571Y-100876190D01*
X151986190Y-101104761D01*
X151910000Y-101409523D01*
X151910000Y-102019047D01*
X151986190Y-102171428D01*
X152062380Y-102247619D01*
X152214761Y-102323809D01*
X152519523Y-102323809D01*
X152671904Y-102247619D01*
X152748095Y-102171428D01*
X152824285Y-102019047D01*
X152824285Y-101638095D01*
X152748095Y-101485714D01*
X152671904Y-101409523D01*
X152519523Y-101333333D01*
X152214761Y-101333333D01*
X152062380Y-101409523D01*
X151986190Y-101485714D01*
X151910000Y-101638095D01*
X153510000Y-102171428D02*
X153586190Y-102247619D01*
X153510000Y-102323809D01*
X153433809Y-102247619D01*
X153510000Y-102171428D01*
X153510000Y-102323809D01*
X155110000Y-102323809D02*
X154195714Y-102323809D01*
X154652857Y-102323809D02*
X154652857Y-100723809D01*
X154500476Y-100952380D01*
X154348095Y-101104761D01*
X154195714Y-101180952D01*
X150386190Y-104899809D02*
X150386190Y-103299809D01*
X150995714Y-103299809D01*
X151148095Y-103376000D01*
X151224285Y-103452190D01*
X151300476Y-103604571D01*
X151300476Y-103833142D01*
X151224285Y-103985523D01*
X151148095Y-104061714D01*
X150995714Y-104137904D01*
X150386190Y-104137904D01*
X152671904Y-103299809D02*
X152367142Y-103299809D01*
X152214761Y-103376000D01*
X152138571Y-103452190D01*
X151986190Y-103680761D01*
X151910000Y-103985523D01*
X151910000Y-104595047D01*
X151986190Y-104747428D01*
X152062380Y-104823619D01*
X152214761Y-104899809D01*
X152519523Y-104899809D01*
X152671904Y-104823619D01*
X152748095Y-104747428D01*
X152824285Y-104595047D01*
X152824285Y-104214095D01*
X152748095Y-104061714D01*
X152671904Y-103985523D01*
X152519523Y-103909333D01*
X152214761Y-103909333D01*
X152062380Y-103985523D01*
X151986190Y-104061714D01*
X151910000Y-104214095D01*
X153510000Y-104747428D02*
X153586190Y-104823619D01*
X153510000Y-104899809D01*
X153433809Y-104823619D01*
X153510000Y-104747428D01*
X153510000Y-104899809D01*
X154195714Y-103452190D02*
X154271904Y-103376000D01*
X154424285Y-103299809D01*
X154805238Y-103299809D01*
X154957619Y-103376000D01*
X155033809Y-103452190D01*
X155110000Y-103604571D01*
X155110000Y-103756952D01*
X155033809Y-103985523D01*
X154119523Y-104899809D01*
X155110000Y-104899809D01*
X150386190Y-107475809D02*
X150386190Y-105875809D01*
X150995714Y-105875809D01*
X151148095Y-105952000D01*
X151224285Y-106028190D01*
X151300476Y-106180571D01*
X151300476Y-106409142D01*
X151224285Y-106561523D01*
X151148095Y-106637714D01*
X150995714Y-106713904D01*
X150386190Y-106713904D01*
X152671904Y-105875809D02*
X152367142Y-105875809D01*
X152214761Y-105952000D01*
X152138571Y-106028190D01*
X151986190Y-106256761D01*
X151910000Y-106561523D01*
X151910000Y-107171047D01*
X151986190Y-107323428D01*
X152062380Y-107399619D01*
X152214761Y-107475809D01*
X152519523Y-107475809D01*
X152671904Y-107399619D01*
X152748095Y-107323428D01*
X152824285Y-107171047D01*
X152824285Y-106790095D01*
X152748095Y-106637714D01*
X152671904Y-106561523D01*
X152519523Y-106485333D01*
X152214761Y-106485333D01*
X152062380Y-106561523D01*
X151986190Y-106637714D01*
X151910000Y-106790095D01*
X153510000Y-107323428D02*
X153586190Y-107399619D01*
X153510000Y-107475809D01*
X153433809Y-107399619D01*
X153510000Y-107323428D01*
X153510000Y-107475809D01*
X154119523Y-105875809D02*
X155110000Y-105875809D01*
X154576666Y-106485333D01*
X154805238Y-106485333D01*
X154957619Y-106561523D01*
X155033809Y-106637714D01*
X155110000Y-106790095D01*
X155110000Y-107171047D01*
X155033809Y-107323428D01*
X154957619Y-107399619D01*
X154805238Y-107475809D01*
X154348095Y-107475809D01*
X154195714Y-107399619D01*
X154119523Y-107323428D01*
X150386190Y-110051809D02*
X150386190Y-108451809D01*
X150995714Y-108451809D01*
X151148095Y-108528000D01*
X151224285Y-108604190D01*
X151300476Y-108756571D01*
X151300476Y-108985142D01*
X151224285Y-109137523D01*
X151148095Y-109213714D01*
X150995714Y-109289904D01*
X150386190Y-109289904D01*
X152671904Y-108451809D02*
X152367142Y-108451809D01*
X152214761Y-108528000D01*
X152138571Y-108604190D01*
X151986190Y-108832761D01*
X151910000Y-109137523D01*
X151910000Y-109747047D01*
X151986190Y-109899428D01*
X152062380Y-109975619D01*
X152214761Y-110051809D01*
X152519523Y-110051809D01*
X152671904Y-109975619D01*
X152748095Y-109899428D01*
X152824285Y-109747047D01*
X152824285Y-109366095D01*
X152748095Y-109213714D01*
X152671904Y-109137523D01*
X152519523Y-109061333D01*
X152214761Y-109061333D01*
X152062380Y-109137523D01*
X151986190Y-109213714D01*
X151910000Y-109366095D01*
X153510000Y-109899428D02*
X153586190Y-109975619D01*
X153510000Y-110051809D01*
X153433809Y-109975619D01*
X153510000Y-109899428D01*
X153510000Y-110051809D01*
X154957619Y-108985142D02*
X154957619Y-110051809D01*
X154576666Y-108375619D02*
X154195714Y-109518476D01*
X155186190Y-109518476D01*
X150386190Y-112627809D02*
X150386190Y-111027809D01*
X150995714Y-111027809D01*
X151148095Y-111104000D01*
X151224285Y-111180190D01*
X151300476Y-111332571D01*
X151300476Y-111561142D01*
X151224285Y-111713523D01*
X151148095Y-111789714D01*
X150995714Y-111865904D01*
X150386190Y-111865904D01*
X151833809Y-111027809D02*
X152824285Y-111027809D01*
X152290952Y-111637333D01*
X152519523Y-111637333D01*
X152671904Y-111713523D01*
X152748095Y-111789714D01*
X152824285Y-111942095D01*
X152824285Y-112323047D01*
X152748095Y-112475428D01*
X152671904Y-112551619D01*
X152519523Y-112627809D01*
X152062380Y-112627809D01*
X151910000Y-112551619D01*
X151833809Y-112475428D01*
X153510000Y-112475428D02*
X153586190Y-112551619D01*
X153510000Y-112627809D01*
X153433809Y-112551619D01*
X153510000Y-112475428D01*
X153510000Y-112627809D01*
X154119523Y-111027809D02*
X155186190Y-111027809D01*
X154500476Y-112627809D01*
X150386190Y-115203809D02*
X150386190Y-113603809D01*
X150995714Y-113603809D01*
X151148095Y-113680000D01*
X151224285Y-113756190D01*
X151300476Y-113908571D01*
X151300476Y-114137142D01*
X151224285Y-114289523D01*
X151148095Y-114365714D01*
X150995714Y-114441904D01*
X150386190Y-114441904D01*
X151910000Y-113756190D02*
X151986190Y-113680000D01*
X152138571Y-113603809D01*
X152519523Y-113603809D01*
X152671904Y-113680000D01*
X152748095Y-113756190D01*
X152824285Y-113908571D01*
X152824285Y-114060952D01*
X152748095Y-114289523D01*
X151833809Y-115203809D01*
X152824285Y-115203809D01*
X153510000Y-115051428D02*
X153586190Y-115127619D01*
X153510000Y-115203809D01*
X153433809Y-115127619D01*
X153510000Y-115051428D01*
X153510000Y-115203809D01*
X154957619Y-114137142D02*
X154957619Y-115203809D01*
X154576666Y-113527619D02*
X154195714Y-114670476D01*
X155186190Y-114670476D01*
X150386190Y-117779809D02*
X150386190Y-116179809D01*
X150995714Y-116179809D01*
X151148095Y-116256000D01*
X151224285Y-116332190D01*
X151300476Y-116484571D01*
X151300476Y-116713142D01*
X151224285Y-116865523D01*
X151148095Y-116941714D01*
X150995714Y-117017904D01*
X150386190Y-117017904D01*
X151833809Y-116179809D02*
X152824285Y-116179809D01*
X152290952Y-116789333D01*
X152519523Y-116789333D01*
X152671904Y-116865523D01*
X152748095Y-116941714D01*
X152824285Y-117094095D01*
X152824285Y-117475047D01*
X152748095Y-117627428D01*
X152671904Y-117703619D01*
X152519523Y-117779809D01*
X152062380Y-117779809D01*
X151910000Y-117703619D01*
X151833809Y-117627428D01*
X153510000Y-117627428D02*
X153586190Y-117703619D01*
X153510000Y-117779809D01*
X153433809Y-117703619D01*
X153510000Y-117627428D01*
X153510000Y-117779809D01*
X154119523Y-116179809D02*
X155110000Y-116179809D01*
X154576666Y-116789333D01*
X154805238Y-116789333D01*
X154957619Y-116865523D01*
X155033809Y-116941714D01*
X155110000Y-117094095D01*
X155110000Y-117475047D01*
X155033809Y-117627428D01*
X154957619Y-117703619D01*
X154805238Y-117779809D01*
X154348095Y-117779809D01*
X154195714Y-117703619D01*
X154119523Y-117627428D01*
X150386190Y-120355809D02*
X150386190Y-118755809D01*
X150995714Y-118755809D01*
X151148095Y-118832000D01*
X151224285Y-118908190D01*
X151300476Y-119060571D01*
X151300476Y-119289142D01*
X151224285Y-119441523D01*
X151148095Y-119517714D01*
X150995714Y-119593904D01*
X150386190Y-119593904D01*
X151833809Y-118755809D02*
X152824285Y-118755809D01*
X152290952Y-119365333D01*
X152519523Y-119365333D01*
X152671904Y-119441523D01*
X152748095Y-119517714D01*
X152824285Y-119670095D01*
X152824285Y-120051047D01*
X152748095Y-120203428D01*
X152671904Y-120279619D01*
X152519523Y-120355809D01*
X152062380Y-120355809D01*
X151910000Y-120279619D01*
X151833809Y-120203428D01*
X153510000Y-120203428D02*
X153586190Y-120279619D01*
X153510000Y-120355809D01*
X153433809Y-120279619D01*
X153510000Y-120203428D01*
X153510000Y-120355809D01*
X154195714Y-118908190D02*
X154271904Y-118832000D01*
X154424285Y-118755809D01*
X154805238Y-118755809D01*
X154957619Y-118832000D01*
X155033809Y-118908190D01*
X155110000Y-119060571D01*
X155110000Y-119212952D01*
X155033809Y-119441523D01*
X154119523Y-120355809D01*
X155110000Y-120355809D01*
X162320952Y-95648000D02*
X162168571Y-95571809D01*
X161940000Y-95571809D01*
X161711428Y-95648000D01*
X161559047Y-95800380D01*
X161482857Y-95952761D01*
X161406666Y-96257523D01*
X161406666Y-96486095D01*
X161482857Y-96790857D01*
X161559047Y-96943238D01*
X161711428Y-97095619D01*
X161940000Y-97171809D01*
X162092380Y-97171809D01*
X162320952Y-97095619D01*
X162397142Y-97019428D01*
X162397142Y-96486095D01*
X162092380Y-96486095D01*
X163082857Y-97171809D02*
X163082857Y-95571809D01*
X163997142Y-97171809D01*
X163997142Y-95571809D01*
X164759047Y-97171809D02*
X164759047Y-95571809D01*
X165140000Y-95571809D01*
X165368571Y-95648000D01*
X165520952Y-95800380D01*
X165597142Y-95952761D01*
X165673333Y-96257523D01*
X165673333Y-96486095D01*
X165597142Y-96790857D01*
X165520952Y-96943238D01*
X165368571Y-97095619D01*
X165140000Y-97171809D01*
X164759047Y-97171809D01*
X161216190Y-99747809D02*
X161216190Y-98147809D01*
X161825714Y-98147809D01*
X161978095Y-98224000D01*
X162054285Y-98300190D01*
X162130476Y-98452571D01*
X162130476Y-98681142D01*
X162054285Y-98833523D01*
X161978095Y-98909714D01*
X161825714Y-98985904D01*
X161216190Y-98985904D01*
X162740000Y-98300190D02*
X162816190Y-98224000D01*
X162968571Y-98147809D01*
X163349523Y-98147809D01*
X163501904Y-98224000D01*
X163578095Y-98300190D01*
X163654285Y-98452571D01*
X163654285Y-98604952D01*
X163578095Y-98833523D01*
X162663809Y-99747809D01*
X163654285Y-99747809D01*
X164340000Y-99595428D02*
X164416190Y-99671619D01*
X164340000Y-99747809D01*
X164263809Y-99671619D01*
X164340000Y-99595428D01*
X164340000Y-99747809D01*
X165406666Y-98147809D02*
X165559047Y-98147809D01*
X165711428Y-98224000D01*
X165787619Y-98300190D01*
X165863809Y-98452571D01*
X165940000Y-98757333D01*
X165940000Y-99138285D01*
X165863809Y-99443047D01*
X165787619Y-99595428D01*
X165711428Y-99671619D01*
X165559047Y-99747809D01*
X165406666Y-99747809D01*
X165254285Y-99671619D01*
X165178095Y-99595428D01*
X165101904Y-99443047D01*
X165025714Y-99138285D01*
X165025714Y-98757333D01*
X165101904Y-98452571D01*
X165178095Y-98300190D01*
X165254285Y-98224000D01*
X165406666Y-98147809D01*
X161216190Y-102323809D02*
X161216190Y-100723809D01*
X161825714Y-100723809D01*
X161978095Y-100800000D01*
X162054285Y-100876190D01*
X162130476Y-101028571D01*
X162130476Y-101257142D01*
X162054285Y-101409523D01*
X161978095Y-101485714D01*
X161825714Y-101561904D01*
X161216190Y-101561904D01*
X162740000Y-100876190D02*
X162816190Y-100800000D01*
X162968571Y-100723809D01*
X163349523Y-100723809D01*
X163501904Y-100800000D01*
X163578095Y-100876190D01*
X163654285Y-101028571D01*
X163654285Y-101180952D01*
X163578095Y-101409523D01*
X162663809Y-102323809D01*
X163654285Y-102323809D01*
X164340000Y-102171428D02*
X164416190Y-102247619D01*
X164340000Y-102323809D01*
X164263809Y-102247619D01*
X164340000Y-102171428D01*
X164340000Y-102323809D01*
X165025714Y-100876190D02*
X165101904Y-100800000D01*
X165254285Y-100723809D01*
X165635238Y-100723809D01*
X165787619Y-100800000D01*
X165863809Y-100876190D01*
X165940000Y-101028571D01*
X165940000Y-101180952D01*
X165863809Y-101409523D01*
X164949523Y-102323809D01*
X165940000Y-102323809D01*
X161216190Y-104899809D02*
X161216190Y-103299809D01*
X161825714Y-103299809D01*
X161978095Y-103376000D01*
X162054285Y-103452190D01*
X162130476Y-103604571D01*
X162130476Y-103833142D01*
X162054285Y-103985523D01*
X161978095Y-104061714D01*
X161825714Y-104137904D01*
X161216190Y-104137904D01*
X163501904Y-103833142D02*
X163501904Y-104899809D01*
X163120952Y-103223619D02*
X162740000Y-104366476D01*
X163730476Y-104366476D01*
X164340000Y-104747428D02*
X164416190Y-104823619D01*
X164340000Y-104899809D01*
X164263809Y-104823619D01*
X164340000Y-104747428D01*
X164340000Y-104899809D01*
X165406666Y-103299809D02*
X165559047Y-103299809D01*
X165711428Y-103376000D01*
X165787619Y-103452190D01*
X165863809Y-103604571D01*
X165940000Y-103909333D01*
X165940000Y-104290285D01*
X165863809Y-104595047D01*
X165787619Y-104747428D01*
X165711428Y-104823619D01*
X165559047Y-104899809D01*
X165406666Y-104899809D01*
X165254285Y-104823619D01*
X165178095Y-104747428D01*
X165101904Y-104595047D01*
X165025714Y-104290285D01*
X165025714Y-103909333D01*
X165101904Y-103604571D01*
X165178095Y-103452190D01*
X165254285Y-103376000D01*
X165406666Y-103299809D01*
X162663809Y-107475809D02*
X162130476Y-106713904D01*
X161749523Y-107475809D02*
X161749523Y-105875809D01*
X162359047Y-105875809D01*
X162511428Y-105952000D01*
X162587619Y-106028190D01*
X162663809Y-106180571D01*
X162663809Y-106409142D01*
X162587619Y-106561523D01*
X162511428Y-106637714D01*
X162359047Y-106713904D01*
X161749523Y-106713904D01*
X163273333Y-107399619D02*
X163501904Y-107475809D01*
X163882857Y-107475809D01*
X164035238Y-107399619D01*
X164111428Y-107323428D01*
X164187619Y-107171047D01*
X164187619Y-107018666D01*
X164111428Y-106866285D01*
X164035238Y-106790095D01*
X163882857Y-106713904D01*
X163578095Y-106637714D01*
X163425714Y-106561523D01*
X163349523Y-106485333D01*
X163273333Y-106332952D01*
X163273333Y-106180571D01*
X163349523Y-106028190D01*
X163425714Y-105952000D01*
X163578095Y-105875809D01*
X163959047Y-105875809D01*
X164187619Y-105952000D01*
X164644761Y-105875809D02*
X165559047Y-105875809D01*
X165101904Y-107475809D02*
X165101904Y-105875809D01*
X161216190Y-110051809D02*
X161216190Y-108451809D01*
X161825714Y-108451809D01*
X161978095Y-108528000D01*
X162054285Y-108604190D01*
X162130476Y-108756571D01*
X162130476Y-108985142D01*
X162054285Y-109137523D01*
X161978095Y-109213714D01*
X161825714Y-109289904D01*
X161216190Y-109289904D01*
X163501904Y-108985142D02*
X163501904Y-110051809D01*
X163120952Y-108375619D02*
X162740000Y-109518476D01*
X163730476Y-109518476D01*
X164340000Y-109899428D02*
X164416190Y-109975619D01*
X164340000Y-110051809D01*
X164263809Y-109975619D01*
X164340000Y-109899428D01*
X164340000Y-110051809D01*
X165787619Y-108451809D02*
X165482857Y-108451809D01*
X165330476Y-108528000D01*
X165254285Y-108604190D01*
X165101904Y-108832761D01*
X165025714Y-109137523D01*
X165025714Y-109747047D01*
X165101904Y-109899428D01*
X165178095Y-109975619D01*
X165330476Y-110051809D01*
X165635238Y-110051809D01*
X165787619Y-109975619D01*
X165863809Y-109899428D01*
X165940000Y-109747047D01*
X165940000Y-109366095D01*
X165863809Y-109213714D01*
X165787619Y-109137523D01*
X165635238Y-109061333D01*
X165330476Y-109061333D01*
X165178095Y-109137523D01*
X165101904Y-109213714D01*
X165025714Y-109366095D01*
X161216190Y-112627809D02*
X161216190Y-111027809D01*
X161825714Y-111027809D01*
X161978095Y-111104000D01*
X162054285Y-111180190D01*
X162130476Y-111332571D01*
X162130476Y-111561142D01*
X162054285Y-111713523D01*
X161978095Y-111789714D01*
X161825714Y-111865904D01*
X161216190Y-111865904D01*
X163501904Y-111561142D02*
X163501904Y-112627809D01*
X163120952Y-110951619D02*
X162740000Y-112094476D01*
X163730476Y-112094476D01*
X164340000Y-112475428D02*
X164416190Y-112551619D01*
X164340000Y-112627809D01*
X164263809Y-112551619D01*
X164340000Y-112475428D01*
X164340000Y-112627809D01*
X164949523Y-111027809D02*
X166016190Y-111027809D01*
X165330476Y-112627809D01*
X161216190Y-115203809D02*
X161216190Y-113603809D01*
X161825714Y-113603809D01*
X161978095Y-113680000D01*
X162054285Y-113756190D01*
X162130476Y-113908571D01*
X162130476Y-114137142D01*
X162054285Y-114289523D01*
X161978095Y-114365714D01*
X161825714Y-114441904D01*
X161216190Y-114441904D01*
X163501904Y-114137142D02*
X163501904Y-115203809D01*
X163120952Y-113527619D02*
X162740000Y-114670476D01*
X163730476Y-114670476D01*
X164340000Y-115051428D02*
X164416190Y-115127619D01*
X164340000Y-115203809D01*
X164263809Y-115127619D01*
X164340000Y-115051428D01*
X164340000Y-115203809D01*
X165787619Y-114137142D02*
X165787619Y-115203809D01*
X165406666Y-113527619D02*
X165025714Y-114670476D01*
X166016190Y-114670476D01*
X161216190Y-117779809D02*
X161216190Y-116179809D01*
X161825714Y-116179809D01*
X161978095Y-116256000D01*
X162054285Y-116332190D01*
X162130476Y-116484571D01*
X162130476Y-116713142D01*
X162054285Y-116865523D01*
X161978095Y-116941714D01*
X161825714Y-117017904D01*
X161216190Y-117017904D01*
X162740000Y-116332190D02*
X162816190Y-116256000D01*
X162968571Y-116179809D01*
X163349523Y-116179809D01*
X163501904Y-116256000D01*
X163578095Y-116332190D01*
X163654285Y-116484571D01*
X163654285Y-116636952D01*
X163578095Y-116865523D01*
X162663809Y-117779809D01*
X163654285Y-117779809D01*
X164340000Y-117627428D02*
X164416190Y-117703619D01*
X164340000Y-117779809D01*
X164263809Y-117703619D01*
X164340000Y-117627428D01*
X164340000Y-117779809D01*
X165863809Y-116179809D02*
X165101904Y-116179809D01*
X165025714Y-116941714D01*
X165101904Y-116865523D01*
X165254285Y-116789333D01*
X165635238Y-116789333D01*
X165787619Y-116865523D01*
X165863809Y-116941714D01*
X165940000Y-117094095D01*
X165940000Y-117475047D01*
X165863809Y-117627428D01*
X165787619Y-117703619D01*
X165635238Y-117779809D01*
X165254285Y-117779809D01*
X165101904Y-117703619D01*
X165025714Y-117627428D01*
X161216190Y-120355809D02*
X161216190Y-118755809D01*
X161825714Y-118755809D01*
X161978095Y-118832000D01*
X162054285Y-118908190D01*
X162130476Y-119060571D01*
X162130476Y-119289142D01*
X162054285Y-119441523D01*
X161978095Y-119517714D01*
X161825714Y-119593904D01*
X161216190Y-119593904D01*
X162663809Y-118755809D02*
X163654285Y-118755809D01*
X163120952Y-119365333D01*
X163349523Y-119365333D01*
X163501904Y-119441523D01*
X163578095Y-119517714D01*
X163654285Y-119670095D01*
X163654285Y-120051047D01*
X163578095Y-120203428D01*
X163501904Y-120279619D01*
X163349523Y-120355809D01*
X162892380Y-120355809D01*
X162740000Y-120279619D01*
X162663809Y-120203428D01*
X164340000Y-120203428D02*
X164416190Y-120279619D01*
X164340000Y-120355809D01*
X164263809Y-120279619D01*
X164340000Y-120203428D01*
X164340000Y-120355809D01*
X165406666Y-118755809D02*
X165559047Y-118755809D01*
X165711428Y-118832000D01*
X165787619Y-118908190D01*
X165863809Y-119060571D01*
X165940000Y-119365333D01*
X165940000Y-119746285D01*
X165863809Y-120051047D01*
X165787619Y-120203428D01*
X165711428Y-120279619D01*
X165559047Y-120355809D01*
X165406666Y-120355809D01*
X165254285Y-120279619D01*
X165178095Y-120203428D01*
X165101904Y-120051047D01*
X165025714Y-119746285D01*
X165025714Y-119365333D01*
X165101904Y-119060571D01*
X165178095Y-118908190D01*
X165254285Y-118832000D01*
X165406666Y-118755809D01*
X188276666Y-91907380D02*
X188276666Y-90907380D01*
X188276666Y-91383571D02*
X188848095Y-91383571D01*
X188848095Y-91907380D02*
X188848095Y-90907380D01*
X189514761Y-90907380D02*
X189705238Y-90907380D01*
X189800476Y-90955000D01*
X189895714Y-91050238D01*
X189943333Y-91240714D01*
X189943333Y-91574047D01*
X189895714Y-91764523D01*
X189800476Y-91859761D01*
X189705238Y-91907380D01*
X189514761Y-91907380D01*
X189419523Y-91859761D01*
X189324285Y-91764523D01*
X189276666Y-91574047D01*
X189276666Y-91240714D01*
X189324285Y-91050238D01*
X189419523Y-90955000D01*
X189514761Y-90907380D01*
X190229047Y-90907380D02*
X190800476Y-90907380D01*
X190514761Y-91907380D02*
X190514761Y-90907380D01*
X191800476Y-90907380D02*
X192038571Y-91907380D01*
X192229047Y-91193095D01*
X192419523Y-91907380D01*
X192657619Y-90907380D01*
X193038571Y-91907380D02*
X193038571Y-90907380D01*
X194086190Y-91907380D02*
X193752857Y-91431190D01*
X193514761Y-91907380D02*
X193514761Y-90907380D01*
X193895714Y-90907380D01*
X193990952Y-90955000D01*
X194038571Y-91002619D01*
X194086190Y-91097857D01*
X194086190Y-91240714D01*
X194038571Y-91335952D01*
X193990952Y-91383571D01*
X193895714Y-91431190D01*
X193514761Y-91431190D01*
X194514761Y-91383571D02*
X194848095Y-91383571D01*
X194990952Y-91907380D02*
X194514761Y-91907380D01*
X194514761Y-90907380D01*
X194990952Y-90907380D01*
X186943333Y-93231666D02*
X187419523Y-93231666D01*
X186848095Y-93517380D02*
X187181428Y-92517380D01*
X187514761Y-93517380D01*
X187848095Y-93517380D02*
X187848095Y-92517380D01*
X188419523Y-93517380D01*
X188419523Y-92517380D01*
X188895714Y-92993571D02*
X189229047Y-92993571D01*
X189371904Y-93517380D02*
X188895714Y-93517380D01*
X188895714Y-92517380D01*
X189371904Y-92517380D01*
X189800476Y-93517380D02*
X189800476Y-92517380D01*
X190133809Y-93231666D01*
X190467142Y-92517380D01*
X190467142Y-93517380D01*
X191133809Y-92517380D02*
X191324285Y-92517380D01*
X191419523Y-92565000D01*
X191514761Y-92660238D01*
X191562380Y-92850714D01*
X191562380Y-93184047D01*
X191514761Y-93374523D01*
X191419523Y-93469761D01*
X191324285Y-93517380D01*
X191133809Y-93517380D01*
X191038571Y-93469761D01*
X190943333Y-93374523D01*
X190895714Y-93184047D01*
X190895714Y-92850714D01*
X190943333Y-92660238D01*
X191038571Y-92565000D01*
X191133809Y-92517380D01*
X191990952Y-93517380D02*
X191990952Y-92517380D01*
X192324285Y-93231666D01*
X192657619Y-92517380D01*
X192657619Y-93517380D01*
X193133809Y-92993571D02*
X193467142Y-92993571D01*
X193610000Y-93517380D02*
X193133809Y-93517380D01*
X193133809Y-92517380D01*
X193610000Y-92517380D01*
X193895714Y-92517380D02*
X194467142Y-92517380D01*
X194181428Y-93517380D02*
X194181428Y-92517380D01*
X194800476Y-92993571D02*
X195133809Y-92993571D01*
X195276666Y-93517380D02*
X194800476Y-93517380D01*
X194800476Y-92517380D01*
X195276666Y-92517380D01*
X196276666Y-93517380D02*
X195943333Y-93041190D01*
X195705238Y-93517380D02*
X195705238Y-92517380D01*
X196086190Y-92517380D01*
X196181428Y-92565000D01*
X196229047Y-92612619D01*
X196276666Y-92707857D01*
X196276666Y-92850714D01*
X196229047Y-92945952D01*
X196181428Y-92993571D01*
X196086190Y-93041190D01*
X195705238Y-93041190D01*
X191159523Y-58927142D02*
X191111904Y-58974761D01*
X190969047Y-59022380D01*
X190873809Y-59022380D01*
X190730952Y-58974761D01*
X190635714Y-58879523D01*
X190588095Y-58784285D01*
X190540476Y-58593809D01*
X190540476Y-58450952D01*
X190588095Y-58260476D01*
X190635714Y-58165238D01*
X190730952Y-58070000D01*
X190873809Y-58022380D01*
X190969047Y-58022380D01*
X191111904Y-58070000D01*
X191159523Y-58117619D01*
X191778571Y-58022380D02*
X191969047Y-58022380D01*
X192064285Y-58070000D01*
X192159523Y-58165238D01*
X192207142Y-58355714D01*
X192207142Y-58689047D01*
X192159523Y-58879523D01*
X192064285Y-58974761D01*
X191969047Y-59022380D01*
X191778571Y-59022380D01*
X191683333Y-58974761D01*
X191588095Y-58879523D01*
X191540476Y-58689047D01*
X191540476Y-58355714D01*
X191588095Y-58165238D01*
X191683333Y-58070000D01*
X191778571Y-58022380D01*
X192588095Y-58117619D02*
X192635714Y-58070000D01*
X192730952Y-58022380D01*
X192969047Y-58022380D01*
X193064285Y-58070000D01*
X193111904Y-58117619D01*
X193159523Y-58212857D01*
X193159523Y-58308095D01*
X193111904Y-58450952D01*
X192540476Y-59022380D01*
X193159523Y-59022380D01*
X189606190Y-75362380D02*
X189606190Y-74362380D01*
X189987142Y-74362380D01*
X190082380Y-74410000D01*
X190130000Y-74457619D01*
X190177619Y-74552857D01*
X190177619Y-74695714D01*
X190130000Y-74790952D01*
X190082380Y-74838571D01*
X189987142Y-74886190D01*
X189606190Y-74886190D01*
X190606190Y-75362380D02*
X190606190Y-74362380D01*
X190939523Y-75076666D01*
X191272857Y-74362380D01*
X191272857Y-75362380D01*
X191701428Y-74457619D02*
X191749047Y-74410000D01*
X191844285Y-74362380D01*
X192082380Y-74362380D01*
X192177619Y-74410000D01*
X192225238Y-74457619D01*
X192272857Y-74552857D01*
X192272857Y-74648095D01*
X192225238Y-74790952D01*
X191653809Y-75362380D01*
X192272857Y-75362380D01*
X192701428Y-75267142D02*
X192749047Y-75314761D01*
X192701428Y-75362380D01*
X192653809Y-75314761D01*
X192701428Y-75267142D01*
X192701428Y-75362380D01*
X193653809Y-74362380D02*
X193177619Y-74362380D01*
X193130000Y-74838571D01*
X193177619Y-74790952D01*
X193272857Y-74743333D01*
X193510952Y-74743333D01*
X193606190Y-74790952D01*
X193653809Y-74838571D01*
X193701428Y-74933809D01*
X193701428Y-75171904D01*
X193653809Y-75267142D01*
X193606190Y-75314761D01*
X193510952Y-75362380D01*
X193272857Y-75362380D01*
X193177619Y-75314761D01*
X193130000Y-75267142D01*
X187398095Y-110487380D02*
X187398095Y-111296904D01*
X187445714Y-111392142D01*
X187493333Y-111439761D01*
X187588571Y-111487380D01*
X187779047Y-111487380D01*
X187874285Y-111439761D01*
X187921904Y-111392142D01*
X187969523Y-111296904D01*
X187969523Y-110487380D01*
X188921904Y-111487380D02*
X188445714Y-111487380D01*
X188445714Y-110487380D01*
X189112380Y-110487380D02*
X189683809Y-110487380D01*
X189398095Y-111487380D02*
X189398095Y-110487380D01*
X190588571Y-111487380D02*
X190255238Y-111011190D01*
X190017142Y-111487380D02*
X190017142Y-110487380D01*
X190398095Y-110487380D01*
X190493333Y-110535000D01*
X190540952Y-110582619D01*
X190588571Y-110677857D01*
X190588571Y-110820714D01*
X190540952Y-110915952D01*
X190493333Y-110963571D01*
X190398095Y-111011190D01*
X190017142Y-111011190D01*
X190969523Y-111201666D02*
X191445714Y-111201666D01*
X190874285Y-111487380D02*
X191207619Y-110487380D01*
X191540952Y-111487380D01*
X191826666Y-111439761D02*
X191969523Y-111487380D01*
X192207619Y-111487380D01*
X192302857Y-111439761D01*
X192350476Y-111392142D01*
X192398095Y-111296904D01*
X192398095Y-111201666D01*
X192350476Y-111106428D01*
X192302857Y-111058809D01*
X192207619Y-111011190D01*
X192017142Y-110963571D01*
X191921904Y-110915952D01*
X191874285Y-110868333D01*
X191826666Y-110773095D01*
X191826666Y-110677857D01*
X191874285Y-110582619D01*
X191921904Y-110535000D01*
X192017142Y-110487380D01*
X192255238Y-110487380D01*
X192398095Y-110535000D01*
X193017142Y-110487380D02*
X193207619Y-110487380D01*
X193302857Y-110535000D01*
X193398095Y-110630238D01*
X193445714Y-110820714D01*
X193445714Y-111154047D01*
X193398095Y-111344523D01*
X193302857Y-111439761D01*
X193207619Y-111487380D01*
X193017142Y-111487380D01*
X192921904Y-111439761D01*
X192826666Y-111344523D01*
X192779047Y-111154047D01*
X192779047Y-110820714D01*
X192826666Y-110630238D01*
X192921904Y-110535000D01*
X193017142Y-110487380D01*
X193874285Y-111487380D02*
X193874285Y-110487380D01*
X194445714Y-111487380D01*
X194445714Y-110487380D01*
X194921904Y-111487380D02*
X194921904Y-110487380D01*
X195969523Y-111392142D02*
X195921904Y-111439761D01*
X195779047Y-111487380D01*
X195683809Y-111487380D01*
X195540952Y-111439761D01*
X195445714Y-111344523D01*
X195398095Y-111249285D01*
X195350476Y-111058809D01*
X195350476Y-110915952D01*
X195398095Y-110725476D01*
X195445714Y-110630238D01*
X195540952Y-110535000D01*
X195683809Y-110487380D01*
X195779047Y-110487380D01*
X195921904Y-110535000D01*
X195969523Y-110582619D01*
X186993333Y-112811666D02*
X187469523Y-112811666D01*
X186898095Y-113097380D02*
X187231428Y-112097380D01*
X187564761Y-113097380D01*
X187898095Y-113097380D02*
X187898095Y-112097380D01*
X188469523Y-113097380D01*
X188469523Y-112097380D01*
X188945714Y-112573571D02*
X189279047Y-112573571D01*
X189421904Y-113097380D02*
X188945714Y-113097380D01*
X188945714Y-112097380D01*
X189421904Y-112097380D01*
X189850476Y-113097380D02*
X189850476Y-112097380D01*
X190183809Y-112811666D01*
X190517142Y-112097380D01*
X190517142Y-113097380D01*
X191183809Y-112097380D02*
X191374285Y-112097380D01*
X191469523Y-112145000D01*
X191564761Y-112240238D01*
X191612380Y-112430714D01*
X191612380Y-112764047D01*
X191564761Y-112954523D01*
X191469523Y-113049761D01*
X191374285Y-113097380D01*
X191183809Y-113097380D01*
X191088571Y-113049761D01*
X190993333Y-112954523D01*
X190945714Y-112764047D01*
X190945714Y-112430714D01*
X190993333Y-112240238D01*
X191088571Y-112145000D01*
X191183809Y-112097380D01*
X192040952Y-113097380D02*
X192040952Y-112097380D01*
X192374285Y-112811666D01*
X192707619Y-112097380D01*
X192707619Y-113097380D01*
X193183809Y-112573571D02*
X193517142Y-112573571D01*
X193660000Y-113097380D02*
X193183809Y-113097380D01*
X193183809Y-112097380D01*
X193660000Y-112097380D01*
X193945714Y-112097380D02*
X194517142Y-112097380D01*
X194231428Y-113097380D02*
X194231428Y-112097380D01*
X194850476Y-112573571D02*
X195183809Y-112573571D01*
X195326666Y-113097380D02*
X194850476Y-113097380D01*
X194850476Y-112097380D01*
X195326666Y-112097380D01*
X196326666Y-113097380D02*
X195993333Y-112621190D01*
X195755238Y-113097380D02*
X195755238Y-112097380D01*
X196136190Y-112097380D01*
X196231428Y-112145000D01*
X196279047Y-112192619D01*
X196326666Y-112287857D01*
X196326666Y-112430714D01*
X196279047Y-112525952D01*
X196231428Y-112573571D01*
X196136190Y-112621190D01*
X195755238Y-112621190D01*
X187349523Y-130264761D02*
X187492380Y-130312380D01*
X187730476Y-130312380D01*
X187825714Y-130264761D01*
X187873333Y-130217142D01*
X187920952Y-130121904D01*
X187920952Y-130026666D01*
X187873333Y-129931428D01*
X187825714Y-129883809D01*
X187730476Y-129836190D01*
X187540000Y-129788571D01*
X187444761Y-129740952D01*
X187397142Y-129693333D01*
X187349523Y-129598095D01*
X187349523Y-129502857D01*
X187397142Y-129407619D01*
X187444761Y-129360000D01*
X187540000Y-129312380D01*
X187778095Y-129312380D01*
X187920952Y-129360000D01*
X188349523Y-130312380D02*
X188349523Y-129312380D01*
X188682857Y-130026666D01*
X189016190Y-129312380D01*
X189016190Y-130312380D01*
X189444761Y-130026666D02*
X189920952Y-130026666D01*
X189349523Y-130312380D02*
X189682857Y-129312380D01*
X190016190Y-130312380D01*
X190920952Y-130312380D02*
X190587619Y-129836190D01*
X190349523Y-130312380D02*
X190349523Y-129312380D01*
X190730476Y-129312380D01*
X190825714Y-129360000D01*
X190873333Y-129407619D01*
X190920952Y-129502857D01*
X190920952Y-129645714D01*
X190873333Y-129740952D01*
X190825714Y-129788571D01*
X190730476Y-129836190D01*
X190349523Y-129836190D01*
X191206666Y-129312380D02*
X191778095Y-129312380D01*
X191492380Y-130312380D02*
X191492380Y-129312380D01*
X192111428Y-130312380D02*
X192111428Y-129312380D01*
X192444761Y-130026666D01*
X192778095Y-129312380D01*
X192778095Y-130312380D01*
X193254285Y-129788571D02*
X193587619Y-129788571D01*
X193730476Y-130312380D02*
X193254285Y-130312380D01*
X193254285Y-129312380D01*
X193730476Y-129312380D01*
X194111428Y-130264761D02*
X194254285Y-130312380D01*
X194492380Y-130312380D01*
X194587619Y-130264761D01*
X194635238Y-130217142D01*
X194682857Y-130121904D01*
X194682857Y-130026666D01*
X194635238Y-129931428D01*
X194587619Y-129883809D01*
X194492380Y-129836190D01*
X194301904Y-129788571D01*
X194206666Y-129740952D01*
X194159047Y-129693333D01*
X194111428Y-129598095D01*
X194111428Y-129502857D01*
X194159047Y-129407619D01*
X194206666Y-129360000D01*
X194301904Y-129312380D01*
X194540000Y-129312380D01*
X194682857Y-129360000D01*
X195111428Y-130312380D02*
X195111428Y-129312380D01*
X195111428Y-129788571D02*
X195682857Y-129788571D01*
X195682857Y-130312380D02*
X195682857Y-129312380D01*
X197369047Y-133505904D02*
X197864285Y-133505904D01*
X197597619Y-133810666D01*
X197711904Y-133810666D01*
X197788095Y-133848761D01*
X197826190Y-133886857D01*
X197864285Y-133963047D01*
X197864285Y-134153523D01*
X197826190Y-134229714D01*
X197788095Y-134267809D01*
X197711904Y-134305904D01*
X197483333Y-134305904D01*
X197407142Y-134267809D01*
X197369047Y-134229714D01*
X198207142Y-134229714D02*
X198245238Y-134267809D01*
X198207142Y-134305904D01*
X198169047Y-134267809D01*
X198207142Y-134229714D01*
X198207142Y-134305904D01*
X198511904Y-133505904D02*
X199007142Y-133505904D01*
X198740476Y-133810666D01*
X198854761Y-133810666D01*
X198930952Y-133848761D01*
X198969047Y-133886857D01*
X199007142Y-133963047D01*
X199007142Y-134153523D01*
X198969047Y-134229714D01*
X198930952Y-134267809D01*
X198854761Y-134305904D01*
X198626190Y-134305904D01*
X198550000Y-134267809D01*
X198511904Y-134229714D01*
X199235714Y-133505904D02*
X199502380Y-134305904D01*
X199769047Y-133505904D01*
X197940476Y-136081904D02*
X198397619Y-136081904D01*
X198169047Y-136881904D02*
X198169047Y-136081904D01*
X198588095Y-136081904D02*
X199121428Y-136881904D01*
X199121428Y-136081904D02*
X198588095Y-136881904D01*
X198416666Y-139457904D02*
X198150000Y-139076952D01*
X197959523Y-139457904D02*
X197959523Y-138657904D01*
X198264285Y-138657904D01*
X198340476Y-138696000D01*
X198378571Y-138734095D01*
X198416666Y-138810285D01*
X198416666Y-138924571D01*
X198378571Y-139000761D01*
X198340476Y-139038857D01*
X198264285Y-139076952D01*
X197959523Y-139076952D01*
X198683333Y-138657904D02*
X199216666Y-139457904D01*
X199216666Y-138657904D02*
X198683333Y-139457904D01*
X184890476Y-133844000D02*
X184814285Y-133805904D01*
X184700000Y-133805904D01*
X184585714Y-133844000D01*
X184509523Y-133920190D01*
X184471428Y-133996380D01*
X184433333Y-134148761D01*
X184433333Y-134263047D01*
X184471428Y-134415428D01*
X184509523Y-134491619D01*
X184585714Y-134567809D01*
X184700000Y-134605904D01*
X184776190Y-134605904D01*
X184890476Y-134567809D01*
X184928571Y-134529714D01*
X184928571Y-134263047D01*
X184776190Y-134263047D01*
X185271428Y-134605904D02*
X185271428Y-133805904D01*
X185728571Y-134605904D01*
X185728571Y-133805904D01*
X186109523Y-134605904D02*
X186109523Y-133805904D01*
X186300000Y-133805904D01*
X186414285Y-133844000D01*
X186490476Y-133920190D01*
X186528571Y-133996380D01*
X186566666Y-134148761D01*
X186566666Y-134263047D01*
X186528571Y-134415428D01*
X186490476Y-134491619D01*
X186414285Y-134567809D01*
X186300000Y-134605904D01*
X186109523Y-134605904D01*
X184319047Y-136381904D02*
X184814285Y-136381904D01*
X184547619Y-136686666D01*
X184661904Y-136686666D01*
X184738095Y-136724761D01*
X184776190Y-136762857D01*
X184814285Y-136839047D01*
X184814285Y-137029523D01*
X184776190Y-137105714D01*
X184738095Y-137143809D01*
X184661904Y-137181904D01*
X184433333Y-137181904D01*
X184357142Y-137143809D01*
X184319047Y-137105714D01*
X185157142Y-137105714D02*
X185195238Y-137143809D01*
X185157142Y-137181904D01*
X185119047Y-137143809D01*
X185157142Y-137105714D01*
X185157142Y-137181904D01*
X185461904Y-136381904D02*
X185957142Y-136381904D01*
X185690476Y-136686666D01*
X185804761Y-136686666D01*
X185880952Y-136724761D01*
X185919047Y-136762857D01*
X185957142Y-136839047D01*
X185957142Y-137029523D01*
X185919047Y-137105714D01*
X185880952Y-137143809D01*
X185804761Y-137181904D01*
X185576190Y-137181904D01*
X185500000Y-137143809D01*
X185461904Y-137105714D01*
X186185714Y-136381904D02*
X186452380Y-137181904D01*
X186719047Y-136381904D01*
X184319047Y-138957904D02*
X184814285Y-138957904D01*
X184547619Y-139262666D01*
X184661904Y-139262666D01*
X184738095Y-139300761D01*
X184776190Y-139338857D01*
X184814285Y-139415047D01*
X184814285Y-139605523D01*
X184776190Y-139681714D01*
X184738095Y-139719809D01*
X184661904Y-139757904D01*
X184433333Y-139757904D01*
X184357142Y-139719809D01*
X184319047Y-139681714D01*
X185157142Y-139681714D02*
X185195238Y-139719809D01*
X185157142Y-139757904D01*
X185119047Y-139719809D01*
X185157142Y-139681714D01*
X185157142Y-139757904D01*
X185461904Y-138957904D02*
X185957142Y-138957904D01*
X185690476Y-139262666D01*
X185804761Y-139262666D01*
X185880952Y-139300761D01*
X185919047Y-139338857D01*
X185957142Y-139415047D01*
X185957142Y-139605523D01*
X185919047Y-139681714D01*
X185880952Y-139719809D01*
X185804761Y-139757904D01*
X185576190Y-139757904D01*
X185500000Y-139719809D01*
X185461904Y-139681714D01*
X186185714Y-138957904D02*
X186452380Y-139757904D01*
X186719047Y-138957904D01*
D11*
X196440476Y-115061309D02*
X196754761Y-115061309D01*
X196597619Y-115611309D02*
X196597619Y-115061309D01*
X197252380Y-115611309D02*
X197069047Y-115349404D01*
X196938095Y-115611309D02*
X196938095Y-115061309D01*
X197147619Y-115061309D01*
X197200000Y-115087500D01*
X197226190Y-115113690D01*
X197252380Y-115166071D01*
X197252380Y-115244642D01*
X197226190Y-115297023D01*
X197200000Y-115323214D01*
X197147619Y-115349404D01*
X196938095Y-115349404D01*
X197488095Y-115611309D02*
X197488095Y-115061309D01*
X198038095Y-115087500D02*
X197985714Y-115061309D01*
X197907142Y-115061309D01*
X197828571Y-115087500D01*
X197776190Y-115139880D01*
X197750000Y-115192261D01*
X197723809Y-115297023D01*
X197723809Y-115375595D01*
X197750000Y-115480357D01*
X197776190Y-115532738D01*
X197828571Y-115585119D01*
X197907142Y-115611309D01*
X197959523Y-115611309D01*
X198038095Y-115585119D01*
X198064285Y-115558928D01*
X198064285Y-115375595D01*
X197959523Y-115375595D01*
X199007142Y-115611309D02*
X198692857Y-115611309D01*
X198850000Y-115611309D02*
X198850000Y-115061309D01*
X198797619Y-115139880D01*
X198745238Y-115192261D01*
X198692857Y-115218452D01*
X197448809Y-116496809D02*
X197265476Y-116234904D01*
X197134523Y-116496809D02*
X197134523Y-115946809D01*
X197344047Y-115946809D01*
X197396428Y-115973000D01*
X197422619Y-115999190D01*
X197448809Y-116051571D01*
X197448809Y-116130142D01*
X197422619Y-116182523D01*
X197396428Y-116208714D01*
X197344047Y-116234904D01*
X197134523Y-116234904D01*
X197658333Y-116470619D02*
X197736904Y-116496809D01*
X197867857Y-116496809D01*
X197920238Y-116470619D01*
X197946428Y-116444428D01*
X197972619Y-116392047D01*
X197972619Y-116339666D01*
X197946428Y-116287285D01*
X197920238Y-116261095D01*
X197867857Y-116234904D01*
X197763095Y-116208714D01*
X197710714Y-116182523D01*
X197684523Y-116156333D01*
X197658333Y-116103952D01*
X197658333Y-116051571D01*
X197684523Y-115999190D01*
X197710714Y-115973000D01*
X197763095Y-115946809D01*
X197894047Y-115946809D01*
X197972619Y-115973000D01*
X198129761Y-115946809D02*
X198444047Y-115946809D01*
X198286904Y-116496809D02*
X198286904Y-115946809D01*
X196309523Y-117979714D02*
X196492857Y-117979714D01*
X196571428Y-118267809D02*
X196309523Y-118267809D01*
X196309523Y-117717809D01*
X196571428Y-117717809D01*
X197121428Y-118215428D02*
X197095238Y-118241619D01*
X197016666Y-118267809D01*
X196964285Y-118267809D01*
X196885714Y-118241619D01*
X196833333Y-118189238D01*
X196807142Y-118136857D01*
X196780952Y-118032095D01*
X196780952Y-117953523D01*
X196807142Y-117848761D01*
X196833333Y-117796380D01*
X196885714Y-117744000D01*
X196964285Y-117717809D01*
X197016666Y-117717809D01*
X197095238Y-117744000D01*
X197121428Y-117770190D01*
X197357142Y-118267809D02*
X197357142Y-117717809D01*
X197357142Y-117979714D02*
X197671428Y-117979714D01*
X197671428Y-118267809D02*
X197671428Y-117717809D01*
X198038095Y-117717809D02*
X198142857Y-117717809D01*
X198195238Y-117744000D01*
X198247619Y-117796380D01*
X198273809Y-117901142D01*
X198273809Y-118084476D01*
X198247619Y-118189238D01*
X198195238Y-118241619D01*
X198142857Y-118267809D01*
X198038095Y-118267809D01*
X197985714Y-118241619D01*
X197933333Y-118189238D01*
X197907142Y-118084476D01*
X197907142Y-117901142D01*
X197933333Y-117796380D01*
X197985714Y-117744000D01*
X198038095Y-117717809D01*
X199216666Y-118267809D02*
X198902380Y-118267809D01*
X199059523Y-118267809D02*
X199059523Y-117717809D01*
X199007142Y-117796380D01*
X198954761Y-117848761D01*
X198902380Y-117874952D01*
X196951190Y-119153309D02*
X196951190Y-118603309D01*
X197160714Y-118603309D01*
X197213095Y-118629500D01*
X197239285Y-118655690D01*
X197265476Y-118708071D01*
X197265476Y-118786642D01*
X197239285Y-118839023D01*
X197213095Y-118865214D01*
X197160714Y-118891404D01*
X196951190Y-118891404D01*
X197736904Y-118786642D02*
X197736904Y-119153309D01*
X197605952Y-118577119D02*
X197475000Y-118969976D01*
X197815476Y-118969976D01*
X198025000Y-119100928D02*
X198051190Y-119127119D01*
X198025000Y-119153309D01*
X197998809Y-119127119D01*
X198025000Y-119100928D01*
X198025000Y-119153309D01*
X198391666Y-118603309D02*
X198444047Y-118603309D01*
X198496428Y-118629500D01*
X198522619Y-118655690D01*
X198548809Y-118708071D01*
X198575000Y-118812833D01*
X198575000Y-118943785D01*
X198548809Y-119048547D01*
X198522619Y-119100928D01*
X198496428Y-119127119D01*
X198444047Y-119153309D01*
X198391666Y-119153309D01*
X198339285Y-119127119D01*
X198313095Y-119100928D01*
X198286904Y-119048547D01*
X198260714Y-118943785D01*
X198260714Y-118812833D01*
X198286904Y-118708071D01*
X198313095Y-118655690D01*
X198339285Y-118629500D01*
X198391666Y-118603309D01*
X196440476Y-120374309D02*
X196754761Y-120374309D01*
X196597619Y-120924309D02*
X196597619Y-120374309D01*
X197252380Y-120924309D02*
X197069047Y-120662404D01*
X196938095Y-120924309D02*
X196938095Y-120374309D01*
X197147619Y-120374309D01*
X197200000Y-120400500D01*
X197226190Y-120426690D01*
X197252380Y-120479071D01*
X197252380Y-120557642D01*
X197226190Y-120610023D01*
X197200000Y-120636214D01*
X197147619Y-120662404D01*
X196938095Y-120662404D01*
X197488095Y-120924309D02*
X197488095Y-120374309D01*
X198038095Y-120400500D02*
X197985714Y-120374309D01*
X197907142Y-120374309D01*
X197828571Y-120400500D01*
X197776190Y-120452880D01*
X197750000Y-120505261D01*
X197723809Y-120610023D01*
X197723809Y-120688595D01*
X197750000Y-120793357D01*
X197776190Y-120845738D01*
X197828571Y-120898119D01*
X197907142Y-120924309D01*
X197959523Y-120924309D01*
X198038095Y-120898119D01*
X198064285Y-120871928D01*
X198064285Y-120688595D01*
X197959523Y-120688595D01*
X198692857Y-120426690D02*
X198719047Y-120400500D01*
X198771428Y-120374309D01*
X198902380Y-120374309D01*
X198954761Y-120400500D01*
X198980952Y-120426690D01*
X199007142Y-120479071D01*
X199007142Y-120531452D01*
X198980952Y-120610023D01*
X198666666Y-120924309D01*
X199007142Y-120924309D01*
X196951190Y-121809809D02*
X196951190Y-121259809D01*
X197160714Y-121259809D01*
X197213095Y-121286000D01*
X197239285Y-121312190D01*
X197265476Y-121364571D01*
X197265476Y-121443142D01*
X197239285Y-121495523D01*
X197213095Y-121521714D01*
X197160714Y-121547904D01*
X196951190Y-121547904D01*
X197475000Y-121312190D02*
X197501190Y-121286000D01*
X197553571Y-121259809D01*
X197684523Y-121259809D01*
X197736904Y-121286000D01*
X197763095Y-121312190D01*
X197789285Y-121364571D01*
X197789285Y-121416952D01*
X197763095Y-121495523D01*
X197448809Y-121809809D01*
X197789285Y-121809809D01*
X198025000Y-121757428D02*
X198051190Y-121783619D01*
X198025000Y-121809809D01*
X197998809Y-121783619D01*
X198025000Y-121757428D01*
X198025000Y-121809809D01*
X198260714Y-121312190D02*
X198286904Y-121286000D01*
X198339285Y-121259809D01*
X198470238Y-121259809D01*
X198522619Y-121286000D01*
X198548809Y-121312190D01*
X198575000Y-121364571D01*
X198575000Y-121416952D01*
X198548809Y-121495523D01*
X198234523Y-121809809D01*
X198575000Y-121809809D01*
X196309523Y-123292714D02*
X196492857Y-123292714D01*
X196571428Y-123580809D02*
X196309523Y-123580809D01*
X196309523Y-123030809D01*
X196571428Y-123030809D01*
X197121428Y-123528428D02*
X197095238Y-123554619D01*
X197016666Y-123580809D01*
X196964285Y-123580809D01*
X196885714Y-123554619D01*
X196833333Y-123502238D01*
X196807142Y-123449857D01*
X196780952Y-123345095D01*
X196780952Y-123266523D01*
X196807142Y-123161761D01*
X196833333Y-123109380D01*
X196885714Y-123057000D01*
X196964285Y-123030809D01*
X197016666Y-123030809D01*
X197095238Y-123057000D01*
X197121428Y-123083190D01*
X197357142Y-123580809D02*
X197357142Y-123030809D01*
X197357142Y-123292714D02*
X197671428Y-123292714D01*
X197671428Y-123580809D02*
X197671428Y-123030809D01*
X198038095Y-123030809D02*
X198142857Y-123030809D01*
X198195238Y-123057000D01*
X198247619Y-123109380D01*
X198273809Y-123214142D01*
X198273809Y-123397476D01*
X198247619Y-123502238D01*
X198195238Y-123554619D01*
X198142857Y-123580809D01*
X198038095Y-123580809D01*
X197985714Y-123554619D01*
X197933333Y-123502238D01*
X197907142Y-123397476D01*
X197907142Y-123214142D01*
X197933333Y-123109380D01*
X197985714Y-123057000D01*
X198038095Y-123030809D01*
X198902380Y-123083190D02*
X198928571Y-123057000D01*
X198980952Y-123030809D01*
X199111904Y-123030809D01*
X199164285Y-123057000D01*
X199190476Y-123083190D01*
X199216666Y-123135571D01*
X199216666Y-123187952D01*
X199190476Y-123266523D01*
X198876190Y-123580809D01*
X199216666Y-123580809D01*
X196951190Y-124466309D02*
X196951190Y-123916309D01*
X197160714Y-123916309D01*
X197213095Y-123942500D01*
X197239285Y-123968690D01*
X197265476Y-124021071D01*
X197265476Y-124099642D01*
X197239285Y-124152023D01*
X197213095Y-124178214D01*
X197160714Y-124204404D01*
X196951190Y-124204404D01*
X197475000Y-123968690D02*
X197501190Y-123942500D01*
X197553571Y-123916309D01*
X197684523Y-123916309D01*
X197736904Y-123942500D01*
X197763095Y-123968690D01*
X197789285Y-124021071D01*
X197789285Y-124073452D01*
X197763095Y-124152023D01*
X197448809Y-124466309D01*
X197789285Y-124466309D01*
X198025000Y-124413928D02*
X198051190Y-124440119D01*
X198025000Y-124466309D01*
X197998809Y-124440119D01*
X198025000Y-124413928D01*
X198025000Y-124466309D01*
X198391666Y-123916309D02*
X198444047Y-123916309D01*
X198496428Y-123942500D01*
X198522619Y-123968690D01*
X198548809Y-124021071D01*
X198575000Y-124125833D01*
X198575000Y-124256785D01*
X198548809Y-124361547D01*
X198522619Y-124413928D01*
X198496428Y-124440119D01*
X198444047Y-124466309D01*
X198391666Y-124466309D01*
X198339285Y-124440119D01*
X198313095Y-124413928D01*
X198286904Y-124361547D01*
X198260714Y-124256785D01*
X198260714Y-124125833D01*
X198286904Y-124021071D01*
X198313095Y-123968690D01*
X198339285Y-123942500D01*
X198391666Y-123916309D01*
D10*
X185060476Y-115516000D02*
X184984285Y-115477904D01*
X184870000Y-115477904D01*
X184755714Y-115516000D01*
X184679523Y-115592190D01*
X184641428Y-115668380D01*
X184603333Y-115820761D01*
X184603333Y-115935047D01*
X184641428Y-116087428D01*
X184679523Y-116163619D01*
X184755714Y-116239809D01*
X184870000Y-116277904D01*
X184946190Y-116277904D01*
X185060476Y-116239809D01*
X185098571Y-116201714D01*
X185098571Y-115935047D01*
X184946190Y-115935047D01*
X185441428Y-116277904D02*
X185441428Y-115477904D01*
X185898571Y-116277904D01*
X185898571Y-115477904D01*
X186279523Y-116277904D02*
X186279523Y-115477904D01*
X186470000Y-115477904D01*
X186584285Y-115516000D01*
X186660476Y-115592190D01*
X186698571Y-115668380D01*
X186736666Y-115820761D01*
X186736666Y-115935047D01*
X186698571Y-116087428D01*
X186660476Y-116163619D01*
X186584285Y-116239809D01*
X186470000Y-116277904D01*
X186279523Y-116277904D01*
X185060476Y-118092000D02*
X184984285Y-118053904D01*
X184870000Y-118053904D01*
X184755714Y-118092000D01*
X184679523Y-118168190D01*
X184641428Y-118244380D01*
X184603333Y-118396761D01*
X184603333Y-118511047D01*
X184641428Y-118663428D01*
X184679523Y-118739619D01*
X184755714Y-118815809D01*
X184870000Y-118853904D01*
X184946190Y-118853904D01*
X185060476Y-118815809D01*
X185098571Y-118777714D01*
X185098571Y-118511047D01*
X184946190Y-118511047D01*
X185441428Y-118853904D02*
X185441428Y-118053904D01*
X185898571Y-118853904D01*
X185898571Y-118053904D01*
X186279523Y-118853904D02*
X186279523Y-118053904D01*
X186470000Y-118053904D01*
X186584285Y-118092000D01*
X186660476Y-118168190D01*
X186698571Y-118244380D01*
X186736666Y-118396761D01*
X186736666Y-118511047D01*
X186698571Y-118663428D01*
X186660476Y-118739619D01*
X186584285Y-118815809D01*
X186470000Y-118853904D01*
X186279523Y-118853904D01*
X184489047Y-120629904D02*
X184984285Y-120629904D01*
X184717619Y-120934666D01*
X184831904Y-120934666D01*
X184908095Y-120972761D01*
X184946190Y-121010857D01*
X184984285Y-121087047D01*
X184984285Y-121277523D01*
X184946190Y-121353714D01*
X184908095Y-121391809D01*
X184831904Y-121429904D01*
X184603333Y-121429904D01*
X184527142Y-121391809D01*
X184489047Y-121353714D01*
X185327142Y-121353714D02*
X185365238Y-121391809D01*
X185327142Y-121429904D01*
X185289047Y-121391809D01*
X185327142Y-121353714D01*
X185327142Y-121429904D01*
X185631904Y-120629904D02*
X186127142Y-120629904D01*
X185860476Y-120934666D01*
X185974761Y-120934666D01*
X186050952Y-120972761D01*
X186089047Y-121010857D01*
X186127142Y-121087047D01*
X186127142Y-121277523D01*
X186089047Y-121353714D01*
X186050952Y-121391809D01*
X185974761Y-121429904D01*
X185746190Y-121429904D01*
X185670000Y-121391809D01*
X185631904Y-121353714D01*
X186355714Y-120629904D02*
X186622380Y-121429904D01*
X186889047Y-120629904D01*
X184489047Y-123205904D02*
X184984285Y-123205904D01*
X184717619Y-123510666D01*
X184831904Y-123510666D01*
X184908095Y-123548761D01*
X184946190Y-123586857D01*
X184984285Y-123663047D01*
X184984285Y-123853523D01*
X184946190Y-123929714D01*
X184908095Y-123967809D01*
X184831904Y-124005904D01*
X184603333Y-124005904D01*
X184527142Y-123967809D01*
X184489047Y-123929714D01*
X185327142Y-123929714D02*
X185365238Y-123967809D01*
X185327142Y-124005904D01*
X185289047Y-123967809D01*
X185327142Y-123929714D01*
X185327142Y-124005904D01*
X185631904Y-123205904D02*
X186127142Y-123205904D01*
X185860476Y-123510666D01*
X185974761Y-123510666D01*
X186050952Y-123548761D01*
X186089047Y-123586857D01*
X186127142Y-123663047D01*
X186127142Y-123853523D01*
X186089047Y-123929714D01*
X186050952Y-123967809D01*
X185974761Y-124005904D01*
X185746190Y-124005904D01*
X185670000Y-123967809D01*
X185631904Y-123929714D01*
X186355714Y-123205904D02*
X186622380Y-124005904D01*
X186889047Y-123205904D01*
X187960476Y-95918000D02*
X187884285Y-95879904D01*
X187770000Y-95879904D01*
X187655714Y-95918000D01*
X187579523Y-95994190D01*
X187541428Y-96070380D01*
X187503333Y-96222761D01*
X187503333Y-96337047D01*
X187541428Y-96489428D01*
X187579523Y-96565619D01*
X187655714Y-96641809D01*
X187770000Y-96679904D01*
X187846190Y-96679904D01*
X187960476Y-96641809D01*
X187998571Y-96603714D01*
X187998571Y-96337047D01*
X187846190Y-96337047D01*
X188341428Y-96679904D02*
X188341428Y-95879904D01*
X188798571Y-96679904D01*
X188798571Y-95879904D01*
X189179523Y-96679904D02*
X189179523Y-95879904D01*
X189370000Y-95879904D01*
X189484285Y-95918000D01*
X189560476Y-95994190D01*
X189598571Y-96070380D01*
X189636666Y-96222761D01*
X189636666Y-96337047D01*
X189598571Y-96489428D01*
X189560476Y-96565619D01*
X189484285Y-96641809D01*
X189370000Y-96679904D01*
X189179523Y-96679904D01*
X188417619Y-98455904D02*
X188036666Y-98455904D01*
X187998571Y-98836857D01*
X188036666Y-98798761D01*
X188112857Y-98760666D01*
X188303333Y-98760666D01*
X188379523Y-98798761D01*
X188417619Y-98836857D01*
X188455714Y-98913047D01*
X188455714Y-99103523D01*
X188417619Y-99179714D01*
X188379523Y-99217809D01*
X188303333Y-99255904D01*
X188112857Y-99255904D01*
X188036666Y-99217809D01*
X187998571Y-99179714D01*
X188684285Y-98455904D02*
X188950952Y-99255904D01*
X189217619Y-98455904D01*
X187408095Y-101831904D02*
X187408095Y-101031904D01*
X187712857Y-101031904D01*
X187789047Y-101070000D01*
X187827142Y-101108095D01*
X187865238Y-101184285D01*
X187865238Y-101298571D01*
X187827142Y-101374761D01*
X187789047Y-101412857D01*
X187712857Y-101450952D01*
X187408095Y-101450952D01*
X188550952Y-101298571D02*
X188550952Y-101831904D01*
X188360476Y-100993809D02*
X188170000Y-101565238D01*
X188665238Y-101565238D01*
X188970000Y-101755714D02*
X189008095Y-101793809D01*
X188970000Y-101831904D01*
X188931904Y-101793809D01*
X188970000Y-101755714D01*
X188970000Y-101831904D01*
X189693809Y-101298571D02*
X189693809Y-101831904D01*
X189503333Y-100993809D02*
X189312857Y-101565238D01*
X189808095Y-101565238D01*
X187617619Y-104369809D02*
X187731904Y-104407904D01*
X187922380Y-104407904D01*
X187998571Y-104369809D01*
X188036666Y-104331714D01*
X188074761Y-104255523D01*
X188074761Y-104179333D01*
X188036666Y-104103142D01*
X187998571Y-104065047D01*
X187922380Y-104026952D01*
X187770000Y-103988857D01*
X187693809Y-103950761D01*
X187655714Y-103912666D01*
X187617619Y-103836476D01*
X187617619Y-103760285D01*
X187655714Y-103684095D01*
X187693809Y-103646000D01*
X187770000Y-103607904D01*
X187960476Y-103607904D01*
X188074761Y-103646000D01*
X188874761Y-104331714D02*
X188836666Y-104369809D01*
X188722380Y-104407904D01*
X188646190Y-104407904D01*
X188531904Y-104369809D01*
X188455714Y-104293619D01*
X188417619Y-104217428D01*
X188379523Y-104065047D01*
X188379523Y-103950761D01*
X188417619Y-103798380D01*
X188455714Y-103722190D01*
X188531904Y-103646000D01*
X188646190Y-103607904D01*
X188722380Y-103607904D01*
X188836666Y-103646000D01*
X188874761Y-103684095D01*
X189598571Y-104407904D02*
X189217619Y-104407904D01*
X189217619Y-103607904D01*
X187598571Y-106945809D02*
X187712857Y-106983904D01*
X187903333Y-106983904D01*
X187979523Y-106945809D01*
X188017619Y-106907714D01*
X188055714Y-106831523D01*
X188055714Y-106755333D01*
X188017619Y-106679142D01*
X187979523Y-106641047D01*
X187903333Y-106602952D01*
X187750952Y-106564857D01*
X187674761Y-106526761D01*
X187636666Y-106488666D01*
X187598571Y-106412476D01*
X187598571Y-106336285D01*
X187636666Y-106260095D01*
X187674761Y-106222000D01*
X187750952Y-106183904D01*
X187941428Y-106183904D01*
X188055714Y-106222000D01*
X188398571Y-106983904D02*
X188398571Y-106183904D01*
X188589047Y-106183904D01*
X188703333Y-106222000D01*
X188779523Y-106298190D01*
X188817619Y-106374380D01*
X188855714Y-106526761D01*
X188855714Y-106641047D01*
X188817619Y-106793428D01*
X188779523Y-106869619D01*
X188703333Y-106945809D01*
X188589047Y-106983904D01*
X188398571Y-106983904D01*
X189160476Y-106755333D02*
X189541428Y-106755333D01*
X189084285Y-106983904D02*
X189350952Y-106183904D01*
X189617619Y-106983904D01*
X188000476Y-78018000D02*
X187924285Y-77979904D01*
X187810000Y-77979904D01*
X187695714Y-78018000D01*
X187619523Y-78094190D01*
X187581428Y-78170380D01*
X187543333Y-78322761D01*
X187543333Y-78437047D01*
X187581428Y-78589428D01*
X187619523Y-78665619D01*
X187695714Y-78741809D01*
X187810000Y-78779904D01*
X187886190Y-78779904D01*
X188000476Y-78741809D01*
X188038571Y-78703714D01*
X188038571Y-78437047D01*
X187886190Y-78437047D01*
X188381428Y-78779904D02*
X188381428Y-77979904D01*
X188838571Y-78779904D01*
X188838571Y-77979904D01*
X189219523Y-78779904D02*
X189219523Y-77979904D01*
X189410000Y-77979904D01*
X189524285Y-78018000D01*
X189600476Y-78094190D01*
X189638571Y-78170380D01*
X189676666Y-78322761D01*
X189676666Y-78437047D01*
X189638571Y-78589428D01*
X189600476Y-78665619D01*
X189524285Y-78741809D01*
X189410000Y-78779904D01*
X189219523Y-78779904D01*
X188000476Y-80594000D02*
X187924285Y-80555904D01*
X187810000Y-80555904D01*
X187695714Y-80594000D01*
X187619523Y-80670190D01*
X187581428Y-80746380D01*
X187543333Y-80898761D01*
X187543333Y-81013047D01*
X187581428Y-81165428D01*
X187619523Y-81241619D01*
X187695714Y-81317809D01*
X187810000Y-81355904D01*
X187886190Y-81355904D01*
X188000476Y-81317809D01*
X188038571Y-81279714D01*
X188038571Y-81013047D01*
X187886190Y-81013047D01*
X188381428Y-81355904D02*
X188381428Y-80555904D01*
X188838571Y-81355904D01*
X188838571Y-80555904D01*
X189219523Y-81355904D02*
X189219523Y-80555904D01*
X189410000Y-80555904D01*
X189524285Y-80594000D01*
X189600476Y-80670190D01*
X189638571Y-80746380D01*
X189676666Y-80898761D01*
X189676666Y-81013047D01*
X189638571Y-81165428D01*
X189600476Y-81241619D01*
X189524285Y-81317809D01*
X189410000Y-81355904D01*
X189219523Y-81355904D01*
X188457619Y-83131904D02*
X188076666Y-83131904D01*
X188038571Y-83512857D01*
X188076666Y-83474761D01*
X188152857Y-83436666D01*
X188343333Y-83436666D01*
X188419523Y-83474761D01*
X188457619Y-83512857D01*
X188495714Y-83589047D01*
X188495714Y-83779523D01*
X188457619Y-83855714D01*
X188419523Y-83893809D01*
X188343333Y-83931904D01*
X188152857Y-83931904D01*
X188076666Y-83893809D01*
X188038571Y-83855714D01*
X188724285Y-83131904D02*
X188990952Y-83931904D01*
X189257619Y-83131904D01*
X187657619Y-86469809D02*
X187771904Y-86507904D01*
X187962380Y-86507904D01*
X188038571Y-86469809D01*
X188076666Y-86431714D01*
X188114761Y-86355523D01*
X188114761Y-86279333D01*
X188076666Y-86203142D01*
X188038571Y-86165047D01*
X187962380Y-86126952D01*
X187810000Y-86088857D01*
X187733809Y-86050761D01*
X187695714Y-86012666D01*
X187657619Y-85936476D01*
X187657619Y-85860285D01*
X187695714Y-85784095D01*
X187733809Y-85746000D01*
X187810000Y-85707904D01*
X188000476Y-85707904D01*
X188114761Y-85746000D01*
X188914761Y-86431714D02*
X188876666Y-86469809D01*
X188762380Y-86507904D01*
X188686190Y-86507904D01*
X188571904Y-86469809D01*
X188495714Y-86393619D01*
X188457619Y-86317428D01*
X188419523Y-86165047D01*
X188419523Y-86050761D01*
X188457619Y-85898380D01*
X188495714Y-85822190D01*
X188571904Y-85746000D01*
X188686190Y-85707904D01*
X188762380Y-85707904D01*
X188876666Y-85746000D01*
X188914761Y-85784095D01*
X189638571Y-86507904D02*
X189257619Y-86507904D01*
X189257619Y-85707904D01*
X187638571Y-89045809D02*
X187752857Y-89083904D01*
X187943333Y-89083904D01*
X188019523Y-89045809D01*
X188057619Y-89007714D01*
X188095714Y-88931523D01*
X188095714Y-88855333D01*
X188057619Y-88779142D01*
X188019523Y-88741047D01*
X187943333Y-88702952D01*
X187790952Y-88664857D01*
X187714761Y-88626761D01*
X187676666Y-88588666D01*
X187638571Y-88512476D01*
X187638571Y-88436285D01*
X187676666Y-88360095D01*
X187714761Y-88322000D01*
X187790952Y-88283904D01*
X187981428Y-88283904D01*
X188095714Y-88322000D01*
X188438571Y-89083904D02*
X188438571Y-88283904D01*
X188629047Y-88283904D01*
X188743333Y-88322000D01*
X188819523Y-88398190D01*
X188857619Y-88474380D01*
X188895714Y-88626761D01*
X188895714Y-88741047D01*
X188857619Y-88893428D01*
X188819523Y-88969619D01*
X188743333Y-89045809D01*
X188629047Y-89083904D01*
X188438571Y-89083904D01*
X189200476Y-88855333D02*
X189581428Y-88855333D01*
X189124285Y-89083904D02*
X189390952Y-88283904D01*
X189657619Y-89083904D01*
X187608571Y-69843809D02*
X187722857Y-69881904D01*
X187913333Y-69881904D01*
X187989523Y-69843809D01*
X188027619Y-69805714D01*
X188065714Y-69729523D01*
X188065714Y-69653333D01*
X188027619Y-69577142D01*
X187989523Y-69539047D01*
X187913333Y-69500952D01*
X187760952Y-69462857D01*
X187684761Y-69424761D01*
X187646666Y-69386666D01*
X187608571Y-69310476D01*
X187608571Y-69234285D01*
X187646666Y-69158095D01*
X187684761Y-69120000D01*
X187760952Y-69081904D01*
X187951428Y-69081904D01*
X188065714Y-69120000D01*
X188408571Y-69881904D02*
X188408571Y-69081904D01*
X188599047Y-69081904D01*
X188713333Y-69120000D01*
X188789523Y-69196190D01*
X188827619Y-69272380D01*
X188865714Y-69424761D01*
X188865714Y-69539047D01*
X188827619Y-69691428D01*
X188789523Y-69767619D01*
X188713333Y-69843809D01*
X188599047Y-69881904D01*
X188408571Y-69881904D01*
X189170476Y-69653333D02*
X189551428Y-69653333D01*
X189094285Y-69881904D02*
X189360952Y-69081904D01*
X189627619Y-69881904D01*
X188280476Y-62024000D02*
X188204285Y-61985904D01*
X188090000Y-61985904D01*
X187975714Y-62024000D01*
X187899523Y-62100190D01*
X187861428Y-62176380D01*
X187823333Y-62328761D01*
X187823333Y-62443047D01*
X187861428Y-62595428D01*
X187899523Y-62671619D01*
X187975714Y-62747809D01*
X188090000Y-62785904D01*
X188166190Y-62785904D01*
X188280476Y-62747809D01*
X188318571Y-62709714D01*
X188318571Y-62443047D01*
X188166190Y-62443047D01*
X188661428Y-62785904D02*
X188661428Y-61985904D01*
X189118571Y-62785904D01*
X189118571Y-61985904D01*
X189499523Y-62785904D02*
X189499523Y-61985904D01*
X189690000Y-61985904D01*
X189804285Y-62024000D01*
X189880476Y-62100190D01*
X189918571Y-62176380D01*
X189956666Y-62328761D01*
X189956666Y-62443047D01*
X189918571Y-62595428D01*
X189880476Y-62671619D01*
X189804285Y-62747809D01*
X189690000Y-62785904D01*
X189499523Y-62785904D01*
X187709047Y-64561904D02*
X188204285Y-64561904D01*
X187937619Y-64866666D01*
X188051904Y-64866666D01*
X188128095Y-64904761D01*
X188166190Y-64942857D01*
X188204285Y-65019047D01*
X188204285Y-65209523D01*
X188166190Y-65285714D01*
X188128095Y-65323809D01*
X188051904Y-65361904D01*
X187823333Y-65361904D01*
X187747142Y-65323809D01*
X187709047Y-65285714D01*
X188547142Y-65285714D02*
X188585238Y-65323809D01*
X188547142Y-65361904D01*
X188509047Y-65323809D01*
X188547142Y-65285714D01*
X188547142Y-65361904D01*
X188851904Y-64561904D02*
X189347142Y-64561904D01*
X189080476Y-64866666D01*
X189194761Y-64866666D01*
X189270952Y-64904761D01*
X189309047Y-64942857D01*
X189347142Y-65019047D01*
X189347142Y-65209523D01*
X189309047Y-65285714D01*
X189270952Y-65323809D01*
X189194761Y-65361904D01*
X188966190Y-65361904D01*
X188890000Y-65323809D01*
X188851904Y-65285714D01*
X189575714Y-64561904D02*
X189842380Y-65361904D01*
X190109047Y-64561904D01*
X187937619Y-67899809D02*
X188051904Y-67937904D01*
X188242380Y-67937904D01*
X188318571Y-67899809D01*
X188356666Y-67861714D01*
X188394761Y-67785523D01*
X188394761Y-67709333D01*
X188356666Y-67633142D01*
X188318571Y-67595047D01*
X188242380Y-67556952D01*
X188090000Y-67518857D01*
X188013809Y-67480761D01*
X187975714Y-67442666D01*
X187937619Y-67366476D01*
X187937619Y-67290285D01*
X187975714Y-67214095D01*
X188013809Y-67176000D01*
X188090000Y-67137904D01*
X188280476Y-67137904D01*
X188394761Y-67176000D01*
X189194761Y-67861714D02*
X189156666Y-67899809D01*
X189042380Y-67937904D01*
X188966190Y-67937904D01*
X188851904Y-67899809D01*
X188775714Y-67823619D01*
X188737619Y-67747428D01*
X188699523Y-67595047D01*
X188699523Y-67480761D01*
X188737619Y-67328380D01*
X188775714Y-67252190D01*
X188851904Y-67176000D01*
X188966190Y-67137904D01*
X189042380Y-67137904D01*
X189156666Y-67176000D01*
X189194761Y-67214095D01*
X189918571Y-67937904D02*
X189537619Y-67937904D01*
X189537619Y-67137904D01*
X185066666Y-76172380D02*
X185066666Y-75172380D01*
X185495238Y-75267619D02*
X185542857Y-75220000D01*
X185638095Y-75172380D01*
X185876190Y-75172380D01*
X185971428Y-75220000D01*
X186019047Y-75267619D01*
X186066666Y-75362857D01*
X186066666Y-75458095D01*
X186019047Y-75600952D01*
X185447619Y-76172380D01*
X186066666Y-76172380D01*
X187066666Y-76077142D02*
X187019047Y-76124761D01*
X186876190Y-76172380D01*
X186780952Y-76172380D01*
X186638095Y-76124761D01*
X186542857Y-76029523D01*
X186495238Y-75934285D01*
X186447619Y-75743809D01*
X186447619Y-75600952D01*
X186495238Y-75410476D01*
X186542857Y-75315238D01*
X186638095Y-75220000D01*
X186780952Y-75172380D01*
X186876190Y-75172380D01*
X187019047Y-75220000D01*
X187066666Y-75267619D01*
X188780952Y-76172380D02*
X188209523Y-76172380D01*
X188495238Y-76172380D02*
X188495238Y-75172380D01*
X188400000Y-75315238D01*
X188304761Y-75410476D01*
X188209523Y-75458095D01*
X195266666Y-65552380D02*
X195266666Y-64552380D01*
X195695238Y-64647619D02*
X195742857Y-64600000D01*
X195838095Y-64552380D01*
X196076190Y-64552380D01*
X196171428Y-64600000D01*
X196219047Y-64647619D01*
X196266666Y-64742857D01*
X196266666Y-64838095D01*
X196219047Y-64980952D01*
X195647619Y-65552380D01*
X196266666Y-65552380D01*
X197266666Y-65457142D02*
X197219047Y-65504761D01*
X197076190Y-65552380D01*
X196980952Y-65552380D01*
X196838095Y-65504761D01*
X196742857Y-65409523D01*
X196695238Y-65314285D01*
X196647619Y-65123809D01*
X196647619Y-64980952D01*
X196695238Y-64790476D01*
X196742857Y-64695238D01*
X196838095Y-64600000D01*
X196980952Y-64552380D01*
X197076190Y-64552380D01*
X197219047Y-64600000D01*
X197266666Y-64647619D01*
X198647619Y-64552380D02*
X198742857Y-64552380D01*
X198838095Y-64600000D01*
X198885714Y-64647619D01*
X198933333Y-64742857D01*
X198980952Y-64933333D01*
X198980952Y-65171428D01*
X198933333Y-65361904D01*
X198885714Y-65457142D01*
X198838095Y-65504761D01*
X198742857Y-65552380D01*
X198647619Y-65552380D01*
X198552380Y-65504761D01*
X198504761Y-65457142D01*
X198457142Y-65361904D01*
X198409523Y-65171428D01*
X198409523Y-64933333D01*
X198457142Y-64742857D01*
X198504761Y-64647619D01*
X198552380Y-64600000D01*
X198647619Y-64552380D01*
D12*
X113895714Y-70678571D02*
X113895714Y-69178571D01*
X114252857Y-69178571D01*
X114467142Y-69250000D01*
X114610000Y-69392857D01*
X114681428Y-69535714D01*
X114752857Y-69821428D01*
X114752857Y-70035714D01*
X114681428Y-70321428D01*
X114610000Y-70464285D01*
X114467142Y-70607142D01*
X114252857Y-70678571D01*
X113895714Y-70678571D01*
X115395714Y-69892857D02*
X115895714Y-69892857D01*
X116110000Y-70678571D02*
X115395714Y-70678571D01*
X115395714Y-69178571D01*
X116110000Y-69178571D01*
X116681428Y-70607142D02*
X116895714Y-70678571D01*
X117252857Y-70678571D01*
X117395714Y-70607142D01*
X117467142Y-70535714D01*
X117538571Y-70392857D01*
X117538571Y-70250000D01*
X117467142Y-70107142D01*
X117395714Y-70035714D01*
X117252857Y-69964285D01*
X116967142Y-69892857D01*
X116824285Y-69821428D01*
X116752857Y-69750000D01*
X116681428Y-69607142D01*
X116681428Y-69464285D01*
X116752857Y-69321428D01*
X116824285Y-69250000D01*
X116967142Y-69178571D01*
X117324285Y-69178571D01*
X117538571Y-69250000D01*
X118181428Y-70678571D02*
X118181428Y-69178571D01*
X119681428Y-69250000D02*
X119538571Y-69178571D01*
X119324285Y-69178571D01*
X119110000Y-69250000D01*
X118967142Y-69392857D01*
X118895714Y-69535714D01*
X118824285Y-69821428D01*
X118824285Y-70035714D01*
X118895714Y-70321428D01*
X118967142Y-70464285D01*
X119110000Y-70607142D01*
X119324285Y-70678571D01*
X119467142Y-70678571D01*
X119681428Y-70607142D01*
X119752857Y-70535714D01*
X119752857Y-70035714D01*
X119467142Y-70035714D01*
X120395714Y-70678571D02*
X120395714Y-69178571D01*
X121252857Y-70678571D01*
X121252857Y-69178571D01*
X121967142Y-69892857D02*
X122467142Y-69892857D01*
X122681428Y-70678571D02*
X121967142Y-70678571D01*
X121967142Y-69178571D01*
X122681428Y-69178571D01*
X123324285Y-70678571D02*
X123324285Y-69178571D01*
X123681428Y-69178571D01*
X123895714Y-69250000D01*
X124038571Y-69392857D01*
X124110000Y-69535714D01*
X124181428Y-69821428D01*
X124181428Y-70035714D01*
X124110000Y-70321428D01*
X124038571Y-70464285D01*
X123895714Y-70607142D01*
X123681428Y-70678571D01*
X123324285Y-70678571D01*
X126467142Y-69892857D02*
X125967142Y-69892857D01*
X125967142Y-70678571D02*
X125967142Y-69178571D01*
X126681428Y-69178571D01*
X127538571Y-69178571D02*
X127824285Y-69178571D01*
X127967142Y-69250000D01*
X128110000Y-69392857D01*
X128181428Y-69678571D01*
X128181428Y-70178571D01*
X128110000Y-70464285D01*
X127967142Y-70607142D01*
X127824285Y-70678571D01*
X127538571Y-70678571D01*
X127395714Y-70607142D01*
X127252857Y-70464285D01*
X127181428Y-70178571D01*
X127181428Y-69678571D01*
X127252857Y-69392857D01*
X127395714Y-69250000D01*
X127538571Y-69178571D01*
X129681428Y-70678571D02*
X129181428Y-69964285D01*
X128824285Y-70678571D02*
X128824285Y-69178571D01*
X129395714Y-69178571D01*
X129538571Y-69250000D01*
X129610000Y-69321428D01*
X129681428Y-69464285D01*
X129681428Y-69678571D01*
X129610000Y-69821428D01*
X129538571Y-69892857D01*
X129395714Y-69964285D01*
X128824285Y-69964285D01*
X131467142Y-70678571D02*
X131467142Y-69178571D01*
X131967142Y-70250000D01*
X132467142Y-69178571D01*
X132467142Y-70678571D01*
X133110000Y-70607142D02*
X133324285Y-70678571D01*
X133681428Y-70678571D01*
X133824285Y-70607142D01*
X133895714Y-70535714D01*
X133967142Y-70392857D01*
X133967142Y-70250000D01*
X133895714Y-70107142D01*
X133824285Y-70035714D01*
X133681428Y-69964285D01*
X133395714Y-69892857D01*
X133252857Y-69821428D01*
X133181428Y-69750000D01*
X133110000Y-69607142D01*
X133110000Y-69464285D01*
X133181428Y-69321428D01*
X133252857Y-69250000D01*
X133395714Y-69178571D01*
X133752857Y-69178571D01*
X133967142Y-69250000D01*
X134610000Y-70678571D02*
X134610000Y-69178571D01*
X135181428Y-69178571D01*
X135324285Y-69250000D01*
X135395714Y-69321428D01*
X135467142Y-69464285D01*
X135467142Y-69678571D01*
X135395714Y-69821428D01*
X135324285Y-69892857D01*
X135181428Y-69964285D01*
X134610000Y-69964285D01*
X136752857Y-69678571D02*
X136752857Y-70678571D01*
X136395714Y-69107142D02*
X136038571Y-70178571D01*
X136967142Y-70178571D01*
X137395714Y-69178571D02*
X138324285Y-69178571D01*
X137824285Y-69750000D01*
X138038571Y-69750000D01*
X138181428Y-69821428D01*
X138252857Y-69892857D01*
X138324285Y-70035714D01*
X138324285Y-70392857D01*
X138252857Y-70535714D01*
X138181428Y-70607142D01*
X138038571Y-70678571D01*
X137610000Y-70678571D01*
X137467142Y-70607142D01*
X137395714Y-70535714D01*
X139252857Y-69178571D02*
X139395714Y-69178571D01*
X139538571Y-69250000D01*
X139610000Y-69321428D01*
X139681428Y-69464285D01*
X139752857Y-69750000D01*
X139752857Y-70107142D01*
X139681428Y-70392857D01*
X139610000Y-70535714D01*
X139538571Y-70607142D01*
X139395714Y-70678571D01*
X139252857Y-70678571D01*
X139110000Y-70607142D01*
X139038571Y-70535714D01*
X138967142Y-70392857D01*
X138895714Y-70107142D01*
X138895714Y-69750000D01*
X138967142Y-69464285D01*
X139038571Y-69321428D01*
X139110000Y-69250000D01*
X139252857Y-69178571D01*
X140895714Y-69892857D02*
X140395714Y-69892857D01*
X140395714Y-70678571D02*
X140395714Y-69178571D01*
X141110000Y-69178571D01*
X142538571Y-70678571D02*
X142038571Y-69964285D01*
X141681428Y-70678571D02*
X141681428Y-69178571D01*
X142252857Y-69178571D01*
X142395714Y-69250000D01*
X142467142Y-69321428D01*
X142538571Y-69464285D01*
X142538571Y-69678571D01*
X142467142Y-69821428D01*
X142395714Y-69892857D01*
X142252857Y-69964285D01*
X141681428Y-69964285D01*
X143110000Y-69321428D02*
X143181428Y-69250000D01*
X143324285Y-69178571D01*
X143681428Y-69178571D01*
X143824285Y-69250000D01*
X143895714Y-69321428D01*
X143967142Y-69464285D01*
X143967142Y-69607142D01*
X143895714Y-69821428D01*
X143038571Y-70678571D01*
X143967142Y-70678571D01*
X144467142Y-69178571D02*
X145395714Y-69178571D01*
X144895714Y-69750000D01*
X145110000Y-69750000D01*
X145252857Y-69821428D01*
X145324285Y-69892857D01*
X145395714Y-70035714D01*
X145395714Y-70392857D01*
X145324285Y-70535714D01*
X145252857Y-70607142D01*
X145110000Y-70678571D01*
X144681428Y-70678571D01*
X144538571Y-70607142D01*
X144467142Y-70535714D01*
X146752857Y-69178571D02*
X146038571Y-69178571D01*
X145967142Y-69892857D01*
X146038571Y-69821428D01*
X146181428Y-69750000D01*
X146538571Y-69750000D01*
X146681428Y-69821428D01*
X146752857Y-69892857D01*
X146824285Y-70035714D01*
X146824285Y-70392857D01*
X146752857Y-70535714D01*
X146681428Y-70607142D01*
X146538571Y-70678571D01*
X146181428Y-70678571D01*
X146038571Y-70607142D01*
X145967142Y-70535714D01*
X148181428Y-69178571D02*
X147467142Y-69178571D01*
X147395714Y-69892857D01*
X147467142Y-69821428D01*
X147610000Y-69750000D01*
X147967142Y-69750000D01*
X148110000Y-69821428D01*
X148181428Y-69892857D01*
X148252857Y-70035714D01*
X148252857Y-70392857D01*
X148181428Y-70535714D01*
X148110000Y-70607142D01*
X147967142Y-70678571D01*
X147610000Y-70678571D01*
X147467142Y-70607142D01*
X147395714Y-70535714D01*
X150752857Y-70678571D02*
X150038571Y-70678571D01*
X150038571Y-69178571D01*
X151181428Y-70250000D02*
X151895714Y-70250000D01*
X151038571Y-70678571D02*
X151538571Y-69178571D01*
X152038571Y-70678571D01*
X152538571Y-69178571D02*
X152538571Y-70392857D01*
X152610000Y-70535714D01*
X152681428Y-70607142D01*
X152824285Y-70678571D01*
X153110000Y-70678571D01*
X153252857Y-70607142D01*
X153324285Y-70535714D01*
X153395714Y-70392857D01*
X153395714Y-69178571D01*
X154110000Y-70678571D02*
X154110000Y-69178571D01*
X154967142Y-70678571D01*
X154967142Y-69178571D01*
X156538571Y-70535714D02*
X156467142Y-70607142D01*
X156252857Y-70678571D01*
X156110000Y-70678571D01*
X155895714Y-70607142D01*
X155752857Y-70464285D01*
X155681428Y-70321428D01*
X155610000Y-70035714D01*
X155610000Y-69821428D01*
X155681428Y-69535714D01*
X155752857Y-69392857D01*
X155895714Y-69250000D01*
X156110000Y-69178571D01*
X156252857Y-69178571D01*
X156467142Y-69250000D01*
X156538571Y-69321428D01*
X157181428Y-70678571D02*
X157181428Y-69178571D01*
X157181428Y-69892857D02*
X158038571Y-69892857D01*
X158038571Y-70678571D02*
X158038571Y-69178571D01*
X158752857Y-70678571D02*
X158752857Y-69178571D01*
X159324285Y-69178571D01*
X159467142Y-69250000D01*
X159538571Y-69321428D01*
X159610000Y-69464285D01*
X159610000Y-69678571D01*
X159538571Y-69821428D01*
X159467142Y-69892857D01*
X159324285Y-69964285D01*
X158752857Y-69964285D01*
X160181428Y-70250000D02*
X160895714Y-70250000D01*
X160038571Y-70678571D02*
X160538571Y-69178571D01*
X161038571Y-70678571D01*
X161538571Y-70678571D02*
X161538571Y-69178571D01*
X161895714Y-69178571D01*
X162110000Y-69250000D01*
X162252857Y-69392857D01*
X162324285Y-69535714D01*
X162395714Y-69821428D01*
X162395714Y-70035714D01*
X162324285Y-70321428D01*
X162252857Y-70464285D01*
X162110000Y-70607142D01*
X161895714Y-70678571D01*
X161538571Y-70678571D01*
X124701428Y-62865000D02*
X125415714Y-62865000D01*
X124558571Y-63293571D02*
X125058571Y-61793571D01*
X125558571Y-63293571D01*
X126058571Y-63293571D02*
X126058571Y-61793571D01*
X127630000Y-63293571D02*
X127130000Y-62579285D01*
X126772857Y-63293571D02*
X126772857Y-61793571D01*
X127344285Y-61793571D01*
X127487142Y-61865000D01*
X127558571Y-61936428D01*
X127630000Y-62079285D01*
X127630000Y-62293571D01*
X127558571Y-62436428D01*
X127487142Y-62507857D01*
X127344285Y-62579285D01*
X126772857Y-62579285D01*
X130415714Y-63436428D02*
X130272857Y-63365000D01*
X130130000Y-63222142D01*
X129915714Y-63007857D01*
X129772857Y-62936428D01*
X129630000Y-62936428D01*
X129701428Y-63293571D02*
X129558571Y-63222142D01*
X129415714Y-63079285D01*
X129344285Y-62793571D01*
X129344285Y-62293571D01*
X129415714Y-62007857D01*
X129558571Y-61865000D01*
X129701428Y-61793571D01*
X129987142Y-61793571D01*
X130130000Y-61865000D01*
X130272857Y-62007857D01*
X130344285Y-62293571D01*
X130344285Y-62793571D01*
X130272857Y-63079285D01*
X130130000Y-63222142D01*
X129987142Y-63293571D01*
X129701428Y-63293571D01*
X130987142Y-61793571D02*
X130987142Y-63007857D01*
X131058571Y-63150714D01*
X131130000Y-63222142D01*
X131272857Y-63293571D01*
X131558571Y-63293571D01*
X131701428Y-63222142D01*
X131772857Y-63150714D01*
X131844285Y-63007857D01*
X131844285Y-61793571D01*
X132487142Y-62865000D02*
X133201428Y-62865000D01*
X132344285Y-63293571D02*
X132844285Y-61793571D01*
X133344285Y-63293571D01*
X134558571Y-63293571D02*
X133844285Y-63293571D01*
X133844285Y-61793571D01*
X135058571Y-63293571D02*
X135058571Y-61793571D01*
X135558571Y-61793571D02*
X136415714Y-61793571D01*
X135987142Y-63293571D02*
X135987142Y-61793571D01*
X137201428Y-62579285D02*
X137201428Y-63293571D01*
X136701428Y-61793571D02*
X137201428Y-62579285D01*
X137701428Y-61793571D01*
X140201428Y-63150714D02*
X140130000Y-63222142D01*
X139915714Y-63293571D01*
X139772857Y-63293571D01*
X139558571Y-63222142D01*
X139415714Y-63079285D01*
X139344285Y-62936428D01*
X139272857Y-62650714D01*
X139272857Y-62436428D01*
X139344285Y-62150714D01*
X139415714Y-62007857D01*
X139558571Y-61865000D01*
X139772857Y-61793571D01*
X139915714Y-61793571D01*
X140130000Y-61865000D01*
X140201428Y-61936428D01*
X140772857Y-62865000D02*
X141487142Y-62865000D01*
X140630000Y-63293571D02*
X141130000Y-61793571D01*
X141630000Y-63293571D01*
X142130000Y-63293571D02*
X142130000Y-61793571D01*
X142701428Y-61793571D01*
X142844285Y-61865000D01*
X142915714Y-61936428D01*
X142987142Y-62079285D01*
X142987142Y-62293571D01*
X142915714Y-62436428D01*
X142844285Y-62507857D01*
X142701428Y-62579285D01*
X142130000Y-62579285D01*
X143558571Y-63222142D02*
X143772857Y-63293571D01*
X144130000Y-63293571D01*
X144272857Y-63222142D01*
X144344285Y-63150714D01*
X144415714Y-63007857D01*
X144415714Y-62865000D01*
X144344285Y-62722142D01*
X144272857Y-62650714D01*
X144130000Y-62579285D01*
X143844285Y-62507857D01*
X143701428Y-62436428D01*
X143630000Y-62365000D01*
X143558571Y-62222142D01*
X143558571Y-62079285D01*
X143630000Y-61936428D01*
X143701428Y-61865000D01*
X143844285Y-61793571D01*
X144201428Y-61793571D01*
X144415714Y-61865000D01*
X144844285Y-61793571D02*
X145701428Y-61793571D01*
X145272857Y-63293571D02*
X145272857Y-61793571D01*
X146487142Y-61793571D02*
X146772857Y-61793571D01*
X146915714Y-61865000D01*
X147058571Y-62007857D01*
X147130000Y-62293571D01*
X147130000Y-62793571D01*
X147058571Y-63079285D01*
X146915714Y-63222142D01*
X146772857Y-63293571D01*
X146487142Y-63293571D01*
X146344285Y-63222142D01*
X146201428Y-63079285D01*
X146130000Y-62793571D01*
X146130000Y-62293571D01*
X146201428Y-62007857D01*
X146344285Y-61865000D01*
X146487142Y-61793571D01*
X147772857Y-63293571D02*
X147772857Y-61793571D01*
X148630000Y-63293571D01*
X148630000Y-61793571D01*
X149344285Y-62507857D02*
X149844285Y-62507857D01*
X150058571Y-63293571D02*
X149344285Y-63293571D01*
X149344285Y-61793571D01*
X150058571Y-61793571D01*
X128308571Y-64922857D02*
X128808571Y-64922857D01*
X129022857Y-65708571D02*
X128308571Y-65708571D01*
X128308571Y-64208571D01*
X129022857Y-64208571D01*
X130522857Y-65565714D02*
X130451428Y-65637142D01*
X130237142Y-65708571D01*
X130094285Y-65708571D01*
X129880000Y-65637142D01*
X129737142Y-65494285D01*
X129665714Y-65351428D01*
X129594285Y-65065714D01*
X129594285Y-64851428D01*
X129665714Y-64565714D01*
X129737142Y-64422857D01*
X129880000Y-64280000D01*
X130094285Y-64208571D01*
X130237142Y-64208571D01*
X130451428Y-64280000D01*
X130522857Y-64351428D01*
X131165714Y-64922857D02*
X131665714Y-64922857D01*
X131880000Y-65708571D02*
X131165714Y-65708571D01*
X131165714Y-64208571D01*
X131880000Y-64208571D01*
X134308571Y-64708571D02*
X134308571Y-65708571D01*
X133951428Y-64137142D02*
X133594285Y-65208571D01*
X134522857Y-65208571D01*
X135022857Y-64351428D02*
X135094285Y-64280000D01*
X135237142Y-64208571D01*
X135594285Y-64208571D01*
X135737142Y-64280000D01*
X135808571Y-64351428D01*
X135880000Y-64494285D01*
X135880000Y-64637142D01*
X135808571Y-64851428D01*
X134951428Y-65708571D01*
X135880000Y-65708571D01*
X137165714Y-64708571D02*
X137165714Y-65708571D01*
X136808571Y-64137142D02*
X136451428Y-65208571D01*
X137380000Y-65208571D01*
X138880000Y-64208571D02*
X139737142Y-64208571D01*
X139308571Y-65708571D02*
X139308571Y-64208571D01*
X140237142Y-64922857D02*
X140737142Y-64922857D01*
X140951428Y-65708571D02*
X140237142Y-65708571D01*
X140237142Y-64208571D01*
X140951428Y-64208571D01*
X141522857Y-65280000D02*
X142237142Y-65280000D01*
X141380000Y-65708571D02*
X141880000Y-64208571D01*
X142380000Y-65708571D01*
X142880000Y-65708571D02*
X142880000Y-64208571D01*
X143380000Y-65280000D01*
X143880000Y-64208571D01*
X143880000Y-65708571D01*
X146522857Y-65708571D02*
X145665714Y-65708571D01*
X146094285Y-65708571D02*
X146094285Y-64208571D01*
X145951428Y-64422857D01*
X145808571Y-64565714D01*
X145665714Y-64637142D01*
X135237142Y-68123571D02*
X134737142Y-67409285D01*
X134380000Y-68123571D02*
X134380000Y-66623571D01*
X134951428Y-66623571D01*
X135094285Y-66695000D01*
X135165714Y-66766428D01*
X135237142Y-66909285D01*
X135237142Y-67123571D01*
X135165714Y-67266428D01*
X135094285Y-67337857D01*
X134951428Y-67409285D01*
X134380000Y-67409285D01*
X135880000Y-67337857D02*
X136380000Y-67337857D01*
X136594285Y-68123571D02*
X135880000Y-68123571D01*
X135880000Y-66623571D01*
X136594285Y-66623571D01*
X137022857Y-66623571D02*
X137522857Y-68123571D01*
X138022857Y-66623571D01*
X140451428Y-68123571D02*
X139594285Y-68123571D01*
X140022857Y-68123571D02*
X140022857Y-66623571D01*
X139880000Y-66837857D01*
X139737142Y-66980714D01*
X139594285Y-67052142D01*
D10*
%TO.C,J1*%
X113826666Y-121142380D02*
X113826666Y-121856666D01*
X113779047Y-121999523D01*
X113683809Y-122094761D01*
X113540952Y-122142380D01*
X113445714Y-122142380D01*
X114826666Y-122142380D02*
X114255238Y-122142380D01*
X114540952Y-122142380D02*
X114540952Y-121142380D01*
X114445714Y-121285238D01*
X114350476Y-121380476D01*
X114255238Y-121428095D01*
%TO.C,R5*%
X177453333Y-140582380D02*
X177120000Y-140106190D01*
X176881904Y-140582380D02*
X176881904Y-139582380D01*
X177262857Y-139582380D01*
X177358095Y-139630000D01*
X177405714Y-139677619D01*
X177453333Y-139772857D01*
X177453333Y-139915714D01*
X177405714Y-140010952D01*
X177358095Y-140058571D01*
X177262857Y-140106190D01*
X176881904Y-140106190D01*
X178358095Y-139582380D02*
X177881904Y-139582380D01*
X177834285Y-140058571D01*
X177881904Y-140010952D01*
X177977142Y-139963333D01*
X178215238Y-139963333D01*
X178310476Y-140010952D01*
X178358095Y-140058571D01*
X178405714Y-140153809D01*
X178405714Y-140391904D01*
X178358095Y-140487142D01*
X178310476Y-140534761D01*
X178215238Y-140582380D01*
X177977142Y-140582380D01*
X177881904Y-140534761D01*
X177834285Y-140487142D01*
%TO.C,R12*%
X178397142Y-107332380D02*
X178063809Y-106856190D01*
X177825714Y-107332380D02*
X177825714Y-106332380D01*
X178206666Y-106332380D01*
X178301904Y-106380000D01*
X178349523Y-106427619D01*
X178397142Y-106522857D01*
X178397142Y-106665714D01*
X178349523Y-106760952D01*
X178301904Y-106808571D01*
X178206666Y-106856190D01*
X177825714Y-106856190D01*
X179349523Y-107332380D02*
X178778095Y-107332380D01*
X179063809Y-107332380D02*
X179063809Y-106332380D01*
X178968571Y-106475238D01*
X178873333Y-106570476D01*
X178778095Y-106618095D01*
X179730476Y-106427619D02*
X179778095Y-106380000D01*
X179873333Y-106332380D01*
X180111428Y-106332380D01*
X180206666Y-106380000D01*
X180254285Y-106427619D01*
X180301904Y-106522857D01*
X180301904Y-106618095D01*
X180254285Y-106760952D01*
X179682857Y-107332380D01*
X180301904Y-107332380D01*
%TO.C,Q5*%
X182074761Y-62677619D02*
X181979523Y-62630000D01*
X181884285Y-62534761D01*
X181741428Y-62391904D01*
X181646190Y-62344285D01*
X181550952Y-62344285D01*
X181598571Y-62582380D02*
X181503333Y-62534761D01*
X181408095Y-62439523D01*
X181360476Y-62249047D01*
X181360476Y-61915714D01*
X181408095Y-61725238D01*
X181503333Y-61630000D01*
X181598571Y-61582380D01*
X181789047Y-61582380D01*
X181884285Y-61630000D01*
X181979523Y-61725238D01*
X182027142Y-61915714D01*
X182027142Y-62249047D01*
X181979523Y-62439523D01*
X181884285Y-62534761D01*
X181789047Y-62582380D01*
X181598571Y-62582380D01*
X182931904Y-61582380D02*
X182455714Y-61582380D01*
X182408095Y-62058571D01*
X182455714Y-62010952D01*
X182550952Y-61963333D01*
X182789047Y-61963333D01*
X182884285Y-62010952D01*
X182931904Y-62058571D01*
X182979523Y-62153809D01*
X182979523Y-62391904D01*
X182931904Y-62487142D01*
X182884285Y-62534761D01*
X182789047Y-62582380D01*
X182550952Y-62582380D01*
X182455714Y-62534761D01*
X182408095Y-62487142D01*
%TO.C,R3*%
X181483333Y-128102380D02*
X181150000Y-127626190D01*
X180911904Y-128102380D02*
X180911904Y-127102380D01*
X181292857Y-127102380D01*
X181388095Y-127150000D01*
X181435714Y-127197619D01*
X181483333Y-127292857D01*
X181483333Y-127435714D01*
X181435714Y-127530952D01*
X181388095Y-127578571D01*
X181292857Y-127626190D01*
X180911904Y-127626190D01*
X181816666Y-127102380D02*
X182435714Y-127102380D01*
X182102380Y-127483333D01*
X182245238Y-127483333D01*
X182340476Y-127530952D01*
X182388095Y-127578571D01*
X182435714Y-127673809D01*
X182435714Y-127911904D01*
X182388095Y-128007142D01*
X182340476Y-128054761D01*
X182245238Y-128102380D01*
X181959523Y-128102380D01*
X181864285Y-128054761D01*
X181816666Y-128007142D01*
%TO.C,Q2*%
X180724761Y-133597619D02*
X180629523Y-133550000D01*
X180534285Y-133454761D01*
X180391428Y-133311904D01*
X180296190Y-133264285D01*
X180200952Y-133264285D01*
X180248571Y-133502380D02*
X180153333Y-133454761D01*
X180058095Y-133359523D01*
X180010476Y-133169047D01*
X180010476Y-132835714D01*
X180058095Y-132645238D01*
X180153333Y-132550000D01*
X180248571Y-132502380D01*
X180439047Y-132502380D01*
X180534285Y-132550000D01*
X180629523Y-132645238D01*
X180677142Y-132835714D01*
X180677142Y-133169047D01*
X180629523Y-133359523D01*
X180534285Y-133454761D01*
X180439047Y-133502380D01*
X180248571Y-133502380D01*
X181058095Y-132597619D02*
X181105714Y-132550000D01*
X181200952Y-132502380D01*
X181439047Y-132502380D01*
X181534285Y-132550000D01*
X181581904Y-132597619D01*
X181629523Y-132692857D01*
X181629523Y-132788095D01*
X181581904Y-132930952D01*
X181010476Y-133502380D01*
X181629523Y-133502380D01*
%TO.C,R6*%
X170283333Y-100322380D02*
X169950000Y-99846190D01*
X169711904Y-100322380D02*
X169711904Y-99322380D01*
X170092857Y-99322380D01*
X170188095Y-99370000D01*
X170235714Y-99417619D01*
X170283333Y-99512857D01*
X170283333Y-99655714D01*
X170235714Y-99750952D01*
X170188095Y-99798571D01*
X170092857Y-99846190D01*
X169711904Y-99846190D01*
X171140476Y-99322380D02*
X170950000Y-99322380D01*
X170854761Y-99370000D01*
X170807142Y-99417619D01*
X170711904Y-99560476D01*
X170664285Y-99750952D01*
X170664285Y-100131904D01*
X170711904Y-100227142D01*
X170759523Y-100274761D01*
X170854761Y-100322380D01*
X171045238Y-100322380D01*
X171140476Y-100274761D01*
X171188095Y-100227142D01*
X171235714Y-100131904D01*
X171235714Y-99893809D01*
X171188095Y-99798571D01*
X171140476Y-99750952D01*
X171045238Y-99703333D01*
X170854761Y-99703333D01*
X170759523Y-99750952D01*
X170711904Y-99798571D01*
X170664285Y-99893809D01*
%TO.C,Q6*%
X183144761Y-81727619D02*
X183049523Y-81680000D01*
X182954285Y-81584761D01*
X182811428Y-81441904D01*
X182716190Y-81394285D01*
X182620952Y-81394285D01*
X182668571Y-81632380D02*
X182573333Y-81584761D01*
X182478095Y-81489523D01*
X182430476Y-81299047D01*
X182430476Y-80965714D01*
X182478095Y-80775238D01*
X182573333Y-80680000D01*
X182668571Y-80632380D01*
X182859047Y-80632380D01*
X182954285Y-80680000D01*
X183049523Y-80775238D01*
X183097142Y-80965714D01*
X183097142Y-81299047D01*
X183049523Y-81489523D01*
X182954285Y-81584761D01*
X182859047Y-81632380D01*
X182668571Y-81632380D01*
X183954285Y-80632380D02*
X183763809Y-80632380D01*
X183668571Y-80680000D01*
X183620952Y-80727619D01*
X183525714Y-80870476D01*
X183478095Y-81060952D01*
X183478095Y-81441904D01*
X183525714Y-81537142D01*
X183573333Y-81584761D01*
X183668571Y-81632380D01*
X183859047Y-81632380D01*
X183954285Y-81584761D01*
X184001904Y-81537142D01*
X184049523Y-81441904D01*
X184049523Y-81203809D01*
X184001904Y-81108571D01*
X183954285Y-81060952D01*
X183859047Y-81013333D01*
X183668571Y-81013333D01*
X183573333Y-81060952D01*
X183525714Y-81108571D01*
X183478095Y-81203809D01*
%TO.C,Q1*%
X181884761Y-119167619D02*
X181789523Y-119120000D01*
X181694285Y-119024761D01*
X181551428Y-118881904D01*
X181456190Y-118834285D01*
X181360952Y-118834285D01*
X181408571Y-119072380D02*
X181313333Y-119024761D01*
X181218095Y-118929523D01*
X181170476Y-118739047D01*
X181170476Y-118405714D01*
X181218095Y-118215238D01*
X181313333Y-118120000D01*
X181408571Y-118072380D01*
X181599047Y-118072380D01*
X181694285Y-118120000D01*
X181789523Y-118215238D01*
X181837142Y-118405714D01*
X181837142Y-118739047D01*
X181789523Y-118929523D01*
X181694285Y-119024761D01*
X181599047Y-119072380D01*
X181408571Y-119072380D01*
X182789523Y-119072380D02*
X182218095Y-119072380D01*
X182503809Y-119072380D02*
X182503809Y-118072380D01*
X182408571Y-118215238D01*
X182313333Y-118310476D01*
X182218095Y-118358095D01*
%TO.C,R11*%
X176027142Y-96052380D02*
X175693809Y-95576190D01*
X175455714Y-96052380D02*
X175455714Y-95052380D01*
X175836666Y-95052380D01*
X175931904Y-95100000D01*
X175979523Y-95147619D01*
X176027142Y-95242857D01*
X176027142Y-95385714D01*
X175979523Y-95480952D01*
X175931904Y-95528571D01*
X175836666Y-95576190D01*
X175455714Y-95576190D01*
X176979523Y-96052380D02*
X176408095Y-96052380D01*
X176693809Y-96052380D02*
X176693809Y-95052380D01*
X176598571Y-95195238D01*
X176503333Y-95290476D01*
X176408095Y-95338095D01*
X177931904Y-96052380D02*
X177360476Y-96052380D01*
X177646190Y-96052380D02*
X177646190Y-95052380D01*
X177550952Y-95195238D01*
X177455714Y-95290476D01*
X177360476Y-95338095D01*
%TO.C,Q7*%
X184084761Y-96727619D02*
X183989523Y-96680000D01*
X183894285Y-96584761D01*
X183751428Y-96441904D01*
X183656190Y-96394285D01*
X183560952Y-96394285D01*
X183608571Y-96632380D02*
X183513333Y-96584761D01*
X183418095Y-96489523D01*
X183370476Y-96299047D01*
X183370476Y-95965714D01*
X183418095Y-95775238D01*
X183513333Y-95680000D01*
X183608571Y-95632380D01*
X183799047Y-95632380D01*
X183894285Y-95680000D01*
X183989523Y-95775238D01*
X184037142Y-95965714D01*
X184037142Y-96299047D01*
X183989523Y-96489523D01*
X183894285Y-96584761D01*
X183799047Y-96632380D01*
X183608571Y-96632380D01*
X184370476Y-95632380D02*
X185037142Y-95632380D01*
X184608571Y-96632380D01*
%TO.C,Q3*%
X174734761Y-82177619D02*
X174639523Y-82130000D01*
X174544285Y-82034761D01*
X174401428Y-81891904D01*
X174306190Y-81844285D01*
X174210952Y-81844285D01*
X174258571Y-82082380D02*
X174163333Y-82034761D01*
X174068095Y-81939523D01*
X174020476Y-81749047D01*
X174020476Y-81415714D01*
X174068095Y-81225238D01*
X174163333Y-81130000D01*
X174258571Y-81082380D01*
X174449047Y-81082380D01*
X174544285Y-81130000D01*
X174639523Y-81225238D01*
X174687142Y-81415714D01*
X174687142Y-81749047D01*
X174639523Y-81939523D01*
X174544285Y-82034761D01*
X174449047Y-82082380D01*
X174258571Y-82082380D01*
X175020476Y-81082380D02*
X175639523Y-81082380D01*
X175306190Y-81463333D01*
X175449047Y-81463333D01*
X175544285Y-81510952D01*
X175591904Y-81558571D01*
X175639523Y-81653809D01*
X175639523Y-81891904D01*
X175591904Y-81987142D01*
X175544285Y-82034761D01*
X175449047Y-82082380D01*
X175163333Y-82082380D01*
X175068095Y-82034761D01*
X175020476Y-81987142D01*
%TO.C,R9*%
X181483333Y-68432380D02*
X181150000Y-67956190D01*
X180911904Y-68432380D02*
X180911904Y-67432380D01*
X181292857Y-67432380D01*
X181388095Y-67480000D01*
X181435714Y-67527619D01*
X181483333Y-67622857D01*
X181483333Y-67765714D01*
X181435714Y-67860952D01*
X181388095Y-67908571D01*
X181292857Y-67956190D01*
X180911904Y-67956190D01*
X181959523Y-68432380D02*
X182150000Y-68432380D01*
X182245238Y-68384761D01*
X182292857Y-68337142D01*
X182388095Y-68194285D01*
X182435714Y-68003809D01*
X182435714Y-67622857D01*
X182388095Y-67527619D01*
X182340476Y-67480000D01*
X182245238Y-67432380D01*
X182054761Y-67432380D01*
X181959523Y-67480000D01*
X181911904Y-67527619D01*
X181864285Y-67622857D01*
X181864285Y-67860952D01*
X181911904Y-67956190D01*
X181959523Y-68003809D01*
X182054761Y-68051428D01*
X182245238Y-68051428D01*
X182340476Y-68003809D01*
X182388095Y-67956190D01*
X182435714Y-67860952D01*
%TO.C,R7*%
X177043333Y-62272380D02*
X176710000Y-61796190D01*
X176471904Y-62272380D02*
X176471904Y-61272380D01*
X176852857Y-61272380D01*
X176948095Y-61320000D01*
X176995714Y-61367619D01*
X177043333Y-61462857D01*
X177043333Y-61605714D01*
X176995714Y-61700952D01*
X176948095Y-61748571D01*
X176852857Y-61796190D01*
X176471904Y-61796190D01*
X177376666Y-61272380D02*
X178043333Y-61272380D01*
X177614761Y-62272380D01*
%TO.C,R10*%
X182587142Y-89602380D02*
X182253809Y-89126190D01*
X182015714Y-89602380D02*
X182015714Y-88602380D01*
X182396666Y-88602380D01*
X182491904Y-88650000D01*
X182539523Y-88697619D01*
X182587142Y-88792857D01*
X182587142Y-88935714D01*
X182539523Y-89030952D01*
X182491904Y-89078571D01*
X182396666Y-89126190D01*
X182015714Y-89126190D01*
X183539523Y-89602380D02*
X182968095Y-89602380D01*
X183253809Y-89602380D02*
X183253809Y-88602380D01*
X183158571Y-88745238D01*
X183063333Y-88840476D01*
X182968095Y-88888095D01*
X184158571Y-88602380D02*
X184253809Y-88602380D01*
X184349047Y-88650000D01*
X184396666Y-88697619D01*
X184444285Y-88792857D01*
X184491904Y-88983333D01*
X184491904Y-89221428D01*
X184444285Y-89411904D01*
X184396666Y-89507142D01*
X184349047Y-89554761D01*
X184253809Y-89602380D01*
X184158571Y-89602380D01*
X184063333Y-89554761D01*
X184015714Y-89507142D01*
X183968095Y-89411904D01*
X183920476Y-89221428D01*
X183920476Y-88983333D01*
X183968095Y-88792857D01*
X184015714Y-88697619D01*
X184063333Y-88650000D01*
X184158571Y-88602380D01*
%TO.C,R1*%
X174773333Y-118302380D02*
X174440000Y-117826190D01*
X174201904Y-118302380D02*
X174201904Y-117302380D01*
X174582857Y-117302380D01*
X174678095Y-117350000D01*
X174725714Y-117397619D01*
X174773333Y-117492857D01*
X174773333Y-117635714D01*
X174725714Y-117730952D01*
X174678095Y-117778571D01*
X174582857Y-117826190D01*
X174201904Y-117826190D01*
X175725714Y-118302380D02*
X175154285Y-118302380D01*
X175440000Y-118302380D02*
X175440000Y-117302380D01*
X175344761Y-117445238D01*
X175249523Y-117540476D01*
X175154285Y-117588095D01*
%TO.C,R8*%
X178883333Y-80372380D02*
X178550000Y-79896190D01*
X178311904Y-80372380D02*
X178311904Y-79372380D01*
X178692857Y-79372380D01*
X178788095Y-79420000D01*
X178835714Y-79467619D01*
X178883333Y-79562857D01*
X178883333Y-79705714D01*
X178835714Y-79800952D01*
X178788095Y-79848571D01*
X178692857Y-79896190D01*
X178311904Y-79896190D01*
X179454761Y-79800952D02*
X179359523Y-79753333D01*
X179311904Y-79705714D01*
X179264285Y-79610476D01*
X179264285Y-79562857D01*
X179311904Y-79467619D01*
X179359523Y-79420000D01*
X179454761Y-79372380D01*
X179645238Y-79372380D01*
X179740476Y-79420000D01*
X179788095Y-79467619D01*
X179835714Y-79562857D01*
X179835714Y-79610476D01*
X179788095Y-79705714D01*
X179740476Y-79753333D01*
X179645238Y-79800952D01*
X179454761Y-79800952D01*
X179359523Y-79848571D01*
X179311904Y-79896190D01*
X179264285Y-79991428D01*
X179264285Y-80181904D01*
X179311904Y-80277142D01*
X179359523Y-80324761D01*
X179454761Y-80372380D01*
X179645238Y-80372380D01*
X179740476Y-80324761D01*
X179788095Y-80277142D01*
X179835714Y-80181904D01*
X179835714Y-79991428D01*
X179788095Y-79896190D01*
X179740476Y-79848571D01*
X179645238Y-79800952D01*
%TO.C,R2*%
X174543333Y-132572380D02*
X174210000Y-132096190D01*
X173971904Y-132572380D02*
X173971904Y-131572380D01*
X174352857Y-131572380D01*
X174448095Y-131620000D01*
X174495714Y-131667619D01*
X174543333Y-131762857D01*
X174543333Y-131905714D01*
X174495714Y-132000952D01*
X174448095Y-132048571D01*
X174352857Y-132096190D01*
X173971904Y-132096190D01*
X174924285Y-131667619D02*
X174971904Y-131620000D01*
X175067142Y-131572380D01*
X175305238Y-131572380D01*
X175400476Y-131620000D01*
X175448095Y-131667619D01*
X175495714Y-131762857D01*
X175495714Y-131858095D01*
X175448095Y-132000952D01*
X174876666Y-132572380D01*
X175495714Y-132572380D01*
%TO.C,Q4*%
X174034761Y-100747619D02*
X173939523Y-100700000D01*
X173844285Y-100604761D01*
X173701428Y-100461904D01*
X173606190Y-100414285D01*
X173510952Y-100414285D01*
X173558571Y-100652380D02*
X173463333Y-100604761D01*
X173368095Y-100509523D01*
X173320476Y-100319047D01*
X173320476Y-99985714D01*
X173368095Y-99795238D01*
X173463333Y-99700000D01*
X173558571Y-99652380D01*
X173749047Y-99652380D01*
X173844285Y-99700000D01*
X173939523Y-99795238D01*
X173987142Y-99985714D01*
X173987142Y-100319047D01*
X173939523Y-100509523D01*
X173844285Y-100604761D01*
X173749047Y-100652380D01*
X173558571Y-100652380D01*
X174844285Y-99985714D02*
X174844285Y-100652380D01*
X174606190Y-99604761D02*
X174368095Y-100319047D01*
X174987142Y-100319047D01*
%TO.C,J6*%
X121097380Y-124913333D02*
X121811666Y-124913333D01*
X121954523Y-124960952D01*
X122049761Y-125056190D01*
X122097380Y-125199047D01*
X122097380Y-125294285D01*
X121097380Y-124008571D02*
X121097380Y-124199047D01*
X121145000Y-124294285D01*
X121192619Y-124341904D01*
X121335476Y-124437142D01*
X121525952Y-124484761D01*
X121906904Y-124484761D01*
X122002142Y-124437142D01*
X122049761Y-124389523D01*
X122097380Y-124294285D01*
X122097380Y-124103809D01*
X122049761Y-124008571D01*
X122002142Y-123960952D01*
X121906904Y-123913333D01*
X121668809Y-123913333D01*
X121573571Y-123960952D01*
X121525952Y-124008571D01*
X121478333Y-124103809D01*
X121478333Y-124294285D01*
X121525952Y-124389523D01*
X121573571Y-124437142D01*
X121668809Y-124484761D01*
%TO.C,R4*%
X168133333Y-83492380D02*
X167800000Y-83016190D01*
X167561904Y-83492380D02*
X167561904Y-82492380D01*
X167942857Y-82492380D01*
X168038095Y-82540000D01*
X168085714Y-82587619D01*
X168133333Y-82682857D01*
X168133333Y-82825714D01*
X168085714Y-82920952D01*
X168038095Y-82968571D01*
X167942857Y-83016190D01*
X167561904Y-83016190D01*
X168990476Y-82825714D02*
X168990476Y-83492380D01*
X168752380Y-82444761D02*
X168514285Y-83159047D01*
X169133333Y-83159047D01*
D13*
%TO.C,J1*%
X112830000Y-125730000D02*
X115490000Y-125730000D01*
X112830000Y-130870000D02*
X115490000Y-130870000D01*
X115490000Y-125730000D02*
X115490000Y-130870000D01*
X115490000Y-123130000D02*
X115490000Y-124460000D01*
X114160000Y-123130000D02*
X115490000Y-123130000D01*
X112830000Y-125730000D02*
X112830000Y-130870000D01*
%TO.C,R15*%
X197837064Y-68200000D02*
X196382936Y-68200000D01*
X197837064Y-66380000D02*
X196382936Y-66380000D01*
%TO.C,R13*%
X186670000Y-73197064D02*
X186670000Y-71742936D01*
X184850000Y-73197064D02*
X184850000Y-71742936D01*
%TO.C,R5*%
X180402936Y-139950000D02*
X181857064Y-139950000D01*
X180402936Y-138130000D02*
X181857064Y-138130000D01*
%TO.C,J16*%
X187590000Y-114440000D02*
X188920000Y-114440000D01*
X190250000Y-117040000D02*
X190250000Y-124720000D01*
X187590000Y-124720000D02*
X190250000Y-124720000D01*
X187590000Y-117040000D02*
X187590000Y-124720000D01*
X187590000Y-117040000D02*
X190250000Y-117040000D01*
X187590000Y-115770000D02*
X187590000Y-114440000D01*
%TO.C,R12*%
X182342936Y-107590000D02*
X183797064Y-107590000D01*
X182342936Y-105770000D02*
X183797064Y-105770000D01*
%TO.C,J20*%
X196030000Y-122070000D02*
X193370000Y-122070000D01*
X196030000Y-122070000D02*
X196030000Y-114390000D01*
X193370000Y-122070000D02*
X193370000Y-114390000D01*
X196030000Y-123340000D02*
X196030000Y-124670000D01*
X196030000Y-124670000D02*
X194700000Y-124670000D01*
X196030000Y-114390000D02*
X193370000Y-114390000D01*
%TO.C,Q5*%
X182150000Y-66380000D02*
X182800000Y-66380000D01*
X182150000Y-66380000D02*
X181500000Y-66380000D01*
X182150000Y-63260000D02*
X182800000Y-63260000D01*
X182150000Y-63260000D02*
X180475000Y-63260000D01*
%TO.C,R14*%
X187340000Y-73197064D02*
X187340000Y-71742936D01*
X189160000Y-73197064D02*
X189160000Y-71742936D01*
%TO.C,R3*%
X180912936Y-126640000D02*
X182367064Y-126640000D01*
X180912936Y-124820000D02*
X182367064Y-124820000D01*
%TO.C,J3*%
X116185000Y-137420000D02*
X134025000Y-137420000D01*
X116185000Y-134760000D02*
X134025000Y-134760000D01*
X113585000Y-137420000D02*
X113585000Y-136090000D01*
X116185000Y-137420000D02*
X116185000Y-134760000D01*
X134025000Y-137420000D02*
X134025000Y-134760000D01*
X114915000Y-137420000D02*
X113585000Y-137420000D01*
%TO.C,Q2*%
X180760000Y-134120000D02*
X181410000Y-134120000D01*
X180760000Y-137240000D02*
X180110000Y-137240000D01*
X180760000Y-137240000D02*
X181410000Y-137240000D01*
X180760000Y-134120000D02*
X179085000Y-134120000D01*
%TO.C,R6*%
X171240000Y-103657064D02*
X171240000Y-102202936D01*
X169420000Y-103657064D02*
X169420000Y-102202936D01*
%TO.C,Q6*%
X183170000Y-85330000D02*
X182520000Y-85330000D01*
X183170000Y-85330000D02*
X183820000Y-85330000D01*
X183170000Y-82210000D02*
X183820000Y-82210000D01*
X183170000Y-82210000D02*
X181495000Y-82210000D01*
%TO.C,Q1*%
X181980000Y-119560000D02*
X180305000Y-119560000D01*
X181980000Y-119560000D02*
X182630000Y-119560000D01*
X181980000Y-122680000D02*
X181330000Y-122680000D01*
X181980000Y-122680000D02*
X182630000Y-122680000D01*
%TO.C,J21*%
X193630000Y-140325000D02*
X196290000Y-140325000D01*
X196290000Y-135185000D02*
X196290000Y-140325000D01*
X193630000Y-132585000D02*
X194960000Y-132585000D01*
X193630000Y-133915000D02*
X193630000Y-132585000D01*
X193630000Y-135185000D02*
X196290000Y-135185000D01*
X193630000Y-135185000D02*
X193630000Y-140325000D01*
%TO.C,J15*%
X187550000Y-135225000D02*
X187550000Y-140365000D01*
X187550000Y-140365000D02*
X190210000Y-140365000D01*
X187550000Y-133955000D02*
X187550000Y-132625000D01*
X187550000Y-132625000D02*
X188880000Y-132625000D01*
X190210000Y-135225000D02*
X190210000Y-140365000D01*
X187550000Y-135225000D02*
X190210000Y-135225000D01*
%TO.C,R11*%
X177550000Y-99477064D02*
X177550000Y-98022936D01*
X179370000Y-99477064D02*
X179370000Y-98022936D01*
%TO.C,Q7*%
X183540000Y-97170000D02*
X184190000Y-97170000D01*
X183540000Y-97170000D02*
X181865000Y-97170000D01*
X183540000Y-100290000D02*
X182890000Y-100290000D01*
X183540000Y-100290000D02*
X184190000Y-100290000D01*
%TO.C,J19*%
X190485000Y-89640000D02*
X193145000Y-89640000D01*
X193145000Y-79420000D02*
X193145000Y-89640000D01*
X191815000Y-76820000D02*
X193145000Y-76820000D01*
X190485000Y-79420000D02*
X190485000Y-89640000D01*
X190485000Y-79420000D02*
X193145000Y-79420000D01*
X193145000Y-76820000D02*
X193145000Y-78150000D01*
%TO.C,Q3*%
X174750000Y-82770000D02*
X175400000Y-82770000D01*
X174750000Y-85890000D02*
X174100000Y-85890000D01*
X174750000Y-82770000D02*
X173075000Y-82770000D01*
X174750000Y-85890000D02*
X175400000Y-85890000D01*
%TO.C,R16*%
X197767064Y-70990000D02*
X196312936Y-70990000D01*
X197767064Y-69170000D02*
X196312936Y-69170000D01*
%TO.C,R9*%
X180922936Y-70710000D02*
X182377064Y-70710000D01*
X180922936Y-68890000D02*
X182377064Y-68890000D01*
%TO.C,R7*%
X178110000Y-65577064D02*
X178110000Y-64122936D01*
X176290000Y-65577064D02*
X176290000Y-64122936D01*
%TO.C,J18*%
X193165000Y-94810000D02*
X193165000Y-96140000D01*
X190505000Y-107630000D02*
X193165000Y-107630000D01*
X191835000Y-94810000D02*
X193165000Y-94810000D01*
X190505000Y-97410000D02*
X190505000Y-107630000D01*
X190505000Y-97410000D02*
X193165000Y-97410000D01*
X193165000Y-97410000D02*
X193165000Y-107630000D01*
%TO.C,R10*%
X182502936Y-90060000D02*
X183957064Y-90060000D01*
X182502936Y-91880000D02*
X183957064Y-91880000D01*
%TO.C,J17*%
X190590000Y-71210000D02*
X193250000Y-71210000D01*
X190590000Y-60930000D02*
X191920000Y-60930000D01*
X193250000Y-63530000D02*
X193250000Y-71210000D01*
X190590000Y-63530000D02*
X190590000Y-71210000D01*
X190590000Y-63530000D02*
X193250000Y-63530000D01*
X190590000Y-62260000D02*
X190590000Y-60930000D01*
%TO.C,J9*%
X154820000Y-134760000D02*
X156150000Y-134760000D01*
X145870000Y-134760000D02*
X145870000Y-137420000D01*
X153550000Y-134760000D02*
X153550000Y-137420000D01*
X153550000Y-137420000D02*
X145870000Y-137420000D01*
X156150000Y-134760000D02*
X156150000Y-136090000D01*
X153550000Y-134760000D02*
X145870000Y-134760000D01*
%TO.C,R1*%
X175630000Y-121867064D02*
X175630000Y-120412936D01*
X173810000Y-121867064D02*
X173810000Y-120412936D01*
%TO.C,R8*%
X178110000Y-83727064D02*
X178110000Y-82272936D01*
X179930000Y-83727064D02*
X179930000Y-82272936D01*
%TO.C,R2*%
X173720000Y-136037064D02*
X173720000Y-134582936D01*
X175540000Y-136037064D02*
X175540000Y-134582936D01*
%TO.C,Q4*%
X174680000Y-104420000D02*
X175330000Y-104420000D01*
X174680000Y-101300000D02*
X175330000Y-101300000D01*
X174680000Y-101300000D02*
X173005000Y-101300000D01*
X174680000Y-104420000D02*
X174030000Y-104420000D01*
%TO.C,J6*%
X123975000Y-125910000D02*
X122645000Y-125910000D01*
X130385000Y-125910000D02*
X130385000Y-123250000D01*
X125245000Y-125910000D02*
X125245000Y-123250000D01*
X125245000Y-125910000D02*
X130385000Y-125910000D01*
X122645000Y-125910000D02*
X122645000Y-124580000D01*
X125245000Y-123250000D02*
X130385000Y-123250000D01*
%TO.C,R4*%
X171520000Y-85087064D02*
X171520000Y-83632936D01*
X169700000Y-85087064D02*
X169700000Y-83632936D01*
%TD*%
M02*
