%TF.GenerationSoftware,KiCad,Pcbnew,(6.0.9)*%
%TF.CreationDate,2023-05-03T01:49:20-07:00*%
%TF.ProjectId,Air-Quality-PCB,4169722d-5175-4616-9c69-74792d504342,rev?*%
%TF.SameCoordinates,Original*%
%TF.FileFunction,Soldermask,Top*%
%TF.FilePolarity,Negative*%
%FSLAX46Y46*%
G04 Gerber Fmt 4.6, Leading zero omitted, Abs format (unit mm)*
G04 Created by KiCad (PCBNEW (6.0.9)) date 2023-05-03 01:49:20*
%MOMM*%
%LPD*%
G01*
G04 APERTURE LIST*
G04 Aperture macros list*
%AMRoundRect*
0 Rectangle with rounded corners*
0 $1 Rounding radius*
0 $2 $3 $4 $5 $6 $7 $8 $9 X,Y pos of 4 corners*
0 Add a 4 corners polygon primitive as box body*
4,1,4,$2,$3,$4,$5,$6,$7,$8,$9,$2,$3,0*
0 Add four circle primitives for the rounded corners*
1,1,$1+$1,$2,$3*
1,1,$1+$1,$4,$5*
1,1,$1+$1,$6,$7*
1,1,$1+$1,$8,$9*
0 Add four rect primitives between the rounded corners*
20,1,$1+$1,$2,$3,$4,$5,0*
20,1,$1+$1,$4,$5,$6,$7,0*
20,1,$1+$1,$6,$7,$8,$9,0*
20,1,$1+$1,$8,$9,$2,$3,0*%
G04 Aperture macros list end*
%ADD10R,1.700000X1.700000*%
%ADD11O,1.700000X1.700000*%
%ADD12RoundRect,0.250000X0.312500X0.625000X-0.312500X0.625000X-0.312500X-0.625000X0.312500X-0.625000X0*%
%ADD13RoundRect,0.250000X0.625000X-0.312500X0.625000X0.312500X-0.625000X0.312500X-0.625000X-0.312500X0*%
%ADD14C,3.200000*%
%ADD15RoundRect,0.250000X-0.312500X-0.625000X0.312500X-0.625000X0.312500X0.625000X-0.312500X0.625000X0*%
%ADD16RoundRect,0.150000X-0.587500X-0.150000X0.587500X-0.150000X0.587500X0.150000X-0.587500X0.150000X0*%
G04 APERTURE END LIST*
D10*
%TO.C,J11*%
X156960000Y-96500000D03*
D11*
X156960000Y-99040000D03*
X156960000Y-101580000D03*
X156960000Y-104120000D03*
X156960000Y-106660000D03*
X156960000Y-109200000D03*
X156960000Y-111740000D03*
X156960000Y-114280000D03*
X156960000Y-116820000D03*
X156960000Y-119360000D03*
%TD*%
D10*
%TO.C,J13*%
X159510000Y-96500000D03*
D11*
X159510000Y-99040000D03*
X159510000Y-101580000D03*
X159510000Y-104120000D03*
X159510000Y-106660000D03*
X159510000Y-109200000D03*
X159510000Y-111740000D03*
X159510000Y-114280000D03*
X159510000Y-116820000D03*
X159510000Y-119360000D03*
%TD*%
D10*
%TO.C,J5*%
X123965000Y-122030000D03*
D11*
X126505000Y-122030000D03*
X129045000Y-122030000D03*
%TD*%
%TO.C,J10*%
X149435000Y-121990000D03*
D10*
X146895000Y-121990000D03*
%TD*%
D11*
%TO.C,J12*%
X149440000Y-124540000D03*
D10*
X146900000Y-124540000D03*
%TD*%
%TO.C,J14*%
X159620000Y-124460000D03*
D11*
X159620000Y-127000000D03*
X159620000Y-129540000D03*
%TD*%
D10*
%TO.C,J2*%
X112990000Y-96480000D03*
D11*
X112990000Y-99020000D03*
X112990000Y-101560000D03*
X112990000Y-104100000D03*
X112990000Y-106640000D03*
X112990000Y-109180000D03*
X112990000Y-111720000D03*
X112990000Y-114260000D03*
X112990000Y-116800000D03*
X112990000Y-119340000D03*
%TD*%
%TO.C,J4*%
X115530000Y-119340000D03*
X115530000Y-116800000D03*
X115530000Y-114260000D03*
X115530000Y-111720000D03*
X115530000Y-109180000D03*
X115530000Y-106640000D03*
X115530000Y-104100000D03*
X115530000Y-101560000D03*
X115530000Y-99020000D03*
D10*
X115530000Y-96480000D03*
%TD*%
%TO.C,J8*%
X118835000Y-86400000D03*
D11*
X121375000Y-86400000D03*
X123915000Y-86400000D03*
X126455000Y-86400000D03*
X128995000Y-86400000D03*
X131535000Y-86400000D03*
X134075000Y-86400000D03*
%TD*%
D10*
%TO.C,J7*%
X118850000Y-83870000D03*
D11*
X121390000Y-83870000D03*
X123930000Y-83870000D03*
X126470000Y-83870000D03*
X129010000Y-83870000D03*
X131550000Y-83870000D03*
X134090000Y-83870000D03*
%TD*%
D10*
%TO.C,J1*%
X114160000Y-124460000D03*
D11*
X114160000Y-127000000D03*
X114160000Y-129540000D03*
%TD*%
D12*
%TO.C,R15*%
X195647500Y-67290000D03*
X198572500Y-67290000D03*
%TD*%
D13*
%TO.C,R13*%
X185760000Y-71007500D03*
X185760000Y-73932500D03*
%TD*%
D14*
%TO.C,H1*%
X110060000Y-62410000D03*
%TD*%
D15*
%TO.C,R5*%
X182592500Y-139040000D03*
X179667500Y-139040000D03*
%TD*%
D10*
%TO.C,J16*%
X188920000Y-115770000D03*
D11*
X188920000Y-118310000D03*
X188920000Y-120850000D03*
X188920000Y-123390000D03*
%TD*%
D15*
%TO.C,R12*%
X181607500Y-106680000D03*
X184532500Y-106680000D03*
%TD*%
D10*
%TO.C,J20*%
X194700000Y-123340000D03*
D11*
X194700000Y-120800000D03*
X194700000Y-118260000D03*
X194700000Y-115720000D03*
%TD*%
D16*
%TO.C,Q5*%
X183087500Y-64820000D03*
X181212500Y-65770000D03*
X181212500Y-63870000D03*
%TD*%
D13*
%TO.C,R14*%
X188250000Y-71007500D03*
X188250000Y-73932500D03*
%TD*%
D15*
%TO.C,R3*%
X180177500Y-125730000D03*
X183102500Y-125730000D03*
%TD*%
D11*
%TO.C,J3*%
X132695000Y-136090000D03*
X130155000Y-136090000D03*
X127615000Y-136090000D03*
X125075000Y-136090000D03*
X122535000Y-136090000D03*
X119995000Y-136090000D03*
X117455000Y-136090000D03*
D10*
X114915000Y-136090000D03*
%TD*%
D16*
%TO.C,Q2*%
X179822500Y-134730000D03*
X179822500Y-136630000D03*
X181697500Y-135680000D03*
%TD*%
D13*
%TO.C,R6*%
X170330000Y-104392500D03*
X170330000Y-101467500D03*
%TD*%
D14*
%TO.C,H4*%
X163060000Y-62310000D03*
%TD*%
D16*
%TO.C,Q6*%
X182232500Y-82820000D03*
X182232500Y-84720000D03*
X184107500Y-83770000D03*
%TD*%
%TO.C,Q1*%
X181042500Y-120170000D03*
X181042500Y-122070000D03*
X182917500Y-121120000D03*
%TD*%
D14*
%TO.C,H3*%
X110020000Y-130590000D03*
%TD*%
D10*
%TO.C,J21*%
X194960000Y-133915000D03*
D11*
X194960000Y-136455000D03*
X194960000Y-138995000D03*
%TD*%
D10*
%TO.C,J15*%
X188880000Y-133955000D03*
D11*
X188880000Y-136495000D03*
X188880000Y-139035000D03*
%TD*%
D13*
%TO.C,R11*%
X178460000Y-100212500D03*
X178460000Y-97287500D03*
%TD*%
D16*
%TO.C,Q7*%
X182602500Y-97780000D03*
X182602500Y-99680000D03*
X184477500Y-98730000D03*
%TD*%
D10*
%TO.C,J19*%
X191815000Y-78150000D03*
D11*
X191815000Y-80690000D03*
X191815000Y-83230000D03*
X191815000Y-85770000D03*
X191815000Y-88310000D03*
%TD*%
D16*
%TO.C,Q3*%
X173812500Y-83380000D03*
X173812500Y-85280000D03*
X175687500Y-84330000D03*
%TD*%
D12*
%TO.C,R16*%
X198502500Y-70080000D03*
X195577500Y-70080000D03*
%TD*%
D15*
%TO.C,R9*%
X183112500Y-69800000D03*
X180187500Y-69800000D03*
%TD*%
D13*
%TO.C,R7*%
X177200000Y-63387500D03*
X177200000Y-66312500D03*
%TD*%
D10*
%TO.C,J18*%
X191835000Y-96140000D03*
D11*
X191835000Y-98680000D03*
X191835000Y-101220000D03*
X191835000Y-103760000D03*
X191835000Y-106300000D03*
%TD*%
D15*
%TO.C,R10*%
X181767500Y-90970000D03*
X184692500Y-90970000D03*
%TD*%
D11*
%TO.C,J17*%
X191920000Y-69880000D03*
X191920000Y-67340000D03*
X191920000Y-64800000D03*
D10*
X191920000Y-62260000D03*
%TD*%
%TO.C,J9*%
X154820000Y-136090000D03*
D11*
X152280000Y-136090000D03*
X149740000Y-136090000D03*
X147200000Y-136090000D03*
%TD*%
D13*
%TO.C,R1*%
X174720000Y-122602500D03*
X174720000Y-119677500D03*
%TD*%
D14*
%TO.C,H2*%
X163060000Y-130580000D03*
%TD*%
D13*
%TO.C,R8*%
X179020000Y-84462500D03*
X179020000Y-81537500D03*
%TD*%
%TO.C,R2*%
X174630000Y-136772500D03*
X174630000Y-133847500D03*
%TD*%
D16*
%TO.C,Q4*%
X173742500Y-101910000D03*
X173742500Y-103810000D03*
X175617500Y-102860000D03*
%TD*%
D11*
%TO.C,J6*%
X129055000Y-124580000D03*
X126515000Y-124580000D03*
D10*
X123975000Y-124580000D03*
%TD*%
D13*
%TO.C,R4*%
X170610000Y-85822500D03*
X170610000Y-82897500D03*
%TD*%
M02*
