M48
; DRILL file {KiCad (6.0.9)} date Wed May  3 01:49:10 2023
; FORMAT={-:-/ absolute / inch / decimal}
; #@! TF.CreationDate,2023-05-03T01:49:10-07:00
; #@! TF.GenerationSoftware,Kicad,Pcbnew,(6.0.9)
; #@! TF.FileFunction,Plated,1,2,PTH
FMAT,2
INCH
; #@! TA.AperFunction,Plated,PTH,ViaDrill
T1C0.0157
; #@! TA.AperFunction,Plated,PTH,ComponentDrill
T2C0.0394
%
G90
G05
T1
X5.8283Y-3.6972
X5.9091Y-3.7091
X5.95Y-3.4925
X6.0Y-3.7181
X6.0394Y-3.5102
X6.0843Y-3.7213
X6.1697Y-3.4146
X6.3287Y-3.4165
X6.5728Y-3.5799
X6.5756Y-3.461
X6.5776Y-4.428
X6.5776Y-4.6575
X6.5791Y-4.3697
X6.5819Y-4.3031
X6.5839Y-4.2173
X6.5933Y-4.5
X6.6496Y-3.1823
X6.652Y-3.1217
X6.6681Y-2.7744
X6.7055Y-3.4646
X6.7157Y-3.5807
X6.7567Y-2.6323
X6.7671Y-4.6392
X6.7728Y-3.1055
X6.7732Y-3.1776
X6.7827Y-4.4996
X6.787Y-4.2185
X6.7878Y-4.3031
X6.7898Y-4.3705
X6.7913Y-4.4327
X6.9382Y-5.2839
X6.9512Y-4.9209
X6.9646Y-4.9906
X7.0205Y-5.3083
X7.0358Y-5.0906
X7.0496Y-3.7736
X7.1106Y-5.1303
X7.126Y-4.4996
X7.1504Y-3.7756
X7.3346Y-4.2996
X7.6615Y-4.294
X7.6622Y-3.5961
X7.6622Y-4.0945
X7.6917Y-3.4539
T2
X4.4484Y-3.7984
X4.4484Y-3.8984
X4.4484Y-3.9984
X4.4484Y-4.0984
X4.4484Y-4.1984
X4.4484Y-4.2984
X4.4484Y-4.3984
X4.4484Y-4.4984
X4.4484Y-4.5984
X4.4484Y-4.6984
X4.4945Y-4.9
X4.4945Y-5.0
X4.4945Y-5.1
X4.5242Y-5.3579
X4.5484Y-3.7984
X4.5484Y-3.8984
X4.5484Y-3.9984
X4.5484Y-4.0984
X4.5484Y-4.1984
X4.5484Y-4.2984
X4.5484Y-4.3984
X4.5484Y-4.4984
X4.5484Y-4.5984
X4.5484Y-4.6984
X4.6242Y-5.3579
X4.6785Y-3.4016
X4.6791Y-3.302
X4.7242Y-5.3579
X4.7785Y-3.4016
X4.7791Y-3.302
X4.8242Y-5.3579
X4.8785Y-3.4016
X4.8791Y-3.302
X4.8805Y-4.8043
X4.8809Y-4.9047
X4.9242Y-5.3579
X4.9785Y-3.4016
X4.9791Y-3.302
X4.9805Y-4.8043
X4.9809Y-4.9047
X5.0242Y-5.3579
X5.0785Y-3.4016
X5.0791Y-3.302
X5.0805Y-4.8043
X5.0809Y-4.9047
X5.1242Y-5.3579
X5.1785Y-3.4016
X5.1791Y-3.302
X5.2242Y-5.3579
X5.2785Y-3.4016
X5.2791Y-3.302
X5.7833Y-4.8028
X5.7835Y-4.9031
X5.7953Y-5.3579
X5.8833Y-4.8028
X5.8835Y-4.9031
X5.8953Y-5.3579
X5.9953Y-5.3579
X6.0953Y-5.3579
X6.1795Y-3.7992
X6.1795Y-3.8992
X6.1795Y-3.9992
X6.1795Y-4.0992
X6.1795Y-4.1992
X6.1795Y-4.2992
X6.1795Y-4.3992
X6.1795Y-4.4992
X6.1795Y-4.5992
X6.1795Y-4.6992
X6.2799Y-3.7992
X6.2799Y-3.8992
X6.2799Y-3.9992
X6.2799Y-4.0992
X6.2799Y-4.1992
X6.2799Y-4.2992
X6.2799Y-4.3992
X6.2799Y-4.4992
X6.2799Y-4.5992
X6.2799Y-4.6992
X6.2843Y-4.9
X6.2843Y-5.0
X6.2843Y-5.1
X7.4362Y-5.2738
X7.4362Y-5.3738
X7.4362Y-5.4738
X7.4378Y-4.5579
X7.4378Y-4.6579
X7.4378Y-4.7579
X7.4378Y-4.8579
X7.5518Y-3.0768
X7.5518Y-3.1768
X7.5518Y-3.2768
X7.5518Y-3.3768
X7.5518Y-3.4768
X7.5526Y-3.785
X7.5526Y-3.885
X7.5526Y-3.985
X7.5526Y-4.085
X7.5526Y-4.185
X7.5559Y-2.4512
X7.5559Y-2.5512
X7.5559Y-2.6512
X7.5559Y-2.7512
X7.6654Y-4.5559
X7.6654Y-4.6559
X7.6654Y-4.7559
X7.6654Y-4.8559
X7.6756Y-5.2722
X7.6756Y-5.3722
X7.6756Y-5.4722
T0
M30
